<svg width="2379.833" height="799.98" viewBox="0.006 -0.005 2379.833 799.98" xmlns="http://www.w3.org/2000/svg"><g transform="matrix(1.3333 0 0 1.3333 257.12 -338.77)"><g fill="#fff"><path d="m-192.84 254.08v600h600v-600zm9.3691 9.3672h581.26v581.26h-581.26z" color="#000000" style="isolation:auto;mix-blend-mode:normal;text-decoration-color:#000;text-decoration-line:none;text-decoration-style:solid;text-indent:0;text-transform:none;white-space:normal"/><path transform="translate(-192.84,254.08)" d="m205.11 7.5703v80.977h86.05v-80.977l-86.05 3e-4zm46.81 10.612c0.78 0 1.57 0.025 2.39 0.078 0.47 0.026 0.92 0.053 1.39 0.105 0.66 0.053 1.34 0.132 2 0.211l0.44 0.078c0.42 0.053 0.79 0.131 1.18 0.184 0.45 0.105 0.92 0.185 1.34 0.264 0.45 0.105 0.9 0.182 1.32 0.287 0.26 0.052 0.52 0.133 0.78 0.185 0.4 0.105 0.82 0.21 1.19 0.315 0.34 0.078 0.65 0.183 1 0.261l0.28 0.08c0.34 0.106 0.66 0.21 0.98 0.315 0.44 0.105 0.86 0.263 1.28 0.394 0.37 0.106 0.74 0.236 1.08 0.368 0.42 0.131 0.84 0.288 1.21 0.42 0.68 0.236 1.31 0.474 1.81 0.658 1.18 0.446 1.87 0.734 1.87 0.734v10.848l-1.14-0.631c-0.42-0.21-0.92-0.499-1.52-0.815-0.37-0.183-0.73-0.366-1.13-0.576-0.47-0.21-0.97-0.474-1.52-0.711-0.63-0.289-1.31-0.602-2-0.865-0.52-0.21-1.05-0.421-1.6-0.631 0 0-0.34-0.131-0.94-0.342-0.37-0.105-0.82-0.262-1.37-0.419-0.34-0.105-0.74-0.21-1.16-0.315-0.65-0.184-1.36-0.369-2.15-0.5-0.53-0.131-1.08-0.21-1.65-0.289-0.63-0.105-1.32-0.183-2-0.262-0.37-0.026-0.74-0.054-1.1-0.08-0.56-0.026-1.11-0.052-1.69-0.078h-0.76c-0.79 0-1.57 0.053-2.39 0.106-0.39 0.052-0.81 0.078-1.26 0.13-0.42 0.079-0.84 0.133-1.26 0.211l-1.18 0.237c-0.37 0.105-0.76 0.184-1.16 0.289-0.39 0.131-0.81 0.235-1.23 0.392-0.37 0.132-0.74 0.264-1.13 0.395l-1.1 0.473c-2.37 1.076-4.63 2.599-6.67 4.595-0.14 0.158-0.27 0.29-0.4 0.448-0.24 0.262-0.5 0.55-0.74 0.839-0.18 0.21-0.34 0.448-0.52 0.659-0.45 0.63-0.87 1.26-1.23 1.89-0.16 0.289-0.32 0.551-0.48 0.84-0.18 0.394-0.37 0.761-0.52 1.129-0.13 0.263-0.24 0.552-0.34 0.814-0.16 0.394-0.32 0.815-0.42 1.209-0.14 0.421-0.24 0.84-0.34 1.26-0.16 0.604-0.27 1.208-0.35 1.76-0.13 0.893-0.18 1.707-0.21 2.338 0 0.262-0.02 0.499-0.02 0.709 0 0.315 0.02 0.684 0.02 1.131 0.03 0.289 0.06 0.603 0.08 0.97 0.08 0.893 0.24 1.944 0.53 3.1 0.1 0.394 0.21 0.815 0.34 1.209 0.18 0.552 0.39 1.103 0.6 1.654 0.16 0.315 0.32 0.657 0.48 0.998 0.18 0.368 0.39 0.763 0.6 1.157 0.16 0.262 0.31 0.524 0.5 0.787 0.18 0.262 0.37 0.525 0.58 0.814 0.18 0.289 0.42 0.551 0.63 0.84 0.42 0.499 0.89 0.999 1.36 1.498l0.16 0.131 0.11 0.105 0.18 0.159 0.34 0.314c0.26 0.236 0.58 0.474 0.89 0.736 0.29 0.237 0.61 0.472 0.95 0.682 0.24 0.184 0.53 0.341 0.79 0.525 0.26 0.158 0.5 0.316 0.76 0.448 0.52 0.315 1.05 0.577 1.6 0.839 0.26 0.105 0.5 0.237 0.76 0.342 0.16 0.053 0.32 0.131 0.45 0.184 0.24 0.079 0.47 0.185 0.71 0.263 1.55 0.578 3.18 0.972 4.75 1.235 1 0.184 1.97 0.287 2.94 0.34 0.82 0.052 1.63 0.08 2.4 0.08 0.36 0 0.76-1e-3 1.18-0.028 0.65-0.026 1.36-0.077 2.12-0.156 0.5-0.052 1.03-0.105 1.55-0.183 0.24-0.053 0.45-0.081 0.69-0.133 1.94-0.342 4.17-0.892 6.56-1.733 1.29-0.472 2.58-0.999 3.94-1.656 0.79-0.368 1.58-0.76 2.37-1.207 0.73-0.394 1.47-0.814 2.23-1.287l0.73-0.447c0.14-0.079 0.29-0.158 0.4-0.237v11.032c-0.19 0.105-0.37 0.184-0.55 0.289-0.45 0.21-0.9 0.421-1.32 0.605-0.47 0.237-0.92 0.42-1.36 0.604-0.71 0.315-1.34 0.551-1.84 0.761-0.39 0.158-0.74 0.263-0.97 0.368l-0.5 0.158c-0.5 0.184-1.03 0.368-1.58 0.525-0.47 0.132-0.94 0.263-1.44 0.395-0.68 0.184-1.37 0.367-2.13 0.525-0.47 0.105-0.97 0.208-1.47 0.287-0.81 0.132-1.65 0.29-2.52 0.395-0.58 0.052-1.18 0.131-1.81 0.183l-0.29 0.028c-1.55 0.131-3.23 0.183-5.05 0.183h-0.7c-0.5 0-1-0.026-1.48-0.052-1.02-0.053-1.99-0.132-2.94-0.237-0.94-0.131-1.86-0.263-2.73-0.447-1.1-0.21-2.15-0.446-3.13-0.734-0.57-0.184-1.15-0.342-1.68-0.526-0.57-0.184-1.1-0.393-1.62-0.603-1.37-0.552-2.63-1.182-3.76-1.813-0.58-0.315-1.1-0.631-1.63-0.972-0.5-0.316-0.94-0.631-1.36-0.946-0.37-0.262-0.71-0.526-1.06-0.789-0.36-0.263-0.68-0.55-0.99-0.812-0.45-0.394-0.87-0.79-1.24-1.131l-0.23-0.237c-0.45-0.446-0.92-0.918-1.37-1.443l-1.1-1.34c-0.34-0.446-0.69-0.92-1.03-1.392-0.26-0.394-0.52-0.763-0.76-1.157-0.29-0.499-0.6-0.998-0.89-1.523-0.48-0.893-0.92-1.864-1.34-2.836-0.29-0.63-0.5-1.261-0.74-1.918-0.18-0.551-0.34-1.103-0.47-1.654-0.13-0.42-0.24-0.866-0.32-1.313-0.05-0.184-0.1-0.395-0.13-0.605-0.1-0.552-0.18-1.076-0.26-1.627l-0.03-0.317c-0.07-0.472-0.1-0.919-0.13-1.392-0.02-0.447-0.02-0.919-0.02-1.365 0-0.631 0.02-1.234 0.05-1.838 0.05-0.788 0.13-1.55 0.21-2.285 0.31-2.391 0.92-4.65 1.71-6.725 0.65-1.681 1.44-3.256 2.33-4.727 0.16-0.236 0.32-0.5 0.48-0.736 0.23-0.368 0.47-0.709 0.71-1.051 0.34-0.472 0.71-0.918 1.05-1.365l1.02-1.182c0.34-0.367 0.71-0.735 1.05-1.103 0.42-0.42 0.89-0.84 1.34-1.234 0.5-0.447 1.03-0.867 1.55-1.288 0.26-0.21 0.55-0.393 0.81-0.603 0.32-0.21 0.64-0.422 0.95-0.658 0.58-0.368 1.16-0.735 1.76-1.076 0.63-0.368 1.31-0.71 2-1.051 0.81-0.394 1.68-0.788 2.57-1.129 1.74-0.683 3.62-1.262 5.67-1.682 0.32-0.079 0.66-0.13 1-0.209 0.24-0.052 0.5-0.08 0.74-0.133l0.58-0.078 0.47-0.078 0.42-0.053c0.47-0.052 1-0.105 1.5-0.158 0.34-0.026 0.7-0.078 1.05-0.078 0.63-0.052 1.26-0.08 1.91-0.08 0.34 0 0.55-0.025 0.9-0.025z"/><path transform="translate(-192.84,254.08)" d="m105.96 7.5703v80.977h86.05v-80.977l-86.05 3e-4zm22.56 11.373h18.94c10.19 0 14.71 5.33 14.71 5.33s4.09 3.55 4.09 9.748c0 6.147-2.78 8.666-3.57 9.454-1.68 1.681-3.86 2.705-3.86 2.705s4.84 1.026 8.62 4.808c4.46 4.465 4.12 10.268 4.12 10.268s0.34 5.568-4.46 10.375c-5.91 5.91-16.63 5.621-16.63 5.621h-21.96zm10.45 9.094v15.102h5.02s0.31-1e-3 0.76-0.028c0.34 0 0.76-0.026 1.13-0.052 1.03-0.079 2.44-0.236 3.89-0.604 0.26-0.105 0.55-0.184 0.81-0.289 1.13-0.394 2.18-0.969 3.02-1.783 0.66-0.657 1.11-1.369 1.39-2.078 0.35-0.867 0.48-1.706 0.53-2.284 0.05-0.525 0.05-0.841 0.05-0.841s0-0.263-0.03-0.657c-0.02-0.656-0.15-1.705-0.68-2.755-0.23-0.473-0.6-0.946-1.05-1.418-0.58-0.552-1.26-0.973-1.97-1.315-1.41-0.604-3.02-0.84-4.38-0.945-0.61-0.053-1.13-0.053-1.61-0.053zm0 24.195v15.916h10.32s0.21 1e-3 0.56-0.025c0.34 0 0.84-0.025 1.44-0.078 1.13-0.105 2.6-0.318 4.02-0.791 1.31-0.447 2.57-1.101 3.52-2.072 0.39-0.368 0.68-0.735 0.95-1.129 0.81-1.287 0.99-2.577 1.04-3.313 0.03-0.315 0.03-0.496 0.03-0.496v-0.394c0-0.316-0.05-0.921-0.21-1.551-0.18-0.762-0.55-1.629-1.21-2.444-0.13-0.131-0.26-0.287-0.39-0.445-0.29-0.289-0.6-0.551-0.94-0.787-0.56-0.42-1.22-0.791-1.92-1.08-0.92-0.394-1.95-0.708-3.1-0.918-0.58-0.105-1.21-0.209-1.84-0.262-0.39-0.052-0.79-0.079-1.18-0.105-0.37 0-0.74-0.026-1.11-0.026z"/><path transform="translate(-192.84,254.08)" d="m6.8066 7.5703v80.977h86.047v-80.977l-86.047 3e-4zm22.562 11.373h18.94c10.191 0 14.707 5.33 14.707 5.33s4.095 3.55 4.095 9.748c0 6.147-2.782 8.666-3.57 9.454-1.681 1.681-3.889 2.705-3.889 2.705s4.861 1.026 8.643 4.808c4.465 4.465 4.123 10.268 4.123 10.268s0.342 5.568-4.465 10.375c-5.91 5.91-16.627 5.621-16.627 5.621h-21.957zm10.455 9.094v15.102h5.02s0.313-1e-3 0.76-0.028c0.341 0 0.763-0.026 1.13-0.052 1.025-0.079 2.443-0.236 3.862-0.604 0.289-0.105 0.575-0.184 0.838-0.289 1.129-0.394 2.181-0.969 3.021-1.783 0.657-0.657 1.102-1.369 1.391-2.078 0.341-0.867 0.475-1.706 0.527-2.284 0.053-0.525 0.053-0.841 0.053-0.841s-1e-3 -0.263-0.028-0.657c-0.026-0.656-0.158-1.705-0.683-2.755-0.263-0.473-0.602-0.946-1.049-1.418-0.578-0.552-1.262-0.973-1.971-1.315-1.418-0.604-3.047-0.84-4.386-0.945-0.605-0.053-1.129-0.053-1.602-0.053zm0 24.195v15.916h10.322s0.212 1e-3 0.553-0.025c0.368 0 0.841-0.025 1.446-0.078 1.129-0.105 2.601-0.318 4.019-0.791 1.313-0.447 2.571-1.101 3.543-2.072 0.368-0.368 0.657-0.735 0.92-1.129 0.814-1.287 0.998-2.577 1.051-3.313 0.026-0.315 0.027-0.496 0.027-0.496v-0.394c0-0.316-0.053-0.921-0.211-1.551-0.21-0.762-0.55-1.629-1.207-2.444-0.131-0.131-0.263-0.287-0.394-0.445-0.289-0.289-0.604-0.551-0.946-0.787-0.551-0.42-1.207-0.791-1.89-1.08-0.946-0.394-1.97-0.708-3.125-0.918-0.578-0.105-1.21-0.209-1.84-0.262-0.394-0.052-0.79-0.079-1.184-0.105-0.368 0-0.736-0.026-1.103-0.026z"/></g><path d="m301.29 500.63c-17.02-38.479-44.94-71.075-79.821-93.873l0.26265 135.9c33.042-0.0262 62.197-16.679 79.558-42.025" fill="#f3611f"/><path d="m221.74 633.7v135.61c34.749-22.772 62.538-55.263 79.532-93.61-17.388-25.346-46.49-41.972-79.532-41.999" fill="#ef3623"/><path d="m116.83 689.76s0 0.0262 0.0262 0.0262c48.381 1.2345 87.99-37.35 87.99-85.783v-207.05c-26.53-14.13-56.35-22.9-88.02-24.87v317.68z" fill="#378baa"/><path d="m116.84 690.46s-0.0262 0-0.0262 0.0262v113.7c31.676-1.9699 61.488-10.743 88.016-24.873l0.0262-3.0993c0-48.407-39.608-87.018-88.016-85.757" fill="#53c49b"/><path d="m11.916 511.26h0.02626c48.618-0.0262 88.016-39.425 88.016-88.042v-51.533c-31.414 0.47279-61.225 7.617-88.042 20.119v119.46z" fill="#ef249c"/><path d="m11.916 784.46c26.817 12.502 56.628 19.647 88.042 20.119v-205.27c0-48.618-39.398-88.042-88.016-88.042h-0.02626v273.19z" fill="#d51378"/><path d="m-113.26 588.14c0 80.136 43.575 150.08 108.32 187.51v-113.86c-14.341-20.986-22.746-46.332-22.746-73.649 0-27.316 8.405-52.662 22.746-73.649v-113.86c-64.741 37.42-108.32 107.37-108.32 187.51" fill="#89cf25"/></g><g transform="translate(0 84.414)" fill="#8afa13"><path d="m843.68 291.85h286.64v63.597h-106.78v275.72h-73.09v-275.72h-106.78v-63.597zm550.99 339.32v-145.7h-147.6v145.7h-73.091v-339.32h73.091v130.03h147.6v-130.03h73.077v339.32zm205.48-123.38v123.38h-72.142v-339.32h123.86c44.61 0 78.852 9.3224 102.74 27.994 23.885 18.671 35.833 45.405 35.833 80.204 0 22.476-5.304 41.621-15.903 57.435-10.599 15.815-25.708 28.003-45.318 36.548l42.228 67.632 41.78 69.506h-84.008a3407.7 3407.7 0 0 0-70.702-123.38zm0-57.434h47.451c22.466 0 39.547-4.0361 51.264-12.099 11.716-8.0631 17.555-20.806 17.555-38.209 0-17.404-5.7681-30.199-17.322-38.442-11.554-8.2417-28.547-12.331-51.015-12.331h-47.925v101.08zm250.09-158.51h233.48v60.747h-160.41v73.556h142.38v60.747h-142.38v83.526h169.43v60.747h-242.51zm287.1 0h233.49v60.747h-160.42v73.556h142.37v60.747h-142.37v83.526h169.43v60.747h-242.53z"/><path d="m1271.3 0.0024736v194.57h194.57v-194.57zm135.68 137.31c-3.5992 4.9088-8.5332 8.6811-14.214 10.868-7.0691 2.716-14.602 4.0159-22.174 3.8261h-43.604v-109.45h41.074c12.104 0 21.48 2.4228 28.127 7.2682 6.6428 4.8313 10.394 12.693 9.9719 20.896 0.1266 4.7632-1.1222 9.4617-3.5738 13.546-2.5683 3.9919-6.2379 7.1553-10.564 9.1085 5.882 1.7511 11.063 5.3138 14.806 10.18 3.5107 4.9262 5.3153 10.866 5.1367 16.913 0.1602 5.999-1.5867 11.894-4.9861 16.838zm-27.834-53.5c3.069-2.5929 4.747-6.4721 4.5374-10.484 0-8.6733-5.9017-13.01-17.708-13.013h-16.816v27.25h16.816c4.6934 0.32002 9.3503-1.0074 13.171-3.7532zm-10.343 20.896h-19.643v29.544h19.346c5.3714 0.33336 10.718-0.97476 15.328-3.7509 3.5373-2.4256 5.5655-6.5096 5.3587-10.793 0-9.9988-6.7962-15-20.39-15.001zm145.7-104.71v194.57h194.57v-194.57zm135.68 137.31c-3.6006 4.9088-8.5332 8.6811-14.214 10.868-7.069 2.716-14.603 4.0159-22.174 3.8261h-43.606v-109.45h41.074c12.104 0 21.48 2.4228 28.129 7.2682 6.6428 4.8313 10.394 12.693 9.9706 20.896 0.1266 4.7632-1.1209 9.4617-3.5725 13.546-2.5696 3.9919-6.2392 7.1553-10.566 9.1085 5.8834 1.7511 11.065 5.3138 14.806 10.18 3.512 4.9262 5.3166 10.866 5.1365 16.913 0.1604 5.999-1.585 11.894-4.9846 16.838zm-27.832-53.5c3.069-2.5924 4.7497-6.4718 4.5415-10.484 0-8.6733-5.9044-13.01-17.713-13.013h-16.816v27.25h16.816c4.6936 0.32002 9.3504-1.0074 13.171-3.7532zm-10.343 20.896h-19.643v29.544h19.346c5.3728 0.33336 10.719-0.97476 15.329-3.7509 3.536-2.4256 5.5627-6.5096 5.3574-10.793 0-9.9988-6.7962-15-20.39-15.001zm145.7 89.863h194.57v-194.57h-194.57zm139.74-49.499c-4.965 2.6661-10.265 4.6589-15.756 5.9263-6.1744 1.4732-12.502 2.2033-18.85 2.1756-8.041 0.11631-16.042-1.1776-23.634-3.8262-6.6556-2.3343-12.719-6.0987-17.764-11.029-4.9594-4.9857-8.7583-11.005-11.124-17.628-2.6738-7.535-3.9833-15.487-3.8651-23.481-0.1127-7.8604 1.2504-15.673 4.0184-23.03 2.5429-6.6459 6.4951-12.661 11.587-17.631 5.1899-4.9898 11.376-8.8255 18.152-11.255 7.6105-2.6935 15.64-4.0136 23.712-3.8992 5.7962-0.03183 11.575 0.59781 17.228 1.8742 5.2294 1.1869 10.29 3.027 15.061 5.4767v21.306c-4.2364-2.805-8.8707-4.9547-13.748-6.376-5.0704-1.4678-10.324-2.2004-15.603-2.1756-6.657-0.19454-13.26 1.249-19.232 4.2006-5.2139 2.7103-9.4714 6.9518-12.203 12.154-2.993 6.0011-4.4558 12.65-4.2519 19.354-0.194 6.7094 1.2096 13.369 4.0958 19.43 2.5949 5.2149 6.754 9.4892 11.895 12.227 5.8609 2.9536 12.365 4.3983 18.925 4.2029 11.079 0.0722 21.952-2.9988 31.36-8.8532z"/></g></svg>