<svg xmlns="http://www.w3.org/2000/svg" viewBox="0 0 79 79"><path d="M72.1 32v2.3.3.7.5c0 .3-.1.5-.1.8-.1.5-.1 1.1-.2 1.6-.1.9-.3 1.7-.5 2.6-.5 2.1-1.2 4.2-2.2 6.1-1.9 4-4.6 7.6-7.9 10.5-.4.3-.8.7-1.2 1l-.1.1c-.1.1-.1.1-.1 0l-.1-.2c-.8-1.9-2.8-3-4.8-2.8-.5.1-.9.2-1.3.3-1.3.6-2.3 1.7-2.7 3.1s-.1 2.9.7 4.1l.1.1v.1l-.2.1c-1.2.5-2.4.8-3.7 1.2l-3 .6c-.5.1-1 .1-1.4.2s-1 .1-1.6.1-1.2.1-1.8.1c-.8 0-1.7 0-2.5-.1-.5 0-1-.1-1.5-.1-.6-.1-1.1-.2-1.7-.2-.8-.1-1.6-.3-2.5-.5-2.9-.7-5.7-1.8-8.2-3.3-8.2-4.7-13.9-12.7-15.7-22-.1-.7-.3-1.5-.4-2.2 0-.5-.1-.9-.1-1.4s-.1-.9-.1-1.4v-.2-.1h-.1v-1.7h.1v-.2c0-.6.1-1.2.1-1.8 0-.5.1-1 .2-1.4l.3-2c.2-1.2.5-2.4.9-3.5 3.4-10.8 12.3-19 23.3-21.7.7-.2 1.5-.3 2.2-.5.4-.1.8-.1 1.2-.2.4 0 .8-.1 1.2-.2.4 0 .7 0 1-.1h.6.6.1 1.3.1.7c.5 0 .9.1 1.4.1.4 0 .8.1 1.3.1.5.1 1 .1 1.6.2.9.2 1.7.3 2.6.6 3.3.9 6.5 2.3 9.3 4.1 4.8 3.1 8.7 7.3 11.3 12.3 1.2 2.3 2.1 4.7 2.7 7.2.2.7.3 1.5.5 2.2.1.4.1.8.2 1.2 0 .3.1.7.1 1 .1.4.1.8.1 1.2v.6.2c-.1 0 0 .2-.1.3zM40.3 16.3H40c-.1 0-.3 0-.4.1-.1 0-.2.1-.3.2v.1s0 .1.1.1.1.1.2.1c.1.1.2.1.3.2l1 .4c.8.4 1.5.7 2.3 1.1.7.4 1.3.8 1.9 1.2.5.4 1 .8 1.5 1.3.3.4.7.8.9 1.3.3.6.5 1.2.6 1.9 0 .5 0 .9-.2 1.3-.1.1-.1.3-.2.4l-.3.6c-.2.3-.5.7-.8 1-.4.4-.8.9-1.3 1.3-.7.6-1.5 1.2-2.2 1.8-1.4 1-2.9 2-4.4 3-.4.3-.9.5-1.3.8 0 0-.1 0-.1.1-.1 0-.1-.1-.1-.2-.2-.3-.5-.6-.7-1-1.1-1.7-1.7-3.6-1.9-5.5v-1.2c0-.5.1-1 .2-1.4.1-.7.3-1.5.4-2.2.3-1.2.7-2.4 1.1-3.6.7-1.9 1.4-3.8 2.3-5.6 1.1-2.5 2.3-5 3.7-7.4.4-.8.9-1.6 1.3-2.4 0-.1.1-.2.1-.2v-.2s-.1-.1-.1 0h-.1l-.3.3c-.7.3-1.2.7-1.7 1.1-1 .9-1.9 1.8-2.8 2.7a117.88 117.88 0 0 0-5 5c-.7.8-1.5 1.6-2.2 2.4s-1.2 1.6-1.8 2.5c-.8 1.3-1.4 2.7-1.8 4.2-.3.9-.5 1.8-.7 2.7-.1.4-.1.8-.2 1.2s-.1.8-.1 1.1v2.3c0 .6.1 1.1.2 1.7.1.8.2 1.6.4 2.4.2 1 .6 2 1 3 .4.8.8 1.6 1.4 2.3h0v.1l-.2.1-1.8 1c-1.5.8-2.9 1.7-4.3 2.7-.5.3-.9.7-1.4 1-.3.3-.7.5-1 .9l-.5.5c-.1.1-.2.2-.2.4 0 .1-.1.2 0 .3 0 .2.1.4.3.4.1.1.2.1.4.1s.3.1.5.1c.4 0 .8 0 1.3-.1l1.6-.3c.9-.2 1.8-.4 2.7-.7 1.9-.5 3.8-1.2 5.6-1.8l.5-.2c.1 0 .2 0 .2.1.2.3.5.5.7.8.5.5 1 1 1.6 1.5 1 .8 1.9 1.6 2.9 2.4 1.5 1.2 3.1 2.4 4.7 3.5.9.6 1.9 1.2 2.9 1.8l1.8.9c.3.2.7.3 1 .4.2.1.4.1.6.1h.3c.3 0 .5-.3.5-.6v-.5c-.1-.3-.2-.7-.3-1-.2-.5-.4-.9-.7-1.4-.4-.7-.8-1.3-1.2-2-.8-1.3-1.8-2.6-2.7-3.8-1.4-1.9-2.9-3.8-4.4-5.6-.2-.2-.2-.2.1-.3 1.5-.8 3.1-1.6 4.5-2.5 1.6-1 3.2-2 4.7-3.1 1.2-.8 2.3-1.7 3.4-2.7.7-.6 1.4-1.3 2-2 .4-.5.8-1 1.1-1.5.2-.4.4-.8.6-1.3.3-.7.3-1.5.1-2.3-.1-.5-.3-1-.6-1.4l-.9-1.2c-.4-.4-.8-.8-1.3-1.1-.6-.4-1.2-.8-1.8-1.1a13.9 13.9 0 0 0-2.8-1.2c-1.1-.4-2.3-.7-3.4-1-.8-.2-1.6-.4-2.4-.5-.4-.1-.7-.1-1.1-.2s-.7-.1-1.1-.1c-.4-.1-.9-.1-1.3-.1-.1.2-.4.2-.8.2z" fill="#de2c57"/><path d="M40.3 16.3c.3 0 .7 0 1 .1.4 0 .9.1 1.3.1s.7.1 1.1.1.7.1 1.1.2c.8.1 1.6.3 2.4.5l3.4 1a13.9 13.9 0 0 1 2.8 1.2c.6.3 1.2.7 1.8 1.1.5.3.9.7 1.3 1.1s.7.8.9 1.2c.3.4.5.9.6 1.4.2.8.1 1.5-.1 2.3l-.6 1.3c-.3.5-.7 1-1.1 1.5-.6.7-1.3 1.4-2 2-1.1 1-2.2 1.8-3.4 2.7l-4.6 3-4.5 2.5c-.2.1-.2.1-.1.3l4.4 5.6 2.7 3.8 1.2 2c.3.5.5.9.7 1.4l.3 1v.5c0 .3-.2.6-.5.6h-.3c-.2 0-.4 0-.6-.1-.4-.1-.7-.2-1-.4l-1.8-.9-2.9-1.8-4.7-3.5-2.9-2.4-1.6-1.5c-.3-.3-.5-.5-.7-.8-.1-.1-.1-.1-.2-.1l-.5.2-5.6 1.8c-.9.3-1.8.5-2.7.7l-1.6.3c-.4.1-.8.1-1.3.1-.2 0-.3 0-.5-.1-.1 0-.3-.1-.4-.1-.2-.1-.3-.3-.3-.4v-.3c.1-.2.1-.3.2-.4.1-.2.3-.4.5-.5.3-.3.6-.6 1-.9.5-.3.9-.7 1.4-1 1.4-1 2.8-1.8 4.3-2.7l1.8-1 .2-.1v-.1h0a17.61 17.61 0 0 1-1.4-2.3c-.4-1-.8-1.9-1-3-.2-.8-.3-1.6-.4-2.4l-.2-1.7c-.1-.8-.1-1.5 0-2.3 0-.4.1-.8.1-1.1 0-.4.1-.8.2-1.2l.7-2.7c.5-1.5 1.1-2.9 1.8-4.2.5-.9 1.1-1.7 1.8-2.5L34 13l5-5 2.8-2.7c.5-.4 1-.9 1.4-1.3l.3-.3h.1.1v.2c0 .1-.1.2-.1.2l-1.3 2.4-3.7 7.4-2.3 5.7-1.1 3.6c-.2.7-.3 1.5-.4 2.2-.1.5-.1 1-.2 1.4V28c.2 2 .8 3.9 1.9 5.5.2.3.4.7.7 1 0 .1.1.1.1.2 0 0 .1 0 .1-.1.4-.3.9-.5 1.3-.8 1.5-.9 3-1.9 4.4-3l2.2-1.8 1.2-1.2c.3-.3.5-.6.8-1l.3-.6c.1-.1.1-.3.2-.4.2-.4.2-.9.2-1.3-.1-.7-.2-1.3-.6-1.9-.2-.5-.5-.9-.9-1.3-.4-.5-.9-.9-1.5-1.3l-1.9-1.2c-.7-.4-1.5-.8-2.3-1.1l-1-.4c-.1 0-.2-.1-.3-.2-.1 0-.1-.1-.2-.1l-.1-.1v-.1c0-.1.1-.2.3-.2.1 0 .2-.1.4-.1l.4-.2h0 0 0z" fill="#fff"/><path d="M55.3 63.9c-2 0-3.7-1.6-3.7-3.7 0-2 1.6-3.7 3.7-3.7s3.7 1.6 3.7 3.7-1.6 3.7-3.7 3.7zm135.4-12.2c-.1-.1-.3-.1-.4-.1-1.5-.5-2.7-1.6-3.3-3-.3-.6-.4-1.2-.5-1.9-.1-1-.1-2 0-2.9a6.96 6.96 0 0 1 2-4c1.1-1.1 2.5-1.7 4.1-1.8.9 0 1.7.1 2.5.4l.4.1c.1 0 .2 0 .2-.1v-.6-3.9-.5s0-.1.1-.1c0 0 .1 0 .1-.1l2.7-.6h.1l.1.1v18.6c0 .1 0 .1-.1.2-.1 0-.1.1-.2.1H196c-.2 0-.3-.1-.3-.3v-.2c0-.1-.1-.1-.2-.1-.5.3-1.1.6-1.6.7-1.1.1-2.2.1-3.2 0h0 0zm4.9-6.7v-2.9-.5c0-.1-.1-.2-.1-.2-.5-.4-1-.6-1.6-.7-.5-.1-1 0-1.4.1-1.1.2-2 1-2.4 2-.1.2-.2.4-.2.6-.2.9-.3 1.9-.1 2.9.1.3.1.7.3 1a3.19 3.19 0 0 0 1.8 1.8c.6.2 1.2.3 1.8.3s1.3-.2 1.8-.6c.1-.1.2-.2.2-.4v-.5l-.1-2.9h0zM90.9 51.7c-.2-.1-.4-.1-.6-.2-1.8-.5-3.2-1.9-3.8-3.7-.6-1.7-.6-3.6 0-5.4.7-2.1 2.4-3.7 4.6-4.3.8-.2 1.6-.3 2.4-.2l1.7.3c2 .7 3.5 2.4 3.8 4.4.2.9.1 1.9-.1 2.8 0 .1-.1.2-.3.2h-8.5-.7l-.1.1v.1c.1 1.4 1.1 2.6 2.4 2.9.3.1.5.1.8.1h1.4c.8-.1 1.6-.4 2.2-.9h.2v.1l1 2c.1.1 0 .2-.1.3-.5.4-1.1.7-1.8.8-.3.1-.6.1-.8.2-1 .7-2.4.7-3.7.4zm1.8-8.1h2.6.5c.1 0 .2-.1.2-.2 0-.4-.1-.8-.3-1.1-.3-.7-.9-1.2-1.6-1.4-.8-.3-1.7-.3-2.5 0-.3.1-.7.3-.9.5-.6.5-1 1.3-1.2 2.1 0 .1.1.1.1.2h.5c.1-.1 2.6-.1 2.6-.1zm48.1 8.1c-.2-.1-.4-.1-.6-.2-1.9-.5-3.4-2-3.9-3.9-.2-.6-.3-1.2-.3-1.8-.1-.9 0-1.8.2-2.6.5-2.4 2.4-4.3 4.7-4.9.8-.2 1.7-.2 2.5-.2l1.7.3c2.2.8 3.8 2.8 3.9 5.1.1.7 0 1.4-.2 2.1 0 .1-.1.2-.3.2h-9.1c-.1 0-.2.1-.2.2 0 .3.1.6.2.9.3.9.9 1.6 1.8 1.9l.9.3c.7.1 1.5.1 2.2 0s1.3-.4 1.8-.8c.1-.1.2-.1.2 0l1.1 2c0 .1 0 .2-.1.3s-.2.2-.4.2c-.7.4-1.4.7-2.1.8-1.3.2-2.7.2-4 .1h0 0zm1.8-8.2h3c.1 0 .2-.1.2-.2 0-.4-.1-.8-.3-1.1-.3-.8-1-1.3-1.8-1.5-.6-.2-1.3-.2-1.9 0-.7.1-1.3.6-1.8 1.1-.3.5-.5 1-.7 1.5 0 .1.1.2.2.2h.5 2.6zm93.2 8.3c-.7-.4-.7-.4-1.4-1.4-.1.1-.2.2-.3.2-.3.3-.7.5-1.1.7l-.9.3c-1 .2-2.1.2-3.1 0-.2-.1-.4-.1-.5-.2-1.3-.5-2.3-1.6-2.4-3-.1-.6-.1-1.3.1-1.9.2-.9.7-1.7 1.5-2.3.6-.5 1.2-.8 2-1 .5-.2 1.1-.3 1.7-.3.2 0 .4 0 .6-.1.5-.1 1.1 0 1.6 0h.4l.1-.1c0-.8-.5-1.6-1.2-1.8-.5-.2-1-.3-1.5-.3-.9 0-1.9.1-2.8.4l-.3.1c-.1 0-.1 0-.2-.1 0-.1-.1-.2-.1-.3l-.4-1.6v-.2c0-.1 0-.2.1-.2.2-.1.5-.2.7-.3.6-.2 1.3-.3 1.9-.4 1.1-.1 2.3 0 3.4.2l1 .3c.9.4 1.6 1.2 2 2.1.2.5.3 1 .4 1.6l.2 2.1v3.1c0 .5 0 1 .1 1.4.1.7.4 1.3.8 1.8.1.1.1.2 0 .3-.1.2-.3.4-.6.5-.1 0-.2.2-.2.2l-1.6.2h0zm-1.6-5.4v-.9c0-.1-.1-.1-.1-.2-.1 0-.2-.1-.4-.1-.9-.1-1.9-.1-2.8.2l-.6.3c-.6.3-.9.9-1 1.5v.8a1.44 1.44 0 0 0 .9 1.1.9.9 0 0 0 .5.1c.6.1 1.1.1 1.7-.1a2.24 2.24 0 0 0 1.7-1.9c.1-.2.1-.6.1-.8h0 0 0zM182 51.7a1.96 1.96 0 0 1-.9-.9c-.1-.1-.1-.2-.1-.2s0-.1-.1-.1h-.1c-.3.3-.6.6-1 .8s-1.1.4-1.1.4c-1 .2-2.1.2-3.1 0-.2-.1-.5-.2-.7-.3-1.1-.5-1.9-1.5-2.1-2.7-.1-.8-.1-1.5.1-2.3.2-.9.7-1.6 1.4-2.2.5-.4 1-.7 1.5-.9.6-.2 1.3-.4 2-.5l.6-.1c.5-.1 1.1-.1 1.6 0h.4s.1 0 .1-.1c.1-.6-.2-1.2-.7-1.6-.3-.2-.6-.4-1-.4-.4-.1-.8-.1-1.1-.1-.9 0-1.9.1-2.7.5-.2.1-.3.1-.4-.2-.2-.6-.4-1.2-.5-1.9v-.2c0-.1.1-.1.2-.1.5-.2.9-.4 1.4-.5a11.36 11.36 0 0 1 4.5 0c.5.1 1 .3 1.4.6.6.4 1.1.9 1.4 1.6.2.3.3.7.4 1.1.2.7.3 1.3.3 2v1.4 2.5c0 .5 0 1.1.1 1.6 0 .7.3 1.4.8 1.9.1.1.1.2 0 .3-.1.2-.3.4-.6.5-.6.2-1.3.3-2 .1h0 0zm-1.4-5.5v-.6c0-.1-.1-.2-.2-.2s-.2 0-.3-.1c-.9-.1-1.9-.1-2.8.2-.3.1-.5.2-.8.4-.4.3-.7.7-.8 1.2-.1.3-.1.6 0 .9 0 .7.5 1.2 1.1 1.4.1 0 .2.1.3.1.6.1 1.1.1 1.7-.1.9-.2 1.5-.9 1.7-1.8 0-.5.1-1 .1-1.4zm24.4 5.5c-.2-.1-.4-.1-.5-.2-1-.3-1.7-1.1-2.1-2-.2-.6-.4-1.2-.4-1.8v-.9-7.9-.5c0-.1.1-.2.2-.2h2.7c.2 0 .2.1.3.3v7.7c0 .4 0 .8.1 1.1 0 .2.1.4.1.6a1.83 1.83 0 0 0 1.5 1.3c1.1.2 2.2-.1 3-.8.2-.2.4-.3.5-.5.2-.2.3-.4.3-.7v-.6-7.3-.7c0-.1 0-.1.1-.2 0 0 .1-.1.2-.1h2.6c.2 0 .2.1.3.3v.6 12.2c0 .2-.1.3-.3.3H211c-.1 0-.1 0-.2-.1 0 0-.1-.1-.1-.2v-.6c0-.1-.1-.1-.2-.1h-.1c-.7.5-1.5.8-2.4 1-1.1.1-2.1.1-3 0h0 0zm-86.2 0c-1.3-.4-2.2-1.4-2.4-2.7-.1-.5-.2-.9-.1-1.4v-2.8-3.3-.5c0-.1-.1-.1-.1-.1h-.6c-.9 0-.8.1-.8-.8v-1.4c0-.2.1-.3.3-.3h1c.1 0 .2-.1.2-.2v-.6V36c0-.2.1-.3.3-.4l1.1-.4c.4-.2.8-.3 1.2-.4.1 0 .2-.1.3-.1s.1 0 .2.1v.6V38v.3l.1.1h.3 2.9c.2 0 .3.1.3.3v1.9c0 .1-.1.2-.2.2H120h-.4c-.1 0-.2.1-.2.2v.5 5c0 .4 0 .8.1 1.2 0 .2.1.5.2.7.1.3.4.6.8.7.2.1.5.1.7.2.6 0 1.3-.1 1.8-.3.1-.1.3-.1.4-.1 0 0 .1 0 .1.1v.1 2.3c0 .1-.1.2-.2.3-.2.1-.4.1-.6.2-1.3 0-2.6-.1-3.9-.2zm32.7-6.8v-5.8-.4c0-.4 0-.4.5-.4h1.4c.2 0 .3.1.4.2.1.3.3.5.4.7l.1.1h.1l.3-.2c.7-.6 1.6-1 2.6-1 .7 0 1.5 0 2.2.2s1.3.5 1.8.9l.2.2h.2c.2-.2.4-.3.6-.4.5-.3 1-.5 1.6-.7 1-.3 2.2-.3 3.2 0 1.3.4 2.3 1.4 2.7 2.7.2.5.3 1.1.3 1.7V51c0 .7 0 .7-.7.7h-1.9-.4c-.1 0-.1-.1-.1-.1v-.4-3-4.7c0-.4 0-.8-.1-1.1-.2-.8-.8-1.4-1.6-1.5-1-.2-2.1.2-2.7 1-.1.1-.2.3-.2.5V51v.6c0 .1-.1.2-.2.2h-2.7c-.1 0-.2-.1-.2-.2V51v-7.5-.9c-.1-.8-.6-1.4-1.3-1.6-.7-.3-1.5-.2-2.1.2a2.36 2.36 0 0 0-.9.8c-.1.1-.2.3-.2.5V51v.6c0 .1-.1.2-.2.2h-.1-2.4c-.2 0-.3-.1-.3-.3v-.6c-.3-2.2-.3-4.1-.3-6zm-41-21.1v1.9c0 .5.1 1 .2 1.4.1.5.3 1 .7 1.4.2.2.2.3 0 .4-.3.4-.7.6-1.1.7h-.6c-.5 0-1-.2-1.3-.5-.2-.3-.5-.5-.7-.9h-.1s-.1 0-.1.1a4.2 4.2 0 0 1-2.5 1.2c-.9.1-1.8.1-2.6-.1-.2-.1-.5-.1-.7-.2-1.1-.5-2-1.5-2.2-2.7-.1-.8-.1-1.5.1-2.3.2-.9.7-1.7 1.5-2.3.6-.5 1.3-.8 2-1 .6-.2 1.1-.3 1.7-.3.2 0 .4 0 .6-.1.5-.1 1 0 1.5 0h.4s.1 0 .1-.1c0 0 .1-.1 0-.1 0-.7-.4-1.4-1.1-1.7-.2-.1-.4-.2-.6-.2-.3-.1-.7-.1-1.1-.1-.9 0-1.9.1-2.8.4l-.2.1h-.1l-.1-.1c-.1-.2-.1-.3-.1-.5-.1-.5-.3-1-.4-1.5 0-.1 0-.2.1-.3.6-.3 1.2-.5 1.9-.6s1.4-.2 2.1-.1c.7 0 1.3.1 2 .3.4.1.9.3 1.3.5.7.4 1.3 1 1.6 1.7a8.3 8.3 0 0 1 .6 2.1c.1.8.1 1.5.1 2.3l-.1 1.2h0 0zm-3.1.3h0v-.8c0-.1-.1-.2-.2-.2s-.2 0-.3-.1c-.9-.1-1.9-.1-2.8.2l-.6.3c-.4.2-.6.6-.8 1-.2.5-.2.9 0 1.4.1.4.4.7.7.9.2.1.4.2.5.2.7.1 1.3.1 2-.1a2.1 2.1 0 0 0 1.3-1.3c.1-.2.2-.5.2-.8v-.7zm29 4.1c-.1.1-.2.1-.2.2-.4.4-.8.6-1.2.8-.6.2-1.1.4-1.8.4-.7.1-1.4 0-2.1-.2-.5-.1-.9-.3-1.3-.6-.7-.4-1.2-1.1-1.4-1.9-.3-1-.3-2.1 0-3 .3-.8.7-1.5 1.4-2 .6-.4 1.2-.8 1.9-1 .5-.2 1.1-.3 1.7-.3.2 0 .4 0 .6-.1.5-.1 1 0 1.4 0 .1 0 .3 0 .4.1h.1l.1-.1c0-.8-.5-1.6-1.2-1.8-.5-.2-1-.3-1.5-.3-.9 0-1.9.1-2.8.4l-.2.1c-.1 0-.1 0-.2-.1-.1-.3-.2-.5-.2-.8l-.3-1.3c0-.1 0-.2.1-.2.6-.3 1.3-.5 1.9-.6 1.1-.2 2.2-.2 3.4 0 .6.1 1.2.3 1.8.5.9.4 1.5 1.1 1.9 2 .2.5.3 1 .4 1.4.1.6.2 1.2.2 1.8v3.5c0 .5 0 1.1.1 1.6.1.7.3 1.4.8 1.9.1.1.1.2 0 .3-.2.4-.6.7-1.1.7h-.7c-.4 0-.8-.2-1.1-.4-.2-.2-.4-.4-.6-.7l-.3-.3h0 0zm-.3-4.1v-.7c0-.1-.1-.2-.2-.2s-.2-.1-.3-.1c-1-.2-2-.1-2.9.2l-.6.3c-.5.3-.9.9-.9 1.5v.7c.1.5.4 1 .9 1.2.2.1.4.1.5.2.6.1 1.2.1 1.7-.1.9-.2 1.5-.9 1.6-1.8.2-.4.2-.8.2-1.2zm-22.2-1.4v-5.8-.6c0-.1.1-.2.2-.2h1.1c1.1 0 .8-.2 1.3.8l.1.1c.1.1.2.2.3.1l.2-.2c.5-.4 1.1-.7 1.7-.9a6.16 6.16 0 0 1 3.3 0 4.34 4.34 0 0 1 3.2 3.2c.2.7.3 1.4.3 2.1v7.5.4c0 .1-.1.1-.1.1h-.2-2.4-.2c-.1 0-.1-.1-.1-.2v-.6-6.8c0-.5 0-1-.1-1.4 0-.2-.1-.4-.2-.5-.2-.6-.8-1.1-1.4-1.2-1.4-.4-2.5 0-3.6 1-.1.1-.2.2-.2.4v9.1c0 .2-.1.3-.3.3h-2.5-.1c-.1 0-.1-.1-.1-.2v-.7c-.2-1.9-.2-3.8-.2-5.8h0zM112 51.6h-1.5c-.1 0-.2 0-.3-.1s-.2-.3-.3-.4l-2.5-3.2c-.1-.1-.2-.3-.3-.4s-.2-.1-.3 0c-.1.2-.2.3-.3.5l-2.2 3c-.1.2-.2.3-.3.5-.1.1-.2.1-.2.1h-3.2s-.1 0-.1-.1v-.1c0-.1.1-.1.1-.2l.3-.4 4.1-5.5c.4-.5.4-.5 0-1l-3.8-5.3c-.1-.2-.2-.3-.3-.5 0 0 0-.1.1-.1h.1 3c.1 0 .2.1.3.2.1.2.2.3.3.5l2 2.8c.1.1.2.3.3.4l.1.1h.1c.1-.1.2-.3.3-.4l2.3-3c.1-.2.2-.3.3-.4.1 0 .1-.1.2-.1h.1 3.1c.1 0 .1.1.1.2 0 0 0 .1-.1.1-.1.2-.3.4-.4.6l-4 5.1c-.4.6-.4.5 0 1l4.6 5.6c.1.2.3.3.4.5.1.1 0 .2-.1.2l-2-.2h0zM93.4 29.7c-.9 0-1.8-.1-2.7-.3-2-.5-3.5-2.1-4-4.1-.2-.6-.3-1.3-.3-2l.1-2.1c.4-2.5 2.3-4.5 4.7-5.1 1.3-.4 2.6-.4 3.8-.2.9.2 1.7.5 2.4 1 .1 0 .1.1.1.2s0 .2-.1.2c-.3.6-.7 1.2-1.1 1.8-.1.2-.2.2-.4.1-1.1-.8-2.5-1-3.8-.7-.9.2-1.6.8-2.1 1.5-.2.3-.3.6-.4.9-.3 1.2-.4 2.4 0 3.6.1.3.2.5.3.7.3.6.8 1 1.4 1.3.2.1.4.2.7.2 1.5.3 2.9.2 4.1-.7.3.1.4.1.4 0 .1 0 .1 0 .2.1v.1l.9 2c.1.1 0 .2-.1.3-1 .7-2.2 1.1-3.4 1.1.1 0-.7.1-.7.1zm52.8-11.5v7c0 .5 0 .9.1 1.4.1.3.1.5.3.7a1.21 1.21 0 0 0 .7.7c.1.1.2.1.3.2v.1c-.3.6-.9 1.1-1.6 1.2-.4.1-.8.1-1.1 0-.5-.1-1-.3-1.2-.8-.2-.3-.3-.7-.4-1.1-.1-.5-.1-.9-.1-1.4v-9.1-5.2-.6c0-.1.1-.2.2-.2h.1l2.7-.6h.1l.1.1-.2 7.6h0 0 0zm-20.3 26.7v-5.8-.6l.1-.1h.1 2.6c.1 0 .1 0 .2.1 0 0 .1.1.1.2v.6s0 .1.1.1h.1c.1-.1.2-.1.2-.2.8-.7 1.8-1 2.9-1 .7 0 1.4.1 2.1.3.1 0 .2.1.3.2 0 0 .1.1.1.2v.1c-.4.7-.7 1.5-1.1 2.2 0 .1-.1.1-.1.1h-.2l-.2-.1-1-.3c-.7-.2-1.5.1-2.1.6s-1.1 1.3-1.1 2.2c0 .3-.1.7-.1 1v7c0 .1-.1.2-.2.2h-2.6-.1l-.1-.1v-.6-6.3h0 0zm91 .1v-5.8-.6c0-.2.1-.3.3-.3h2.4.2l.1.1c0 .3 0 .5.1.8 0 0 .1.1.2.1 0 0 .2-.1.2-.2.7-.6 1.5-.9 2.4-1s1.7 0 2.6.2c.1 0 .2.1.3.1s.1.1.1.1v.2l-1.1 2.3c-.1.1-.2.1-.3.1l-.3-.1-.9-.3c-.7-.1-1.4.1-1.9.5-.6.5-1.1 1.2-1.2 2.1-.1.4-.1.8-.1 1.1v6.4.6c0 .1-.1.2-.2.2h-.1-2.5c-.1 0-.2-.1-.2-.2v-.6l-.1-5.8z" fill="#de2c57"/><text transform="translate(26.766 78.124)" fill="#ca3e5a" stroke="#ca3e5a" stroke-width=".75" stroke-miterlimit="10" font-family="MyriadPro-Regular" font-size="20">sat</text></svg>