<?xml version="1.0" encoding="UTF-8" standalone="no"?>
<!-- Created with Inkscape (http://www.inkscape.org/) -->

<svg
   xmlns:dc="http://purl.org/dc/elements/1.1/"
   xmlns:cc="http://creativecommons.org/ns#"
   xmlns:rdf="http://www.w3.org/1999/02/22-rdf-syntax-ns#"
   xmlns:svg="http://www.w3.org/2000/svg"
   xmlns="http://www.w3.org/2000/svg"
   xmlns:sodipodi="http://sodipodi.sourceforge.net/DTD/sodipodi-0.dtd"
   xmlns:inkscape="http://www.inkscape.org/namespaces/inkscape"
   width="105.83334mm"
   height="71.226212mm"
   viewBox="0 0 105.83334 71.226212"
   version="1.1"
   id="svg29650"
   inkscape:version="0.92.1 r15371"
   sodipodi:docname="Crime_+_Investigation_Logo_10.2019.svg">
  <defs
     id="defs29644" />
  <sodipodi:namedview
     id="base"
     pagecolor="#ffffff"
     bordercolor="#666666"
     borderopacity="1.0"
     inkscape:pageopacity="0.0"
     inkscape:pageshadow="2"
     inkscape:zoom="0.35"
     inkscape:cx="200.00002"
     inkscape:cy="134.60079"
     inkscape:document-units="mm"
     inkscape:current-layer="svg29650"
     showgrid="false"
     fit-margin-top="0"
     fit-margin-left="0"
     fit-margin-right="0"
     fit-margin-bottom="0"
     inkscape:window-width="1920"
     inkscape:window-height="1001"
     inkscape:window-x="-9"
     inkscape:window-y="-9"
     inkscape:window-maximized="1" />
  <metadata
     id="metadata29647">
    <rdf:RDF>
      <cc:Work
         rdf:about="">
        <dc:format>image/svg+xml</dc:format>
        <dc:type
           rdf:resource="http://purl.org/dc/dcmitype/StillImage" />
        <dc:title></dc:title>
      </cc:Work>
    </rdf:RDF>
  </metadata>
  <path
     inkscape:connector-curvature="0"
     id="path60253"
     d="m 105.83334,12.08719 h -8.252373 v 8.25235 h -1.372259 v -8.25235 h -8.252373 v -1.37228 h 8.252373 V 2.46256 h 1.372259 v 8.25235 h 8.252373 z m 0,0"
     style="fill:#e31e2e;fill-opacity:1;fill-rule:nonzero;stroke:none;stroke-width:4.81231546" />
  <path
     inkscape:connector-curvature="0"
     id="path60255"
     d="m 48.6119,22.44493 h 5.03789 V 8.42155 h 0.0564 l 4.191981,11.05327 h 3.759624 l 4.173177,-11.0909 h 0.0564 v 14.06101 h 5.037894 V 0.35717 H 64.23313 L 59.890767,11.7676 h -0.0564 L 55.39801,0.35717 H 48.6119 Z m -8.23357,0 h 5.47025 V 0.35717 h -5.47025 z m -20.09517,0 h 5.47025 v -7.8012 h 2.48135 l 4.30476,7.8012 h 5.9778 l -5.0003,-8.60952 c 2.81972,-1.1655 4.09799,-3.81602 4.09799,-6.50418 0,-4.07916 -2.83851,-6.97406 -7.80121,-6.97406 H 20.28316 Z M 25.75341,10.54571 V 4.69952 h 3.36486 c 1.955,0 3.17687,1.01511 3.17687,2.91371 0,1.7858 -1.18427,2.93248 -3.17687,2.93248 z M 0,14.86929 c 0,5.50783 4.49275,7.95158 9.30506,7.95158 4.21078,0 8.70353,-2.16174 8.70353,-7.25606 V 14.49335 H 12.8767 v 0.52632 c 0,2.29336 -1.86101,3.28965 -3.55284,3.28965 -2.23697,0 -3.85361,-1.31583 -3.85361,-3.5716 V 8.04557 c 0,-2.50015 1.86101,-3.53402 3.79722,-3.53402 1.67303,0 3.60923,0.95871 3.60923,3.28965 v 0.48874 h 5.13189 V 7.27487 C 18.00859,2.16179 13.38425,0 9.17348,0 4.34236,0 0,2.68811 0,8.10197 v 6.76732 m 17.93339,55.98074 h 5.16948 l 1.33467,-4.11679 h 7.80121 l 1.31587,4.11679 h 5.60183 L 31.50563,48.72469 h -5.84621 z m 7.82002,-8.45913 2.53774,-7.98922 h 0.094 l 2.51895,7.98922 z m 74.60968,-13.62862 v 11.9368 L 92.091921,48.7811 h -5.301065 v 22.06893 h 5.489046 V 58.44331 l 8.477948,12.40672 h 5.07549 V 48.76228 Z M 65.699379,63.14282 c 0,5.69581 4.436353,8.0832 9.34266,8.0832 4.549142,0 9.229868,-2.59413 9.229868,-8.36515 v -6.1282 c 0,-5.6958 -4.492742,-8.32756 -9.361453,-8.32756 -4.680726,0 -9.211075,2.74451 -9.211075,8.34638 v 6.39133 m 13.102283,-0.0938 c 0,2.50015 -1.842214,3.62806 -3.759623,3.62806 -2.236973,0 -3.853614,-1.31588 -3.853614,-3.66564 v -6.46655 c 0,-2.57536 1.804617,-3.62805 3.759621,-3.62805 2.048996,0 3.853616,1.2783 3.853616,3.59042 v 6.54176 m -21.110276,7.8012 h 5.489049 V 48.76246 H 57.691386 Z M 0,63.25581 c 0,5.52666 4.47395,7.9704 9.30506,7.9704 4.21078,0 8.79752,-2.16179 8.79752,-7.25606 v -5.0755 H 8.47794 v 4.09797 h 4.39876 v 0.54514 c 0,2.33099 -1.54144,3.25207 -3.55284,3.25207 -2.23697,0 -3.85361,-1.39105 -3.85361,-3.64682 v -6.82372 c 0,-2.50014 1.955,-3.51525 3.85361,-3.51525 1.69183,0 3.64683,0.82714 3.64683,3.1205 v 0.43214 h 5.13189 V 55.5484 c 0,-5.1319 -4.71833,-7.1433 -8.9291,-7.1433 C 4.34236,48.4051 0,51.09321 0,56.50707 v 6.74855 m 42.85968,7.57564 h 5.47025 V 53.17983 h 6.63573 V 48.76227 H 36.20515 v 4.41756 h 6.65453 z M 20.28316,24.56912 V 36.5247 L 12.50074,24.58789 H 7.21847 V 46.6757 h 5.47025 V 34.25011 l 7.9892,12.42559 h 5.07549 V 24.56912 Z m 80.07993,22.08776 h 5.47025 V 24.56912 h -5.47025 z m -13.572234,0 h 5.489046 V 29.00546 h 6.635734 V 24.56912 H 80.155128 v 4.43634 h 6.635728 z M 62.372114,43.02883 c 2.067795,2.9513 5.413854,4.00399 9.229873,4.00399 4.49275,0 8.778716,-2.42493 8.778716,-7.21847 0,-3.44004 -2.105387,-5.33864 -5.225878,-6.12815 l -3.421253,-0.93994 c -1.65423,-0.43215 -2.970101,-0.86463 -2.970101,-2.14293 0,-1.50384 1.372261,-2.0678 2.970101,-2.0678 1.710627,0 3.534048,0.65794 4.605536,2.04904 l 3.458853,-3.04533 c -1.917411,-2.36853 -4.229573,-3.34605 -8.064389,-3.34605 -4.831114,0 -8.327559,2.98888 -8.327559,7.10567 0,3.55284 2.199375,5.3011 5.169479,6.09061 l 3.759621,0.9963 c 1.353463,0.37593 2.44375,0.86472 2.44375,2.23695 0,1.54148 -1.767017,2.06781 -3.421253,2.06781 -2.293369,0 -4.398756,-1.18427 -5.526643,-2.7821 l -3.458853,3.12045 M 73.688576,22.44497 h 15.28286 v -4.51155 h -9.812613 v -4.39874 h 8.797512 V 9.06072 H 79.158823 V 4.84994 h 9.737421 V 0.35721 H 73.688576 Z M 46.6381,46.65689 H 61.92096 V 42.14535 H 52.10835 V 37.7466 h 8.797517 V 33.27264 H 52.10835 v -4.21078 h 9.73742 V 24.56913 H 46.6381 Z m -13.32786,0 h 5.60184 l 6.9177,-22.08776 h -5.20707 l -4.22958,15.58363 h -0.0752 L 32.20115,24.56913 H 26.58052 Z M 0,24.56913 H 5.47025 V 46.65689 H 0 Z m 0,0"
     style="fill:#112833;fill-opacity:1;fill-rule:nonzero;stroke:none;stroke-width:4.81231546" />
</svg>
