<?xml version="1.0" encoding="UTF-8"?>
<!-- Generator: Adobe Illustrator 16.0.0, SVG Export Plug-In . SVG Version: 6.00 Build 0)  -->
<!DOCTYPE svg PUBLIC "-//W3C//DTD SVG 1.1//EN" "http://www.w3.org/Graphics/SVG/1.1/DTD/svg11.dtd">
<svg version="1.1" id="Layer_1" xmlns="http://www.w3.org/2000/svg" xmlns:xlink="http://www.w3.org/1999/xlink" x="0px" y="0px" width="1000px" height="354.847px" viewBox="-193.974 218.57 1000 354.847" enable-background="new -193.974 218.57 1000 354.847" xml:space="preserve">
<g>
	<rect x="393.85" y="409.191" fill="#F1F84F" width="77.944" height="160.457"/>
	<g>
		<path fill="#F1F84F" d="M-171.477,221.054c10.968-1.829,22.065-2.481,33.163-2.481c19.584-0.13,38.907,3.786,57.447,9.792    c26.634,8.878,51.702,22.326,73.505,39.951c10.314,8.487,19.976,18.018,27.679,28.985c5.614,8.094,10.314,16.973,11.75,26.765    c1.175,8.748-0.392,17.756-4.308,25.72c-3.265,6.528-7.834,12.273-13.187,17.103c-8.095,7.051-17.495,12.143-27.418,15.798    c-17.103,6.006-35.512,7.833-53.399,6.006c-6.789-0.653-13.578-1.828-20.236-3.525c-0.653,3.525-1.828,7.441-5.354,9.14    c-4.308,1.958-10.444,1.175-13.186-3.134c-2.611-4.047-2.742-8.878-3.265-13.448c-16.842-7.311-32.509-17.755-44.651-31.595    c-3.525-4.439-7.573-9.27-8.095-15.146c0.392-5.875,5.745-9.792,10.315-12.925c12.925-7.833,28.07-11.62,42.823-13.97    c0.392-9.139,1.044-18.279,3.003-27.157c0.783-3.264,1.567-6.658,3.917-9.27c1.567-1.698,4.308-0.784,5.614,0.783    c2.35,2.743,3.264,6.268,4.178,9.662c1.828,7.965,2.35,16.06,2.742,24.285c14.884-0.131,29.898,0.653,44.259,4.831    c7.442,2.351,15.146,5.745,20.106,12.143c3.264,4.178,4.701,10.314,2.35,15.274c-2.089,4.179-5.614,7.573-9.792,9.662    c-2.873,0.262-5.614,0-8.487-0.392c-1.435-0.13-3.524-0.783-3.264-2.611c1.044-3.525,5.092-4.96,6.398-8.486    c0.522-1.437-0.653-2.481-1.698-3.133c-2.741-1.698-5.745-2.742-8.878-3.787c-13.187-3.917-26.896-5.353-40.604-4.831    c0.391,16.581,0.783,33.031,1.305,49.613c15.406,3.002,31.334,3.264,46.74,0.783c11.882-1.958,23.763-5.353,33.815-12.011    c6.528-4.309,12.142-10.576,14.493-18.148c2.742-8.225,2.089-17.364-1.044-25.458c-4.047-10.706-11.359-19.976-19.323-27.94    c-9.662-9.53-20.759-17.495-32.249-24.414c-17.103-10.184-35.642-18.017-54.835-23.501c-22.717-6.528-46.48-9.792-70.111-7.965    c-3.655,0.262-7.311,0.654-10.967,1.698c-0.914,0.391-2.219,0.783-2.611,1.827c0,2.742,4.047,2.481,4.57,4.961    c0.392,1.567-1.306,2.219-2.481,2.481c-3.003,0.391-6.006,0.522-8.878-0.131c-1.958-0.391-4.047-1.827-4.309-4.046    c-0.391-3.656,2.089-6.92,4.57-9.401c1.958-1.828,3.656-4.178,6.267-5.353C-179.44,222.621-175.394,221.837-171.477,221.054z     M-137.661,324.98c-4.7,0.914-9.4,1.958-13.709,4.178c-1.958,1.044-4.048,2.742-4.048,5.092c0.262,1.827,1.567,3.264,2.612,4.83    c3.133,3.525,6.919,6.398,10.705,9.14c10.315,7.181,21.804,12.665,33.554,16.842c0-14.362,0.13-28.723,0.261-43.085    C-118.078,322.5-127.869,323.152-137.661,324.98z"/>
	</g>
	<g>
		<path fill="#F1F84F" d="M27.759,252.911c8.878-11.359,22.978-18.54,37.339-19.062c5.223-0.392,10.576,0.914,15.146,3.786    c2.089,1.176,3.786,2.873,5.614,4.309c3.525,0.913,7.441,1.436,10.184,4.047c3.656,3.264,3.917,8.878,2.742,13.317    c-2.089,7.049-7.181,12.794-12.534,17.495c-7.312,6.267-15.798,11.229-25.067,13.708c-7.181,1.828-14.753,1.175-21.804-0.783    c-1.175,1.697-2.48,3.394-4.438,4.048c-1.958,0.652-4.57,0.522-5.875-1.306c-2.089-3.003-1.828-6.919-2.35-10.445    c-3.656-4.7-5.875-10.706-4.961-16.712C22.667,260.744,25.017,256.566,27.759,252.911z M37.159,257.35    c-2.611,2.48-4.7,6.267-3.264,9.922c6.397-7.573,14.362-13.709,22.717-18.801C49.562,249.647,42.381,252.258,37.159,257.35z     M66.535,257.741c-7.833,5.614-15.014,11.882-21.412,19.063c2.22,0.653,4.439,1.044,6.79,1.175    c7.441,0.783,14.884-1.697,21.673-4.831c4.831-2.35,9.662-5.222,12.795-9.661c1.958-2.742,2.742-6.659,0.783-9.662    c-1.828-2.742-5.614-3.133-8.486-2.351C74.107,252.78,70.19,255.261,66.535,257.741z"/>
	</g>
	<path fill="#F1F84F" d="M189.914,294.037c0.653-1.566,2.611-1.566,4.048-1.044c3.524,1.437,6.005,4.57,8.225,7.442   c6.397,8.878,10.444,19.192,13.056,29.637c1.828,8.356,3.264,17.234,0.522,25.59c-1.697,5.614-4.439,11.228-9.27,14.753   c-2.742,1.828-6.528,3.133-9.662,1.306c-2.872-1.567-5.092-4.179-7.311-6.659c-6.659-8.095-11.881-17.234-17.757-25.982   c-1.175-1.566-2.219-3.395-4.047-4.308c-1.305,1.958-1.305,4.438-1.566,6.659c-0.522,8.486-0.261,16.973-1.697,25.328   c-0.652,2.742-1.175,5.745-3.264,8.095c-1.698,1.958-4.701,1.566-6.79,0.652c-3.264-1.566-4.569-5.353-5.092-8.748   c-1.305-8.878,0.131-17.756,1.306-26.504c1.567-9.008,3.003-18.147,7.051-26.503c1.305-2.351,2.872-5.354,5.875-5.354   c3.265,0.522,5.484,3.133,7.703,5.354c7.703,8.486,13.709,18.147,20.106,27.547c2.089,3.003,4.047,6.136,6.659,8.617   c0.653-0.522,1.306-1.044,1.567-1.958c1.044-3.916,0.392-8.095-0.522-12.011c-2.48-11.098-6.397-21.673-9.008-32.64   C189.522,300.304,188.739,297.04,189.914,294.037z"/>
	<path fill="#F1F84F" d="M394.894,298.215c5.483-3.002,12.141-3.525,18.017-1.436c6.79,2.35,12.143,8.225,13.971,15.145   c1.696,6.136,0.521,12.925-3.134,18.278c10.314-3.264,22.064-1.306,30.813,5.092c-1.306-5.092-0.914-10.706,1.436-15.406   c3.133-6.528,9.662-11.359,16.843-12.404c9.531-1.567,19.454,3.917,23.369,12.665c4.18,8.748,1.698,20.106-5.743,26.243   c-6.66,5.875-16.844,6.789-24.676,2.742c4.438,9.922,3.785,21.934-1.698,31.464c-5.876,10.314-17.364,17.104-29.244,17.104   c-11.882,0.261-23.501-6.006-29.768-16.06c-6.921-10.575-7.182-25.067-0.654-35.904c1.175-2.219,2.873-4.047,4.438-6.006   c-5.353,0.784-10.835-0.391-15.405-3.264c-5.353-3.395-8.877-9.14-9.922-15.276C382.098,311.924,386.799,302.393,394.894,298.215z"/>
	<path fill="#F1F84F" d="M105.441,302.784c7.181-0.652,14.231-0.522,21.281-0.261c4.831,0.261,9.792,0.653,14.361,2.481   c1.958,0.783,4.047,2.35,4.047,4.7c0.131,1.697-1.175,3.003-2.48,3.916c-2.48,1.567-5.353,2.22-8.095,2.742   c-14.493,2.742-29.507,1.958-43.999,4.438c-2.48,0.654-5.614,0.915-6.789,3.525c-0.131,1.958,2.48,2.089,3.916,2.611   c12.534,2.35,25.459,1.698,37.863,4.439c5.353,1.306,10.836,3.395,14.623,7.703c3.916,4.308,5.092,10.445,4.569,16.059   c-1.044,7.703-6.528,14.101-13.317,17.626c-8.748,4.438-18.801,4.96-28.462,4.308c-9.53-0.783-19.454-3.656-26.634-10.445   c-3.264-3.133-6.137-7.442-5.353-12.142c0.392-4.7,3.525-8.878,7.833-10.706c7.181-3.525,15.276-2.481,22.979-1.567   c5.484,0.784,11.098,1.697,16.32,3.917c1.697,0.783,3.656,1.697,4.178,3.655c0.392,2.35-1.829,3.917-3.656,4.831   c-4.7,2.35-10.184,2.873-15.276,1.436c-5.483-1.436-10.576-4.178-16.059-5.483c-3.787-0.914-8.878,0.914-9.401,5.223   c-0.261,3.003,2.611,4.7,5.092,5.223c7.573,1.697,15.406,0.522,22.979-0.522c6.92-1.176,13.839-2.48,20.236-5.484   c2.22-1.175,4.831-2.611,5.354-5.353c0.261-1.436-0.784-2.48-1.828-3.133c-2.742-1.828-5.875-2.742-9.008-3.656   c-8.225-2.219-16.712-3.394-25.068-3.524c-6.789-0.262-13.839,0-20.498-1.958c-3.395-0.914-6.92-3.003-8.226-6.398   c-1.566-4.308-0.784-9.4,1.567-13.186c2.481-4.047,6.789-6.79,11.098-8.878C87.947,304.873,96.694,303.568,105.441,302.784z"/>
	<g>
		<path fill="#F1F84F" d="M311.857,302.654c0.784-0.914,2.35-1.044,3.003,0c2.22,3.003,1.827,7.181,0.131,10.314    c-4.309,8.095-9.14,15.798-12.665,24.153c-1.566,3.395-2.48,7.573-0.652,11.098c9.921-12.012,19.975-24.154,32.247-33.685    c3.918-2.741,8.096-5.875,13.057-6.136c4.438,0.522,8.226,3.525,10.705,7.181c4.179,5.876,5.225,13.448,5.093,20.498    c-0.521,8.356-4.439,16.059-9.531,22.587c-5.613,7.181-12.794,13.057-21.019,17.104c-6.529,3.264-13.971,5.091-21.282,4.438    c-2.873,11.49-6.267,22.718-9.662,34.077c-2.089,6.657-4.57,13.187-5.614,20.105c-0.784,3.786-0.915,7.834-2.742,11.228    c-2.351,1.175-4.961-0.261-7.05-1.565c-4.7-3.395-8.226-8.618-9.009-14.492c-0.522-6.92,0.784-13.71,1.958-20.498    c3.003-14.884,7.442-29.376,12.143-43.738c-2.873-6.136-4.57-13.056-3.656-19.845c1.305-10.706,6.397-20.629,12.534-29.507    C303.631,311.271,307.287,306.571,311.857,302.654z M343.975,325.633c-4.047,3.786-7.051,8.355-10.184,12.795    c-4.962,7.311-9.53,14.752-13.839,22.457c8.877-0.131,17.233-4.309,23.632-10.315c5.482-5.091,9.53-12.272,8.877-19.976    c-0.131-2.48-0.652-5.613-3.264-6.789C347.238,323.021,345.28,324.327,343.975,325.633z"/>
	</g>
	<path fill="#F1F84F" d="M262.897,303.307c4.7-0.653,9.531-1.044,13.839,1.175c4.047,2.089,8.226,4.831,9.922,9.4   c-0.261,3.264-3.656,5.222-6.659,5.614c-8.617,0.653-17.233,0.783-25.851,1.959c-1.044,0.261-2.611,0.261-3.133,1.566   c-1.175,2.611-1.828,5.614-1.044,8.355c6.267,1.959,12.925,0.914,19.322,1.697c4.309,1.437,4.832,8.617,0.784,10.706   c-1.175,0.652-2.611,0.784-3.917,0.784c-6.267,0.13-12.533,0-18.8,0.391c-1.437,0.131-3.265,0-4.048,1.567   c-2.089,3.917-3.133,8.355-3.133,12.664c0,1.566,1.958,1.044,3.003,1.044c7.703-0.783,15.275-2.48,22.848-3.525   c3.395-0.653,6.789,1.175,9.009,3.656c1.044,1.306,1.958,2.873,1.566,4.569c-1.566,2.481-4.047,4.047-6.398,5.614   c-9.53,6.398-20.628,10.706-32.117,11.228c-4.309,0.262-8.617-1.566-11.49-4.7c-3.786-4.048-5.875-9.662-6.136-15.145   c0.522-6.268,3.265-12.143,4.961-18.148c0.914-2.35-2.35-4.308-1.175-6.659c1.437-3.916,6.005-4.57,8.878-6.789   c1.175-3.133,2.35-6.528,2.35-9.922c-3.394-2.481-8.094-3.265-10.836-6.79c-1.044-1.305-1.436-3.656,0.131-4.831   c2.48-1.828,5.744-2.35,8.748-2.873C243.574,304.612,253.235,304.221,262.897,303.307z"/>
	<path fill="#F1F84F" d="M47.865,304.351c2.481-1.437,5.483,0.392,6.528,2.742c2.35,4.7,2.872,10.053,3.524,15.145   c1.306,13.057,1.698,26.112,1.828,39.299c-0.13,4.7,0.13,9.531-1.828,13.839c-1.567,3.133-5.614,2.611-8.486,2.481   c-3.525-0.131-5.745-3.395-6.659-6.528c-1.958-6.92-1.697-14.231-1.697-21.282c0.261-12.142,0.261-24.284,2.611-36.295   C44.47,310.357,45.123,306.571,47.865,304.351z"/>
	<path fill="#F1F84F" d="M-12.846,382.949c9.923-3.656,19.454-8.748,27.418-15.798c0,42.694,0,85.516,0,128.21   c0,13.187-2.873,26.504-9.009,38.123c-8.748,16.581-24.154,28.983-41.909,34.859c-15.276,5.223-31.857,5.745-47.786,3.787   c-22.717-3.004-45.435-12.143-61.885-28.594c12.011-21.803,24.023-43.477,36.035-65.149c0.261-1.175,1.044,0,1.175,0.522   c1.958,4.309,4.831,8.486,9.009,10.966c5.745,3.396,12.795,3.787,19.192,2.352c4.439-0.914,8.748-3.134,11.359-6.79   c2.09-2.872,2.873-6.396,2.873-9.923c0-28.854,0-57.838,0-86.691C-48.358,390.782-29.949,388.954-12.846,382.949z"/>
	<path fill="#F1F84F" d="M301.542,414.283c7.704-4.831,16.582-7.834,25.721-8.486c11.358-0.783,23.37,0.521,33.422,6.137   c10.054,5.353,17.627,14.622,21.806,25.066c5.092,12.273,6.267,25.851,6.004,39.038c0,31.203,0,62.407,0,93.48   c-25.98,0-51.962,0-77.944,0c0-18.278,0-36.558,0-54.835c-0.131-7.311,0.393-14.491-0.651-21.805   c-0.653-4.308-2.743-9.007-7.051-10.835c-4.047-1.567-8.748-1.567-12.534,0.783c-3.917,2.48-5.223,7.312-5.745,11.62   c-0.783,6.657-0.261,13.447-0.391,20.106c0,18.277,0,36.556,0,54.834c-25.981,0-51.963,0-77.944,0c0-53.529,0-106.928,0-160.457   c24.153,0,48.438,0,72.591,0c-1.175,6.788-2.48,13.708-1.958,20.498c0.784,5.743,4.309,11.096,9.009,14.491   c1.958,1.306,4.7,2.61,7.05,1.566c1.827-3.395,1.827-7.441,2.742-11.229C296.973,427.47,299.454,420.94,301.542,414.283z"/>
	<g>
		<path fill="#F1F84F" d="M565.927,405.797c22.719-1.044,46.218,3.264,65.804,15.274c14.622,8.879,26.502,22.587,32.378,38.776    c4.7,12.533,6.267,26.113,5.092,39.431c-1.175,13.316-5.745,26.372-13.708,37.078c-10.445,14.492-25.983,24.546-42.694,30.42    c-21.934,7.573-46.088,8.618-68.675,3.396c-18.67-4.309-36.818-13.317-49.873-27.809c-7.443-8.226-12.926-18.148-15.929-28.724    c-3.395-11.751-3.787-24.154-2.089-36.166c1.697-12.664,6.396-24.937,13.971-35.382c9.791-13.708,24.283-23.631,39.951-29.376    C541.513,408.538,553.785,406.318,565.927,405.797z M568.538,467.028c-4.961,0.784-9.662,3.657-12.796,7.704    c-6.004,7.963-6.918,19.715-1.436,28.07c3.264,5.092,8.879,8.485,14.885,9.27c7.963,1.175,16.451-2.35,20.89-9.009    c6.789-9.792,4.568-24.676-4.831-32.118C580.681,467.291,574.414,465.984,568.538,467.028z"/>
	</g>
	<path fill="#F1F84F" d="M769.861,411.541c11.098-5.613,23.893-6.137,36.165-6.006c0,24.938,0,49.744,0,74.55   c-4.699-2.35-9.791-4.047-15.014-4.57c-8.355-0.912-17.234-0.13-24.676,4.31c-7.964,4.569-13.057,13.188-14.231,22.325   c-0.783,6.136-0.261,12.404-0.393,18.671c0,16.32,0,32.509,0,48.828c-25.98,0-51.962,0-77.942,0c0-53.529,0-106.928,0-160.457   c25.327,0,50.656,0,75.985,0c0,7.181,0,14.231,0,21.281C754.979,422.899,761.506,415.849,769.861,411.541z"/>
	<path fill="#F1F84F" d="M19.924,409.191c25.72,0,51.572,0,77.292,0c0,25.72,0,51.44,0,77.291c0.13,4.308,0.261,8.879,2.481,12.665   c1.697,3.002,5.092,4.699,8.486,4.96c4.047,0.393,8.617,0,11.62-3.003c2.611-2.479,3.395-6.267,3.786-9.791   c0.392-4.831,0.131-9.661,0.262-14.622c0-22.587,0-45.044,0-67.5c25.72,0,51.571,0,77.292,0c0,26.504,0,53.138,0,79.642   c0,8.224,0.391,16.581-1.176,24.676c-1.827,10.836-6.397,21.15-13.317,29.636c-10.836,13.449-26.895,21.805-43.476,26.113   c-21.542,5.482-44.391,5.353-65.933-0.131c-9.14-2.481-18.147-6.136-26.112-11.228c-9.4-6.006-17.625-14.231-22.979-24.024   c-5.745-10.314-8.226-22.324-8.226-34.075C19.924,469.641,19.924,439.35,19.924,409.191z"/>
</g>
</svg>