<?xml version="1.0" encoding="UTF-8" standalone="no"?>
<svg
   id="Layer_2"
   data-name="Layer 2"
   viewBox="0 0 487.48 146.66"
   version="1.1"
   xmlns="http://www.w3.org/2000/svg"
   xmlns:svg="http://www.w3.org/2000/svg">
  <defs
     id="defs959">
    <style
       id="style957">
      .cls-0 {
        fill: #e21f25;
        stroke-width: 0px;
      }
      .cls-1 {
        fill: #008de7;
        stroke-width: 0px;
      }
    </style>
  </defs>
  <g
     id="Layer_1-2"
     data-name="Layer 1">
    <g
       id="g973">
      <circle
         class="cls-1"
         cx="474.48"
         cy="91.74"
         r="13"
         id="circle961" />
      <path
         id="path30"
         class="cls-0"
         d="M465.82,34.8c4.49-1.8,9.44-1.98,14.22-1.88v32.57c-2.72-1.27-5.68-2.09-8.7-2.09-3.91-.16-8.04.98-10.92,3.75-2.35,2.22-3.7,5.37-4.02,8.54-.21,2.01-.11,4.05-.13,6.05l-.03,22.98h-34.05c-.05-23.43-.03-46.85,0-70.25h33.26v8.14c0,.34-.05.74.19,1.03,2.41-3.83,5.87-7.17,10.18-8.86h0Z" />
      <path
         class="cls-0"
         d="M381.53,15.45v56.59c0,7.21-10.69,11.12-19.72,2.81-.9,10.37-6.33,19.82-15.6,27.11,16.38,12.01,29.67,13.43,39.99,12.38,6.05-.63,12.03-2.67,17.03-6.19,4.1-2.86,7.51-6.66,9.81-11.08,2.62-5,3.86-10.66,3.89-16.29V15.45h-35.4Z"
         id="path964" />
    </g>
  </g>
  <g
     id="g903"
     transform="matrix(0.4160584,0,0,0.41109738,0.2778887,-85.441166)"
     style="fill:#008de7;fill-opacity:1">
    <path
       d="m 162.2,220.8 c -31.4,-8.9 -81.5,-20.7 -136.4,-6 -10.2,2.7 -17.1,7.2 -22,15.7 -2.4,4.3 -4.6,8.9 -3.4,13.6 1.1,4 6.8,5.4 11.3,6.1 4.4,0.7 14.4,1.2 17.1,-2 1.4,-1.7 1.4,-6.4 -5.9,-7.9 -2.7,-0.6 -10.1,-0.8 -10.6,-2.1 0,0 0.3,-0.9 4.3,-2.1 1.8,-0.6 14.9,-5.9 50.6,-4.8 42.5,1.4 79.6,11.3 118.9,26.8 38.4,15.1 81.6,42.4 106.9,75 9.6,12.3 21.5,32.5 23,49.6 3.8,41.4 -36.6,76.3 -118.8,73.5 -14,-0.5 -31.1,-3.8 -31.1,-3.8 l -1.7,-79.8 c 0,0 34.7,-0.3 73.2,12.4 3.3,1.1 6.6,3.2 6.9,6.4 0.2,2.4 -1.7,4.5 -3.9,6.4 -4,3.5 -9.5,5 -10.7,6.5 -0.9,1.1 -0.9,2.7 0.3,3.6 2.9,2.2 10,3.7 14.8,3.3 9.7,-0.9 16.1,-6.4 21,-13.8 5.2,-7.8 8.1,-27.7 -19.5,-40.3 -35.7,-16.4 -82.3,-13.3 -82.3,-13.3 0,0 -0.2,-10.8 -0.7,-18 -0.8,-11.8 -4.1,-35.1 -14.9,-41.8 -2,-1.2 -4.4,-1.4 -5.8,0.5 -2.1,2.7 -4.2,13.1 -4.6,15.8 -4.1,24.2 -3.8,45.8 -4.1,46.2 -0.1,0.1 -0.2,0.3 -0.4,0.4 -0.4,0.3 -26.2,3.3 -51.1,14.1 -9.9,4.3 -24.1,12 -28.4,22 -5.6,12.9 4.2,27 20.7,42.6 14,13.2 34.6,27.1 49.8,34.3 3.9,1.8 8.5,4.1 8.5,4.1 0,0 1,9.2 1.8,14.6 2.9,19.2 17.5,16.4 21.6,15.6 6.6,-1.3 7.8,-5.7 8.7,-10.8 0.5,-2.8 0.3,-6.8 0.3,-6.8 0,0 9.9,2.3 16.6,3.5 19.4,3.6 40.5,4.2 58.7,1.7 73,-10 91.5,-44.3 97.3,-53.5 10.1,-16 31.6,-60.4 -33.1,-126.4 C 290.5,286.5 247.8,245 162.2,220.8 Z M 65.7,400.7 C 63,398 61,395 61.6,391.4 c 0.6,-3.5 7.4,-6.5 10.8,-7.5 33,-9.7 60.9,-10.2 60.9,-10.2 0,0 -0.3,11.8 -0.3,23.7 -0.1,22.6 0.5,45.6 0.5,45.6 0,0 -37.2,-10.8 -67.8,-42.3 z"
       id="path754"
       style="fill:#008de7;fill-opacity:1" />
    <path
       d="m 400.4,317.6 c 15.4,-6 27.4,-14.7 39.5,-27.1 7.1,-7.2 13.2,-18.9 11,-29.7 -1.1,-5.3 -3.6,-9 -8,-12.9 -2.2,-1.9 -7.3,-4.6 -11.4,-5.4 -1.2,-0.2 -2.5,-0.3 -3,-0.7 -0.6,-0.4 -1.1,-1.1 -1.6,-1.9 -2.7,-3.4 -8.1,-6.7 -11.9,-8 -11.9,-4.1 -27.7,-1 -38.5,3.5 -11.4,4.8 -21.9,11.9 -29.9,20.5 -21,22.5 -11.8,40.3 -9.9,43.6 1.6,2.8 4.5,5.8 5.2,8.8 0.4,1.7 0,4 0.1,6.1 0.1,4.7 2.2,9.6 5.8,12.7 2.5,2.2 6.2,2.9 9.9,-2.7 1.2,-1.9 3.3,-5.7 3.3,-5.7 0,0 4.3,2.5 14.6,3.2 7.4,0.6 18,-1.7 24.8,-4.3 z m -49.5,-27.2 c 0,0 -0.7,-1.5 -1.2,-2.6 -3.2,-7.9 3.8,-16.8 10.2,-22.3 12.5,-10.6 23.1,-10.4 23.1,-10.4 0,0 -2.5,2 -4.6,3.9 -18.2,16 -27.5,31.4 -27.5,31.4 z m 27.3,-0.3 c 7.6,-9.8 21.7,-22 31.6,-27.9 7.7,-4.6 14.4,-5.9 19.4,-3.7 3,1.3 5.3,4 5.7,7.5 1.3,11.1 -11.5,20.3 -20,25.3 -19.4,11.3 -42.5,8.8 -43,7.7 -0.2,-0.1 4.5,-6.6 6.3,-8.9 z"
       id="path756"
       style="fill:#008de7;fill-opacity:1" />
    <path
       d="m 841.2,350.3 c -24.8,-17.2 -64.7,37.2 -82.3,64.2 -2.6,-13.7 6.7,-31.2 6.7,-31.2 0,0 14.9,-25.8 17,-31 2,-5.3 3.2,-16.1 0.7,-17.2 -2.3,-1.1 -6.3,2.4 -6.3,2.4 -33.5,30 -38.2,63.3 -38.2,63.3 -3.2,17.9 0.5,30.5 6,39.4 -18.6,39.6 -27.7,74.2 -25.3,94.6 2.3,15.6 13.4,26.8 20.2,29.2 6.8,2.8 8.1,-5.4 8.1,-5.4 5.5,-42.3 15.2,-70.5 26.8,-98.4 34.9,8 61.2,-25.9 70.5,-42.2 5.5,-9.7 8.4,-22.7 8.4,-35 -0.1,-13.8 -4,-26.8 -12.3,-32.7 z m -22.7,67.4 c -4,3.8 -17.3,11.3 -31,12.8 13.1,-25.4 29.4,-44.1 38.4,-54 10.5,-11.8 11.9,-1.1 11.9,-1.1 2.4,20.8 -12.8,36.5 -19.3,42.3 z"
       id="path758"
       style="fill:#008de7;fill-opacity:1" />
    <path
       d="m 726.5,437.8 c 1.7,-6.3 -4.1,-13.3 -9.3,-14.6 -4.9,-1 -42.4,6 -46.8,7.2 -4.8,1.3 -2.7,-3.2 -2.7,-3.2 l 5.8,-19.6 c 0,0 35.8,-1.4 41,-2.2 4.8,-0.9 5.1,-4.3 5.1,-4.3 0,0 0.6,-5.6 0.4,-10.8 -0.5,-5.6 -5,-5.1 -5,-5.1 -13.8,-1.4 -32.8,0.2 -32.8,0.2 l 4.8,-15 c 0,0 38,-1.8 52.5,-5.2 7.4,-1.8 3.1,-9 3.1,-9 -9,-18 -19.4,-17 -19.4,-17 -29.9,-1 -73.4,6.9 -78.1,9.3 -4.4,2 -4,5.3 1.8,12.6 6.2,7.7 16.7,7 16.7,7 l -9.2,18.9 c -7.5,0.5 -10.1,2.9 -10.1,2.9 -4.3,4.6 1.6,18.2 1.6,18.2 0,0 -13,29.1 -3.6,44.5 10.1,16.1 22.1,15.4 22.1,15.4 22.7,1.5 60.1,-22.4 62.1,-30.2 z"
       id="path760"
       style="fill:#008de7;fill-opacity:1" />
    <path
       d="m 595.8,322.2 c 0,0 -5.3,-2.5 -6.6,2.8 -1.3,5.2 0.7,10.8 0.7,10.8 13.2,44.7 16.2,71.1 16.2,71.1 0,0 0.6,7.8 -0.9,8.2 -1.1,0.8 -2.2,-0.3 -2.2,-0.3 -1.5,0.1 -16,-24.2 -16,-24.2 l -2.8,-4.7 c -15.9,-25.6 -25.6,-34.4 -25.6,-34.4 -2.3,-2.1 -8,-7.9 -15.3,0.1 -7.2,8.1 -12.9,33.9 -15.1,58.2 -1.9,24.3 -0.5,38.1 3.1,43.9 3.9,5.9 11.4,7.9 17.6,2.9 6.6,-5 5.3,-37 6.4,-53.4 1,-16.5 2.6,-13.5 2.6,-13.5 1.4,-0.4 9,14.7 9,14.7 0,0 19.8,40.4 32.2,46.4 12.6,6 22.7,-3.6 26.5,-12.6 3.9,-9.1 10.5,-39.1 0.7,-72.3 -10.1,-33.5 -30.5,-43.7 -30.5,-43.7 z"
       id="path762"
       style="fill:#008de7;fill-opacity:1" />
    <path
       d="m 390.2,407.8 c -0.5,-11.1 -1.8,-39.3 -4.9,-52.1 -1.3,-5.5 -3.6,-10.5 -9,-12.6 -0.6,-0.2 -1.3,-0.4 -1.8,-0.5 -3.4,-0.7 -5.3,4 -6.2,6.3 -2.7,6.9 -4.6,23.2 -5.1,28.4 -1.6,15.5 -2.9,52.2 -0.2,70.8 1.1,7.8 3.7,12.9 11.6,14.6 3.2,0.7 9.1,0.5 11.6,-1.1 2.2,-1.4 3.8,-4.1 4.3,-6.5 1.5,-6.5 0.9,-15.7 0.6,-22.7 -0.3,-8.2 -0.5,-16.4 -0.9,-24.6 z"
       id="path764"
       style="fill:#008de7;fill-opacity:1" />
    <path
       d="m 518.1,346 c -17.1,-9.1 -45.2,-9.1 -62.7,-6.9 -18,2.2 -42.1,7.8 -52.3,22.6 -3.9,5.6 -6.2,14.3 -4.4,21.3 1,3.9 3.8,6.9 7.9,9 7.3,3.8 31.6,4.6 42.4,5.8 10.2,1.1 29,2.9 39.4,7.2 0,0 9.8,3.4 9.7,9 0,2.8 -2.1,5 -4.2,6.5 -15.4,10.9 -36.5,14 -55.3,13.7 -6.4,-0.1 -11.6,-1.1 -18.1,-3.9 -2.8,-1.2 -6.3,-3.4 -5.8,-7.2 0.8,-6 7.7,-7.5 13.1,-7 3.1,0.3 7,1.6 10,2.7 12.1,4.8 17.6,8.8 28.2,7.1 4,-0.6 17.7,-3.6 19.5,-9.2 0.5,-1.4 -0.2,-2.9 -1.2,-3.9 -1.4,-1.5 -9.7,-4.7 -11.9,-5.5 -8.1,-2.9 -23.4,-5.5 -31.9,-5.8 -11.2,-0.4 -26.5,1.9 -32.9,11.1 -5.7,8.3 -7,25.1 21.5,39.3 13.2,6.6 29.3,9.5 44.1,7.9 8.5,-1 32.8,-4.8 42,-24.1 5,-10.4 4.5,-24.3 -0.9,-34.2 -3.5,-6.5 -7.8,-15.2 -39.6,-19.2 -5.1,-0.6 -42.5,-5 -45.9,-5.5 -1.9,-0.3 -10.7,-1.3 -7.6,-4.7 0.9,-1 3.5,-1.7 5.1,-2.1 19.6,-5.4 44.6,-4.7 65.2,-5.9 4.6,-0.3 15.1,-0.9 20.1,-2.5 4.8,-1.5 8.8,-4.9 9.9,-10.2 0.6,-2.7 -0.7,-4 -3.4,-5.4 z"
       id="path766"
       style="fill:#008de7;fill-opacity:1" />
  </g>
</svg>
