<?xml version="1.0" encoding="UTF-8" standalone="no"?>
<!-- Generator: Adobe Illustrator 16.0.0, SVG Export Plug-In . SVG Version: 6.00 Build 0)  -->
<svg
xmlns:dc="http://purl.org/dc/elements/1.1/"
xmlns:cc="http://creativecommons.org/ns#"
xmlns:rdf="http://www.w3.org/1999/02/22-rdf-syntax-ns#"
xmlns:svg="http://www.w3.org/2000/svg"
xmlns="http://www.w3.org/2000/svg"
xmlns:sodipodi="http://sodipodi.sourceforge.net/DTD/sodipodi-0.dtd"
xmlns:inkscape="http://www.inkscape.org/namespaces/inkscape"
version="1.1"
id="Layer_1"
x="0px"
y="0px"
width="725.36053"
height="471.82379"
viewBox="0 0 725.36053 471.82379"
enable-background="new 0 0 792 515"
xml:space="preserve"
inkscape:version="0.91 r13725"
sodipodi:docname="DisneyXD_15.svg"><metadata
id="metadata14268"><rdf:RDF><cc:Work
rdf:about=""><dc:format>image/svg+xml</dc:format><dc:type rdf:resource="http://purl.org/dc/dcmitype/StillImage"/><dc:title></dc:title></cc:Work></rdf:RDF></metadata><defs
id="defs14266"/><sodipodi:namedview
pagecolor="#ffffff"
bordercolor="#666666"
borderopacity="1"
objecttolerance="10"
gridtolerance="10"
guidetolerance="10"
inkscape:pageopacity="0"
inkscape:pageshadow="2"
inkscape:window-width="1366"
inkscape:window-height="705"
id="namedview14264"
showgrid="false"
fit-margin-top="0"
fit-margin-left="0"
fit-margin-right="0"
fit-margin-bottom="0"
inkscape:zoom="0.36868687"
inkscape:cx="362.68154"
inkscape:cy="235.913"
inkscape:window-x="-8"
inkscape:window-y="-8"
inkscape:window-maximized="1"
inkscape:current-layer="g14226"/><g
id="g14226"
transform="translate(-33.318456,-21.589219)"><g
display="none"
id="g14228"
style="display:none"><path
display="inline"
d="m 57.302,21.762 c -10.215,0.302 -18.43,1.58 -20.273,3.583 -1.604,1.815 -3.664,3.268 -3.706,5.694 -0.057,2.355 2.664,2.572 4.308,2.551 1.614,0 3.126,-0.145 3.106,-1.147 0,-1.35 -2.2,-1.061 -2.2,-2.464 0,-1.587 8.444,-1.938 12.655,-1.938 36.134,-0.131 77.745,25.363 77.811,46.999 0.056,16.783 -21.421,20.564 -33.264,20.564 -4.218,0.019 -8.292,-0.423 -12.164,-1.191 -0.198,-5.345 -0.498,-16.555 -0.629,-23.664 1.362,-0.021 2.642,-0.051 3.728,-0.051 8.783,-0.021 20.304,3.139 20.313,5.222 0,1.787 -3.069,3.033 -3.069,4.736 0.025,1.278 2.843,1.021 5.259,1.221 0.449,0.057 5.402,-2.779 5.397,-7.246 -0.031,-5.896 -7.236,-12.856 -30.772,-12.759 l -1.032,0 c -0.215,-6.633 -1.157,-17.043 -4.885,-17.039 -3.049,0.02 -3.938,11.511 -4.198,17.796 -13.21,2.069 -24.942,7.526 -24.921,12.916 0,4.408 9.457,15.492 24.715,22.243 0.27,5.004 1.196,8.421 5.561,8.397 3.165,0 4.219,-2.364 4.55,-4.849 4.939,1.285 10.298,2.043 15.979,2.024 22.147,-0.059 39.949,-12.123 39.882,-28.643 C 139.405,52.533 95.517,20.688 57.302,21.762 m -5.955,55.162 c 0,-3.849 11.5,-5.35 22.157,-5.898 -0.064,6.06 -0.145,14.742 -0.126,20.578 C 60.271,86.896 51.347,79.417 51.347,76.924"
id="path14230"
inkscape:connector-curvature="0"
style="display:inline;fill:#08ee59"/><path
display="inline"
d="m 147.389,62.403 c -3.734,0.041 -3.85,15.42 -3.954,21.04 -0.253,12.79 1.611,14.285 4.958,14.285 2.992,0 4.013,-0.37 3.755,-11.078 -0.468,-20.338 -1.821,-24.247 -4.759,-24.247"
id="path14232"
inkscape:connector-curvature="0"
style="display:inline;fill:#08ee59"/><path
display="inline"
d="m 149.354,57.307 c 8.272,-0.042 21.491,-9.63 21.441,-17.591 0,-3.577 -1.82,-5.43 -6.327,-6.069 -1.918,-1.863 -4.708,-3.959 -8.874,-3.949 -12.917,0.036 -21.299,10.537 -21.299,16.218 0.005,2.134 0.664,4.698 2.518,6.839 0.083,4.571 1.157,5.751 2.61,5.751 1.627,0 2.611,-0.959 3.213,-2.1 1.841,0.59 4.06,0.922 6.718,0.901 m 0.838,-6.43 c -1.901,0 -3.496,-0.263 -4.861,-0.699 3.677,-4.197 12.521,-12.164 16.88,-12.185 2.839,0 3.347,2.315 3.347,3.196 0,5.312 -10.738,9.667 -15.366,9.688 m 0.615,-14.175 c -3.95,2.396 -8.008,5.694 -10.752,9.01 -0.121,-0.427 -0.205,-0.859 -0.205,-1.257 0,-2.554 3.667,-6.541 10.957,-7.753"
id="path14234"
inkscape:connector-curvature="0"
style="display:inline;fill:#08ee59"/><path
display="inline"
d="m 192.296,65.167 c 0,-3.522 -8.969,-3.487 -14.025,-3.482 -3.788,0.031 -22.995,0.463 -22.974,11.391 0.014,7.371 10.776,5.566 17.912,6.302 5.798,0.585 12.841,2.539 12.886,4.465 0,4.345 -15.404,6.065 -18.555,6.065 -6.547,0.038 -6.677,-1.884 -6.677,-2.87 0,-0.982 1.085,-2.643 3.542,-2.643 2.438,-0.009 7.465,3.165 10.958,3.156 3.448,-0.031 6.34,-1.577 6.34,-3.165 0,-2.907 -11.5,-4.297 -15.065,-4.297 -3.75,0.025 -9.121,1.585 -9.092,7.296 0,2.97 4.764,9.973 18.144,9.911 13.19,-0.059 16.523,-7.667 16.506,-11.589 -0.02,-9.542 -8.928,-10.647 -16.691,-11.325 -5.817,-0.513 -12.062,-0.801 -12.042,-2.105 0.043,-4.366 28.833,-1.171 28.833,-7.11"
id="path14236"
inkscape:connector-curvature="0"
style="display:inline;fill:#08ee59"/><path
display="inline"
d="m 214.22,57.099 c -1.085,0 -1.291,1.17 -1.291,2.405 0,3.775 5.108,16.762 5.108,21.757 0,1.019 -0.079,2.858 -0.879,3.119 -1.216,0.356 -11.836,-19.378 -16.228,-19.715 -4.533,-0.357 -6.974,19.36 -6.949,24.218 0,4.812 0.855,8.085 4.396,8.064 5.227,0 2.522,-19.687 4.623,-19.687 1.563,0 10.115,18.008 14.879,17.988 5.154,-0.016 8.21,-7.726 8.199,-12.732 -0.032,-11.454 -7.52,-25.458 -11.858,-25.417"
id="path14238"
inkscape:connector-curvature="0"
style="display:inline;fill:#08ee59"/><path
display="inline"
d="m 249.821,87.522 c -1.823,0 -12.104,2.322 -12.781,1.709 -0.684,-0.638 0.607,-6.677 1.887,-7.074 1.289,-0.402 9.331,-0.301 10.609,-0.382 3.733,-0.216 3.029,-5.345 0.723,-5.538 -1.177,-0.111 -8.426,-0.132 -8.842,-0.813 -0.378,-0.664 0.132,-4.09 0.927,-4.442 1.67,-0.719 12.703,-0.991 13.539,-1.206 1.375,-0.371 2.375,-1.106 2.707,-2.297 0.326,-1.206 -3.833,-6.083 -8.984,-5.531 -8.856,0.975 -20.324,0.935 -20.324,3.879 0,2.763 5.392,3.874 5.528,4.643 0.141,0.738 -0.693,3.608 -1.011,4.513 -0.315,0.959 -4.17,1.254 -4.422,3.929 -0.053,0.633 0.962,1.596 0.785,2.369 -0.613,2.263 -2.456,6.945 -2.452,8.872 0,3.001 2.187,9.664 8.186,9.438 9.505,-0.296 18.012,-7.042 18.156,-8.233 0.196,-1.764 -2.409,-3.836 -4.231,-3.836"
id="path14240"
inkscape:connector-curvature="0"
style="display:inline;fill:#08ee59"/><path
display="inline"
d="m 286.622,64.638 c -5.186,0.285 -15.144,11.468 -20.951,19.008 -0.37,-0.775 -0.574,-1.522 -0.574,-2.178 -0.012,-3.219 5.88,-12.756 6.981,-15.158 1.149,-2.472 -0.142,-5.778 -1.583,-4.588 -2.754,2.301 -11.602,12.813 -11.582,22.593 0,2.249 0.574,4.976 1.802,7.483 -1.963,6.554 -6.807,21.147 -6.654,29.991 0.088,4.567 4.627,9.053 7.36,8.485 1.038,-0.25 1.242,-6.254 2.632,-10.306 1.9,-5.851 4.976,-16.548 6.029,-21.105 0.497,0.054 0.996,0.095 1.532,0.095 10.8,-0.041 22.795,-11.795 22.775,-21.895 -0.038,-10.135 -5.924,-12.552 -7.767,-12.425 m -12.475,25 c 4.355,-7.683 10.691,-17.856 13.023,-17.817 1.632,0 2.258,1.698 2.258,4.18 0,7.517 -8.894,13.742 -15.281,13.637"
id="path14242"
inkscape:connector-curvature="0"
style="display:inline;fill:#08ee59"/></g><path
d="m 411.494,487.72 0,-102.76 c -0.041,-1.349 -0.308,-2.649 -0.795,-3.934 -0.551,-1.35 -1.393,-2.582 -2.355,-3.516 l -63.641,-64.834 c -2.195,-2.258 -2.195,-5.912 0,-8.134 L 408.344,239.7 c 0.963,-0.979 1.805,-2.14 2.355,-3.521 0.487,-1.28 0.781,-2.639 0.795,-3.94 l 0,-102.73 c 0,-1.472 -0.538,-2.947 -1.64,-4.053 -1.12,-1.132 -2.581,-1.639 -3.98,-1.639 l -96.975,0 c -1.292,0 -2.575,0.222 -3.839,0.801 -1.357,0.511 -2.507,1.37 -3.472,2.333 l -67.586,68.845 c -2.201,2.249 -5.745,2.249 -7.977,-0.021 l -67.6,-68.824 c -0.94,-0.963 -2.11,-1.823 -3.432,-2.333 -1.281,-0.579 -2.564,-0.801 -3.875,-0.801 l -96.928,0 c -1.411,0 -2.88,0.507 -3.969,1.639 -1.127,1.106 -1.639,2.582 -1.639,4.033 l 0,102.751 c 0.005,1.301 0.264,2.66 0.775,3.94 0.552,1.382 1.365,2.542 2.311,3.521 l 63.645,64.842 c 2.238,2.222 2.238,5.876 0,8.134 l -63.645,64.834 c -0.945,0.948 -1.758,2.166 -2.311,3.516 -0.511,1.284 -0.771,2.602 -0.775,3.934 l 0,102.76 c 0,1.449 0.527,2.924 1.639,4.016 1.089,1.119 2.559,1.676 3.969,1.676 l 100.844,0 c 1.322,-0.029 2.607,-0.292 3.903,-0.794 1.32,-0.538 2.48,-1.356 3.46,-2.361 l 63.627,-64.834 c 2.232,-2.256 5.776,-2.256 8.01,-0.02 l 63.618,64.854 c 0.945,1.005 2.115,1.823 3.463,2.361 1.295,0.502 2.587,0.765 3.888,0.794 l 100.871,0 c 1.399,0 2.86,-0.557 3.98,-1.676 1.102,-1.093 1.64,-2.568 1.64,-4.017"
id="path14244"
inkscape:connector-curvature="0"
style="fill:#08ee59"/><path
d="m 678.863,493.411 c 1.269,-0.029 2.563,-0.292 3.844,-0.794 1.364,-0.538 2.51,-1.356 3.446,-2.361 l 69.56,-70.839 c 0.896,-0.938 1.634,-2.086 2.167,-3.372 0.545,-1.351 0.799,-2.738 0.799,-4.139 l 0,-206.625 c 0,-1.386 -0.254,-2.764 -0.799,-4.134 -0.533,-1.296 -1.271,-2.438 -2.167,-3.359 l -69.56,-70.836 c -0.937,-0.963 -2.082,-1.813 -3.446,-2.333 -1.28,-0.579 -2.575,-0.801 -3.844,-0.801 l -243.735,0 c -1.443,0 -2.865,0.507 -3.958,1.639 -1.118,1.115 -1.672,2.582 -1.7,4.033 l 0,358.23 c 0.028,1.449 0.582,2.924 1.7,4.016 1.093,1.119 2.515,1.676 3.958,1.676 l 243.735,0 z"
id="path14246"
inkscape:connector-curvature="0"
style="fill:#08ee59"/></g><g
id="g14248"
transform="translate(-33.318456,-21.589219)"><path
d="m 83.284,82.492 c 0.119,3.627 0.232,7.257 0.353,10.886 0.032,0.967 0.062,0.993 0.977,1.164 4.589,0.862 9.22,1.142 13.876,0.928 5.759,-0.262 11.392,-1.206 16.806,-3.302 2.744,-1.062 5.325,-2.423 7.605,-4.326 2.923,-2.435 4.937,-5.472 5.733,-9.281 0.69,-3.297 0.343,-6.512 -0.72,-9.675 -1.021,-3.035 -2.583,-5.771 -4.457,-8.326 C 120.328,56.282 116.546,52.673 112.42,49.425 105.01,43.592 96.838,39.14 88.169,35.612 81.084,32.725 73.78,30.599 66.255,29.283 59.901,28.165 53.498,27.745 47.058,28.063 c -1.822,0.091 -3.651,0.203 -5.456,0.536 -0.83,0.155 -1.661,0.295 -2.405,0.72 -0.59,0.333 -0.654,0.908 -0.14,1.343 0.263,0.221 0.584,0.371 0.873,0.562 0.205,0.136 0.431,0.259 0.595,0.438 0.44,0.49 0.302,1.249 -0.287,1.52 -0.31,0.141 -0.66,0.254 -0.992,0.263 -1.085,0.027 -2.182,0.084 -3.259,-0.02 -2.292,-0.22 -3.189,-1.754 -2.372,-3.943 0.286,-0.765 0.753,-1.421 1.292,-2.014 0.708,-0.776 1.444,-1.523 2.172,-2.279 0.531,-0.555 1.213,-0.856 1.902,-1.135 1.432,-0.582 2.929,-0.928 4.438,-1.181 6.507,-1.094 13.064,-1.494 19.649,-1.18 6.187,0.298 12.268,1.399 18.237,3.092 13.582,3.849 26.001,10.116 37.232,18.804 5.1,3.945 9.766,8.365 13.715,13.527 2.138,2.793 4.004,5.756 5.373,9.024 1.342,3.194 2.056,6.502 1.841,10.008 -0.199,3.332 -1.099,6.44 -2.666,9.356 -2.041,3.781 -4.904,6.806 -8.315,9.317 -4.347,3.192 -9.185,5.295 -14.338,6.697 -6.272,1.703 -12.662,2.141 -19.112,1.738 -3.456,-0.215 -6.876,-0.76 -10.247,-1.576 -0.241,-0.059 -0.481,-0.123 -0.723,-0.157 -0.216,-0.027 -0.377,0.067 -0.436,0.3 -0.101,0.392 -0.184,0.787 -0.309,1.167 -0.75,2.27 -2.112,3.324 -4.584,3.233 -2.344,-0.082 -3.767,-1.182 -4.502,-3.465 -0.402,-1.247 -0.651,-2.544 -0.658,-3.861 -0.005,-0.754 -0.284,-1.158 -0.973,-1.472 -3.758,-1.706 -7.326,-3.765 -10.683,-6.184 -3.566,-2.576 -6.88,-5.434 -9.672,-8.883 -0.914,-1.129 -1.767,-2.304 -2.43,-3.606 -0.316,-0.624 -0.608,-1.273 -0.821,-1.941 -0.423,-1.325 -0.195,-2.587 0.53,-3.76 0.53,-0.861 1.201,-1.595 1.971,-2.242 1.726,-1.46 3.667,-2.562 5.696,-3.499 4.344,-2.009 8.901,-3.313 13.572,-4.23 0.675,-0.13 1.361,-0.236 2.041,-0.359 0.797,-0.147 0.832,-0.181 0.923,-1.086 0.062,-0.598 0.089,-1.205 0.121,-1.808 0.178,-3.427 0.508,-6.835 1.216,-10.195 0.217,-1.036 0.506,-2.052 0.927,-3.025 0.121,-0.276 0.257,-0.548 0.416,-0.802 0.86,-1.363 2.081,-1.469 3.201,-0.28 0.488,0.512 0.807,1.143 1.083,1.792 0.568,1.351 0.92,2.77 1.174,4.208 0.512,2.881 0.802,5.787 0.918,8.713 0.013,0.353 0.015,0.708 0.046,1.057 0.029,0.277 0.195,0.461 0.474,0.482 0.297,0.028 0.592,0.031 0.887,0.028 3.116,-0.021 6.229,0.048 9.33,0.376 3.894,0.41 7.735,1.056 11.443,2.389 1.917,0.69 3.75,1.553 5.414,2.764 1.014,0.736 1.929,1.579 2.666,2.606 0.742,1.029 1.288,2.151 1.479,3.425 0.296,1.996 -0.141,3.804 -1.371,5.399 -0.833,1.086 -1.831,1.978 -2.988,2.685 -0.337,0.208 -0.675,0.416 -1.099,0.399 -1.284,-0.055 -2.573,-0.004 -3.842,-0.265 -0.24,-0.049 -0.485,-0.099 -0.712,-0.194 -0.51,-0.218 -0.701,-0.703 -0.528,-1.242 0.172,-0.548 0.516,-0.973 0.897,-1.373 0.379,-0.397 0.783,-0.771 1.158,-1.17 0.203,-0.219 0.387,-0.46 0.545,-0.715 0.504,-0.824 0.409,-1.346 -0.365,-1.948 -0.634,-0.496 -1.362,-0.814 -2.099,-1.111 -2.209,-0.894 -4.508,-1.485 -6.833,-1.965 -4.278,-0.889 -8.6,-1.284 -12.966,-1.166 -0.296,0.007 -0.592,0.014 -0.886,0.047 -0.216,0.024 -0.353,0.184 -0.362,0.4 -0.021,0.454 -0.028,0.906 -0.016,1.362 0.076,3.328 0.159,6.653 0.238,9.981 -0.001,0.003 -0.005,0.003 -0.012,0.003 z M 73.348,81.23 c 0.02,0 0.036,0 0.052,0 0.041,-2.922 0.085,-5.845 0.123,-8.769 0.005,-0.353 0,-0.706 -0.029,-1.056 -0.019,-0.228 -0.19,-0.352 -0.4,-0.363 -0.244,-0.015 -0.491,0.007 -0.738,0.029 -1.871,0.152 -3.741,0.305 -5.613,0.464 -2.907,0.248 -5.79,0.651 -8.641,1.285 -1.35,0.301 -2.68,0.688 -3.954,1.254 -0.774,0.347 -1.511,0.759 -2.091,1.403 -0.687,0.765 -0.791,1.448 -0.289,2.329 0.298,0.519 0.652,1.019 1.059,1.451 0.718,0.76 1.456,1.514 2.257,2.179 5.196,4.306 11.097,7.315 17.317,9.722 0.183,0.071 0.382,0.117 0.576,0.129 0.136,0.007 0.302,-0.046 0.316,-0.235 0.028,-0.35 0.053,-0.703 0.053,-1.052 0.004,-2.923 0.002,-5.845 0.002,-8.77 z"
id="path14250"
inkscape:connector-curvature="0"
style="fill:#08ee59"/><path
d="m 265.627,83.288 c 0.546,-0.263 0.77,-0.735 1.071,-1.113 2.954,-3.727 6.042,-7.333 9.417,-10.669 1.881,-1.863 3.842,-3.635 6.04,-5.112 0.949,-0.642 1.935,-1.199 3.023,-1.577 1.133,-0.391 2.23,-0.354 3.321,0.134 1.49,0.666 2.652,1.73 3.57,3.087 1.327,1.961 1.918,4.183 2.184,6.51 0.426,3.718 -0.224,7.238 -2.045,10.497 -3.463,6.197 -8.438,10.583 -15.066,12.956 -2.027,0.728 -4.122,1.012 -6.265,0.983 -0.764,-0.012 -0.785,0 -0.985,0.793 -1.329,5.218 -2.81,10.388 -4.363,15.54 -0.291,0.963 -0.553,1.934 -0.892,2.882 -1.011,2.854 -1.595,5.812 -2.093,8.795 -0.151,0.893 -0.392,1.767 -0.615,2.644 -0.13,0.509 -0.493,0.684 -1.004,0.704 -0.997,0.034 -1.842,-0.352 -2.622,-0.905 -2.068,-1.466 -3.432,-3.445 -4.075,-5.935 -0.383,-1.491 -0.261,-3 -0.133,-4.511 0.435,-5.143 1.599,-10.14 2.971,-15.091 1.032,-3.731 2.17,-7.432 3.281,-11.141 0.18,-0.602 0.204,-1.134 -0.058,-1.745 -1.933,-4.478 -1.801,-9.001 -0.23,-13.552 1.17,-3.406 2.881,-6.514 4.914,-9.451 1.397,-2.022 2.916,-3.944 4.67,-5.66 0.285,-0.281 0.578,-0.558 0.903,-0.778 0.465,-0.314 0.949,-0.203 1.315,0.246 0.254,0.317 0.404,0.684 0.507,1.08 0.32,1.226 0.198,2.408 -0.343,3.531 -0.436,0.903 -0.926,1.781 -1.405,2.663 -1.383,2.558 -2.818,5.091 -4.024,7.745 -0.478,1.053 -0.929,2.114 -1.244,3.23 -0.311,1.083 -0.325,2.148 0.275,3.22 z m 23.693,-7.57 c -0.049,-0.613 -0.021,-1.418 -0.289,-2.199 -0.62,-1.794 -1.858,-2.169 -3.289,-0.95 -0.951,0.811 -1.753,1.772 -2.51,2.774 -3.236,4.278 -5.962,8.895 -8.63,13.549 -0.023,0.044 -0.055,0.085 -0.077,0.129 -0.172,0.35 -0.014,0.569 0.399,0.531 1.385,-0.121 2.734,-0.412 4.03,-0.932 3.591,-1.438 6.569,-3.676 8.677,-7.012 1.092,-1.724 1.73,-3.615 1.689,-5.89 z"
id="path14252"
inkscape:connector-curvature="0"
style="fill:#08ee59"/><path d="m 179.936,61.614 c 1.889,-0.081 4.058,0.083 6.226,0.272 1.133,0.102 2.253,0.313 3.345,0.638 0.615,0.186 1.217,0.422 1.748,0.809 1.378,1 1.404,2.486 0.047,3.493 -0.482,0.357 -1.03,0.587 -1.589,0.795 -1.119,0.419 -2.284,0.675 -3.457,0.838 -2.004,0.275 -4.02,0.495 -6.038,0.669 -3.79,0.323 -7.598,0.442 -11.379,0.898 -1.08,0.133 -2.148,0.324 -3.198,0.61 -0.529,0.144 -1.042,0.329 -1.491,0.652 -0.326,0.231 -0.667,0.504 -0.594,0.965 0.06,0.389 0.413,0.562 0.74,0.669 0.516,0.167 1.041,0.349 1.572,0.42 1.812,0.236 3.626,0.461 5.446,0.627 3.05,0.281 6.11,0.446 9.144,0.903 1.568,0.234 3.119,0.542 4.612,1.085 0.697,0.251 1.389,0.533 2.05,0.872 3.265,1.669 4.889,4.437 5.074,8.107 0.167,3.236 -1.095,5.893 -3.353,8.082 -2.028,1.968 -4.514,3.046 -7.209,3.656 -3.316,0.747 -6.66,0.781 -10.023,0.404 -1.977,-0.222 -3.902,-0.629 -5.766,-1.33 -2.297,-0.864 -4.392,-2.069 -6.098,-3.9 -0.513,-0.552 -0.968,-1.147 -1.347,-1.8 -1.482,-2.543 -0.989,-5.728 1.186,-7.697 0.866,-0.783 1.872,-1.307 2.962,-1.673 1.666,-0.555 3.381,-0.728 5.122,-0.624 3.313,0.198 6.59,0.642 9.801,1.514 0.808,0.221 1.592,0.539 2.368,0.861 0.406,0.168 0.797,0.413 1.146,0.688 0.894,0.71 0.95,1.616 0.171,2.47 -0.478,0.524 -1.077,0.879 -1.725,1.144 -2.181,0.898 -4.396,1.077 -6.671,0.396 -1.426,-0.425 -2.801,-0.979 -4.187,-1.516 -0.876,-0.341 -1.755,-0.679 -2.653,-0.958 -0.908,-0.274 -1.839,-0.384 -2.773,-0.083 -0.882,0.291 -1.605,0.783 -2.029,1.648 -0.433,0.892 -0.234,1.81 0.514,2.449 0.466,0.397 1.023,0.601 1.597,0.761 1.596,0.451 3.229,0.491 4.858,0.414 4.158,-0.193 8.253,-0.862 12.264,-2.004 1.282,-0.364 2.541,-0.833 3.704,-1.516 0.645,-0.378 1.26,-0.8 1.67,-1.462 0.485,-0.786 0.411,-1.406 -0.265,-2.01 -0.527,-0.474 -1.154,-0.772 -1.792,-1.051 -1.915,-0.841 -3.93,-1.341 -5.965,-1.751 -3.063,-0.617 -6.158,-0.921 -9.282,-0.93 -2.571,-0.006 -5.138,-0.092 -7.676,-0.582 -0.827,-0.159 -1.631,-0.399 -2.4,-0.749 -2.083,-0.942 -3.085,-2.605 -3.056,-4.905 0.03,-2.045 0.719,-3.841 2.097,-5.35 1.023,-1.122 2.249,-1.962 3.581,-2.649 1.955,-1.006 4.031,-1.647 6.162,-2.11 4.126,-0.895 8.305,-1.216 12.809,-1.159 z"
id="path14254"
inkscape:connector-curvature="0"
style="fill:#08ee59"/><path
d="m 194.047,88.655 c -0.014,-3.438 0.449,-6.832 0.99,-10.215 0.404,-2.537 0.918,-5.053 1.643,-7.52 0.339,-1.158 0.727,-2.301 1.23,-3.4 0.355,-0.777 0.762,-1.53 1.362,-2.146 0.848,-0.876 1.612,-1.001 2.675,-0.421 0.97,0.528 1.752,1.304 2.498,2.111 1.423,1.55 2.711,3.213 3.907,4.944 1.762,2.556 3.481,5.14 5.232,7.707 0.877,1.281 1.771,2.548 2.686,3.8 0.224,0.31 0.462,0.755 0.911,0.66 0.517,-0.11 0.551,-0.652 0.653,-1.083 0.265,-1.094 0.225,-2.198 0.066,-3.302 -0.373,-2.603 -1.086,-5.12 -1.793,-7.638 -0.873,-3.099 -1.761,-6.191 -2.622,-9.292 -0.349,-1.263 -0.566,-2.546 -0.546,-3.875 0.026,-1.797 0.935,-2.438 2.628,-1.592 0.583,0.292 1.083,0.703 1.552,1.155 1.229,1.19 2.229,2.562 3.095,4.039 2.988,5.08 4.868,10.548 5.631,16.43 0.431,3.314 0.223,6.535 -0.981,9.662 -0.544,1.417 -1.234,2.746 -2.182,3.928 -0.862,1.075 -1.89,1.913 -3.2,2.36 -1.307,0.438 -2.525,0.326 -3.649,-0.539 -1.153,-0.885 -2.128,-1.954 -3.033,-3.088 -1.373,-1.722 -2.61,-3.548 -3.801,-5.404 -1.407,-2.195 -2.798,-4.398 -4.202,-6.592 -0.404,-0.633 -0.828,-1.257 -1.378,-1.776 -0.371,-0.354 -0.718,-0.264 -0.882,0.254 -0.119,0.381 -0.188,0.779 -0.253,1.176 -0.293,1.746 -0.225,3.517 -0.29,5.282 -0.094,2.518 -0.192,5.035 -0.553,7.534 -0.157,1.099 -0.383,2.185 -0.825,3.205 -0.417,0.951 -0.939,1.82 -2.079,1.93 -1.197,0.119 -2.246,-0.251 -3.064,-1.186 -0.399,-0.458 -0.661,-1 -0.859,-1.578 -0.33,-0.957 -0.51,-1.949 -0.559,-2.959 -0.042,-0.856 -0.008,-1.712 -0.008,-2.571 z"
id="path14256"
inkscape:connector-curvature="0"
style="fill:#08ee59"/><path
d="m 250.254,61.858 c 3.177,0.054 5.681,1.469 7.665,3.939 0.155,0.19 0.28,0.414 0.406,0.63 0.366,0.636 0.285,1.255 -0.13,1.833 -0.651,0.903 -1.559,1.378 -2.632,1.514 -0.782,0.097 -1.572,0.149 -2.36,0.197 -2.22,0.136 -4.442,0.243 -6.659,0.397 -1.083,0.07 -2.164,0.216 -3.242,0.336 -0.883,0.098 -1.441,0.57 -1.657,1.465 -0.189,0.784 -0.375,1.567 -0.383,2.378 -0.006,0.658 0.199,0.935 0.802,1.084 0.38,0.097 0.778,0.138 1.17,0.178 1.821,0.178 3.645,0.29 5.471,0.289 0.348,0 0.694,0.006 1.041,0.027 1.406,0.09 2.217,0.899 2.393,2.377 0.178,1.494 -0.511,2.667 -1.799,3.09 -0.574,0.189 -1.167,0.2 -1.758,0.206 -2.174,0.019 -4.348,0.027 -6.523,0.065 -0.788,0.014 -1.576,0.123 -2.363,0.144 -0.866,0.021 -1.353,0.532 -1.678,1.267 -0.469,1.06 -0.795,2.167 -0.978,3.317 -0.093,0.596 -0.186,1.197 -0.206,1.797 -0.022,0.635 0.302,0.944 0.92,0.902 0.838,-0.059 1.677,-0.132 2.506,-0.269 2.484,-0.414 4.964,-0.865 7.444,-1.291 0.538,-0.09 1.078,-0.147 1.62,-0.191 1.865,-0.143 3.222,0.771 4.26,2.242 0.603,0.849 0.648,1.82 -0.244,2.553 -0.612,0.505 -1.186,1.072 -1.826,1.536 -3.76,2.718 -7.895,4.564 -12.435,5.411 -1.019,0.188 -2.06,0.305 -3.092,0.344 -2.433,0.094 -4.438,-0.848 -5.944,-2.808 -1.445,-1.878 -2.186,-4.046 -2.346,-6.416 -0.05,-0.756 0.089,-1.51 0.3,-2.238 0.389,-1.35 0.805,-2.696 1.214,-4.042 0.235,-0.769 0.449,-1.546 0.734,-2.298 0.236,-0.62 0.173,-1.168 -0.128,-1.73 -0.285,-0.527 -0.6,-1.042 -0.377,-1.705 0.234,-0.7 0.643,-1.263 1.246,-1.636 0.628,-0.393 1.296,-0.737 1.973,-1.03 0.742,-0.327 1.198,-0.842 1.376,-1.645 0.206,-0.933 0.486,-1.849 0.646,-2.791 0.155,-0.895 0.044,-1.048 -0.711,-1.441 -0.526,-0.273 -1.078,-0.501 -1.61,-0.767 -0.754,-0.378 -1.494,-0.788 -2.126,-1.365 -0.488,-0.448 -0.859,-0.968 -0.938,-1.663 -0.064,-0.545 0.098,-0.993 0.536,-1.324 0.486,-0.364 1.03,-0.59 1.6,-0.768 1.472,-0.459 2.986,-0.688 4.507,-0.862 1.766,-0.199 3.536,-0.361 5.308,-0.52 2.705,-0.236 5.415,-0.455 8.122,-0.68 0.292,-0.018 0.588,-0.025 0.885,-0.038 z"
id="path14258"
inkscape:connector-curvature="0"
style="fill:#08ee59"/><path
d="m 148.064,57.258 c -1.058,-0.042 -2.83,-0.197 -4.557,-0.652 -0.547,-0.142 -0.906,-0.125 -1.25,0.409 -0.476,0.739 -1.186,1.189 -2.048,1.38 -1.297,0.294 -2.241,-0.163 -2.76,-1.41 -0.431,-1.033 -0.571,-2.143 -0.608,-3.251 -0.023,-0.689 -0.234,-1.232 -0.624,-1.788 -1.267,-1.812 -1.91,-3.84 -1.89,-6.089 0.01,-1.287 0.327,-2.487 0.835,-3.647 1.365,-3.112 3.527,-5.573 6.142,-7.632 3.996,-3.144 8.546,-4.745 13.579,-4.964 3.26,-0.143 6.136,0.857 8.604,3.022 0.693,0.608 1.395,1.053 2.336,1.168 0.877,0.103 1.717,0.454 2.498,0.902 1.236,0.703 1.994,1.75 2.321,3.162 0.391,1.686 0.176,3.308 -0.406,4.891 -0.703,1.914 -1.823,3.572 -3.171,5.065 -3.731,4.125 -8.187,7.085 -13.462,8.735 -1.565,0.489 -3.17,0.754 -5.539,0.699 z m -2.388,-7.231 c 0.108,0.084 0.21,0.219 0.339,0.252 2.032,0.518 4.103,0.682 6.16,0.3 3.181,-0.589 6.159,-1.775 8.905,-3.531 1.131,-0.725 2.172,-1.56 3.055,-2.598 0.624,-0.734 1.098,-1.553 1.313,-2.503 0.468,-2.055 -0.884,-3.871 -2.94,-3.989 -0.809,-0.047 -1.566,0.15 -2.311,0.425 -1.541,0.568 -2.94,1.418 -4.287,2.349 -3.481,2.413 -6.62,5.24 -9.553,8.306 -0.268,0.282 -0.595,0.537 -0.681,0.989 z m 4.515,-13.141 c -0.646,-0.146 -1.099,0.108 -1.547,0.23 -2.461,0.668 -4.752,1.698 -6.658,3.479 -0.732,0.684 -1.385,1.444 -1.765,2.394 -0.293,0.737 -0.527,1.5 -0.019,2.399 1.508,-1.637 3.01,-3.159 4.643,-4.539 1.668,-1.408 3.476,-2.629 5.346,-3.963 z"
id="path14260"
inkscape:connector-curvature="0"
style="fill:#08ee59"/><path
d="m 152.209,85.045 c 0,1.688 0,3.956 0,6.224 -0.003,1.211 -0.077,2.418 -0.308,3.611 -0.076,0.395 -0.172,0.786 -0.303,1.165 -0.322,0.933 -0.929,1.505 -1.929,1.637 -0.842,0.108 -1.667,0.112 -2.504,-0.028 -1.055,-0.178 -1.816,-0.748 -2.338,-1.673 -0.498,-0.885 -0.749,-1.857 -0.937,-2.853 -0.345,-1.836 -0.452,-3.706 -0.471,-5.564 -0.055,-5.343 0.077,-10.687 0.524,-16.011 0.153,-1.807 0.413,-3.604 0.851,-5.365 0.216,-0.882 0.477,-1.751 0.921,-2.547 0.942,-1.707 2.703,-1.783 3.802,-0.163 0.426,0.627 0.684,1.339 0.902,2.065 0.442,1.499 0.675,3.043 0.862,4.595 0.576,4.758 0.672,9.546 0.928,14.907 z"
id="path14262"
inkscape:connector-curvature="0"
style="fill:#08ee59"/></g></svg>
