<svg height="201.160298" viewBox="0 0 1331.6166 539.05518" width="497.115987" xmlns="http://www.w3.org/2000/svg"><path d="m928.89012 165.80111.008.42829c5.49322-.0968 12.23797 4.22448 19.19805 11.79885 6.9601 7.57437 14.13838 18.3543 20.62725 30.99714 12.97774 25.28566 23.09911 58.02606 23.48649 87.50647.14935 12.84502-3.5909 29.25743-10.83757 42.45058-7.24702 13.19377-17.55077 23.1266-30.9304 23.29965-6.01632.0803-13.57337-5.53111-21.51874-14.13177-7.94538-8.60066-16.39978-20.12524-24.22836-31.66425-7.82856-11.53901-15.33254-23.0923-21.20264-31.7649-2.93508-4.33631-5.60953-8.25098-7.72391-10.79626-1.05719-1.27264-1.99785-2.279-2.82675-2.9803-.82887-.70131-1.53933-1.13387-2.2574-1.127-.85767.008-1.58966.53284-2.13885 1.35398-.54917.82113-.97143 1.9573-1.3244 3.38096-.70598 2.84733-1.1175 7.14758-1.38966 11.93903-.54431 9.5829-.51572 22.31952-1.0022 35.05311-.48647 12.7336-1.49201 25.46586-4.07603 34.98009-1.292 4.75711-2.98209 8.70559-5.16126 11.4416-2.17916 2.73603-4.80916 4.26506-8.12042 4.29678l-.002.002c-9.20503.13767-14.86803-3.92747-18.38365-11.16135-3.51563-7.23389-4.79098-17.67221-4.91417-30.07739v-.002c-.18571-12.46122 2.67494-44.2393 8.56519-72.62864 2.94514-14.19466 6.64973-27.55132 11.0895-37.22222 2.21988-4.83544 4.62536-8.74736 7.18149-11.37449s5.22613-3.96076 8.06112-3.7698h.002c2.74661.17957 6.11973 1.87808 9.87578 4.76652 3.75604 2.88843 8.09673 6.95004 12.438 11.78306 8.68253 9.66605 18.17687 22.41361 27.1485 35.05903 8.97161 12.64542 17.5211 25.18895 24.13555 34.45902 3.30722 4.63506 6.15425 8.44957 8.38926 11.06266 1.11752 1.30655 2.07913 2.31297 2.89 2.98031.40543.33366.77293.48405 1.12279.64433.34985.16028 1.00325.24129 1.34943.13816l.004-.002.006-.002c1.18563-.39521 1.77114-1.24258 2.42349-2.47002.65234-1.22744 1.09223-2.74587 1.39754-4.37572.61065-3.25967.47641-6.9705.45023-9.60605-.12971-13.06175-7.11465-36.19074-14.07607-58.56199-3.48068-11.18562-6.9581-22.17032-9.5753-31.5695-2.6172-9.3992-4.36659-17.23315-4.41405-22.01281-.0313-3.16308.21856-6.23886 1.14058-8.46525.92199-2.2264 2.41097-3.60171 5.11974-3.62768z" fill="#2c2d5c"/><path d="m1115.605 190.00182v.004c-1.5981-.0115-5.8434.0676-7.482.25692-6.1707.9447-11.6973 1.46668-16.6449 2.18088-20.5875 2.97182-31.1516 4.06927-36.3877 4.29972-6.2763.80585-17.2834 1.7246-26.3128 2.82245-5.8526.97739-14.6882 2.18788-20.3065 6.10545-1.639 1.40663-2.4836 2.95441-2.4659 4.7043.033 3.39586 1.742 6.27894 4.3494 8.78192 2.61 2.50541 5.4191 4.43119 8.9927 6.14694 3.2859 1.57766 5.065 1.7275 7.9203 2.74246 1.4268.50719 5.1621 1.62291 6.0807 2.10548.796.41812 1.4586 1.02498 1.6051 1.78481v.008c.2202 1.07178-.019 4.41535-.329 6.40933-.3105 1.99068-.8111 4.3268-1.3868 6.6896-1.1499 4.71952-2.5907 9.52657-3.399 11.85325v.004.006c-.4844 1.48265-2.0949 2.44806-4.2441 3.52872-2.134 1.07278-4.8049 2.16649-7.4526 3.52872-2.6446 1.36068-5.2335 2.95537-7.2517 5.05467s-3.4577 4.7223-3.7475 8.0423v.01c-.056.74942.248 1.55116.6759 2.48548s1.0073 1.97801 1.6089 3.04799c1.1957 2.12627 2.3687 4.35953 1.9029 6.54167l.012-.0214-.012.0409v.006.0117l-.01.0428v-.0175c-1.5413 5.80542-4.6261 14.65903-7.318 23.30167-2.6945 8.65077-4.97945 17.09568-4.9261 21.90027v.004.002.002c.0748 7.55916 3.0123 19.80004 9.7782 29.9173 6.7636 10.11402 17.3034 18.11384 32.6882 17.39059 24.5378-.9863 47.7237-10.15899 64.8545-19.84494 8.5659-4.84324 15.6168-9.81508 20.5612-13.94556 2.4722-2.06529 4.3189-3.92175 5.6593-5.4381.6772-.76615 1.1805-1.46947 1.5253-2.02811.1722-.27929.3054-.52277.4011-.72401.095-.20128.16-.31549.1869-.54499v-.004-.004c.4446-4.31086-2.6158-9.06673-7.0179-12.73883-4.4048-3.67429-10.0031-6.41639-14.5979-6.37189-2.2914.0222-6.9941.80679-13.357 1.92883-6.362 1.12183-14.0022 2.57816-21.4592 3.9355-7.4568 1.35732-14.5309 3.01637-20.1717 3.74419-2.4567.31696-5.1318.89645-6.9658.94018-.9172.0218-2.1868-.004-2.8062-.0877-.6489-.0873-1.24-.26238-1.6138-.5883l-.023-.0222c-.6037-.55497-.9402-1.80005-1.1016-3.00656-.1605-1.1951-.078-2.68664.024-4.39097.2007-3.40811.8738-7.64654 1.866-11.8513.9921-4.20482 2.3027-8.3707 3.7905-11.64109 1.5168-3.13168 4.2072-7.31709 6.5385-7.84986 1.9845-.41139 6.3526-.22668 9.0011-.23037 5.5244-.008 10.9948.0798 17.0337-.0672 12.0762-.29406 24.1741-.38621 27.4369-.62088 4.747-.31525 8.0205-2.14274 10.1189-4.70237 2.1012-2.56303 3.0344-5.8864 3.0075-9.21402-.027-3.32875-1.0159-6.64827-2.7172-9.16923-1.6973-2.51527-4.0868-4.22525-6.942-4.43182l-.01-.002h-.02c-2.9851-.24847-13.8035-.0688-24.2352-.50208-5.2174-.21667-10.5583-.19764-14.5026-.67015-2.8377-.25622-5.5865-.20186-7.6707-1.94883-.7545-1.30675-.3844-2.45196-.2299-4.99153.1714-2.115.6237-5.40668 1.0681-7.93698 4.7281-16.12299 3.9655-13.00902 9.7182-14.0716 6.6454-.72727 23.5891-1.5601 31.5418-2.10848 10.2443-.70314 19.7519.47492 29.2128-1.06115 1.3239-.10666 2.5475-.4418 3.8293-.65738 7.0232-1.91559 11.7331-4.77182 13.3468-10.70797.073-1.13264-.1195-2.91163-.4326-3.72815-.4757-1.21898-.9825-2.65005-2.0842-4.19632-2.2031-3.0922-5.5832-6.63296-9.8444-9.8855-7.448-5.6849-17.569-10.17966-28.8237-10.28181v-.002c0-.00003-.01.00004-.014 0-.01-.00005-.014-.003-.02-.004z" fill="#2c2d5c"/><path d="m1210.0036 185.14497c-.8711.11673-1.7799.53738-2.7041 1.31491-9.3718 7.95001-32.416 34.70474-46.6023 66.42379-7.2454 16.20022-11.8058 32.32227-11.5079 49.18919.028 11.25078 3.1815 23.88657 9.6909 37.04038-4.8906 16.61673-13.4991 44.86602-19.9954 69.47172-8.2076 31.08727-14.5203 63.24993-13.8701 87.51714.415 13.98401 8.8674 26.9801 18.6667 35.67662 6.6862 5.4819 15.4754 7.89218 19.3819 7.14315 2.1403-.53446 4.0626-5.43586 5.457-12.86977 2.0939-11.16443 4.1057-27.27467 8.3115-39.80699 9.4371-29.84526 25.5264-87.9974 30.9191-111.889 2.3731.20246 4.6491.21306 7.2505.18757 37.5832-.84934 75.9743-25.634 99.2264-59.72611 10.8321-15.88209 17.2019-33.65751 17.3889-50.94175-.6297-46.06205-22.6522-59.14977-34.1116-63.16482-3.6993-1.2975-7.1564-.75245-10.6522.21688-7.5224 2.21368-15.7798 7.04172-24.2644 13.72553-16.8703 13.28963-29.4339 26.78538-44.0233 42.76309-5.4621 5.9819-10.7025 12.07286-15.6617 18.07473-6.6983 8.10661-12.8832 15.75703-18.4089 23.05694 0 0-4.269-2.23514-4.2691-10.87883-.034-2.4773.246-5.58948 1.3131-9.26888 1.6653-5.74276 4.5394-12.68998 8.2138-20.02658 6.2955-13.43123 14.3474-28.00885 20.05-38.34554 2.4639-4.46599 4.3208-8.14649 5.3671-10.49197 5.7627-10.64586 1.3621-25.2662-5.1659-24.3914zm84.5297 45.18779c11.9919-.0868 17.2303 10.54675 17.6294 25.02834.287 10.41441-1.3829 20.57804-6.7681 30.37397-6.2756 11.41591-13.5657 20.16546-22.5587 26.96262-7.6919 5.81372-15.3907 10.71257-23.6568 14.22571-9.0017 3.82571-17.707 6.63081-30.331 6.57068-1.518-.0178-8.036-.57031-8.8859-1.23873l3.4895-7.11578c1.2964-2.64287 3.1325-5.71579 5.9083-10.60139 9.2701-15.73433 18.9154-32.2539 31.5775-51.31103 12.1596-16.81946 24.7536-32.94178 33.5958-32.89439z" fill="#2c2d5c"/><path d="m141.38125.05051062c-6.85551-.05910851-13.45595-.10974741-19.66707.11332114-26.479681 1.02957424-50.238755 3.48551984-68.522169 6.73674674-9.142168 1.6256963-17.393573 3.6045595-23.312894 5.6562885-9.897104 2.857776-25.2410453 14.67597-29.19777985 27.984461-1.81881345 9.610257-.0617667 11.923905 6.06268115 14.35857 3.3100277 1.289033 9.0006367 1.28717 13.1061767 1.197687l.01954-.002h.01954c4.108337-.04086 8.139038-.395252 10.523236-1.076551 1.192099-.34065 1.941936-1.077347 2.207808-1.328593.400548-.70759.1821-1.112034-.373178-1.783831-.580998-.499837-1.794359-1.278658-3.272636-1.904968-1.289499-.546328-3.555114-1.478031-5.14439-2.897504-1.589277-1.419474-2.426416-3.344972-2.452035-6.023605-.02409-2.517985 1.912351-4.400615 3.620416-5.55469 1.708062-1.154073 4.815294-2.44344 7.223246-3.174946 4.815903-1.463013 10.042946-2.43062 17.009894-3.245283 13.904732-1.342459 27.022106-1.924007 40.416573-2.078857 94.856631-1.272195 199.396821 30.892499 278.084231 76.753583 78.32674 45.65087 133.17452 107.10265 133.86939 162.14888.5712 44.51414-28.91493 72.46022-65.07369 88.67771-36.15299 16.21491-77.9598 21.54573-109.13607 21.8573-22.21255.33267-46.73255-2.02789-67.12715-5.80673l-2.59075-.47869-.1231-2.63178c-.94332-30.07034-3.11357-84.65628-4.15185-121.02498l-.0957-3.33516 3.3371-.084c7.0772-.17504 13.94416-.48064 19.65146-.48064h.006c25.88426 0 56.73978 4.62187 71.74205 8.64171 10.47527 2.80684 20.01629 5.66695 26.70862 8.75894 3.34617 1.54601 6.09007 3.10771 8.1982 4.84546 2.10814 1.73776 3.88154 4.23525 3.92326 7.12556.15212 5.74837-5.70227 11.17169-8.95237 14.24524-1.73671 1.69596-3.53694 3.43256-4.79466 4.95683-2.48214 2.57023-2.72788 4.89693-.60372 5.58009.94397.46833 1.95542.62332 4.40779.88898 7.66551.46007 13.44477 1.13587 17.88325.85382 4.43222-.49164 9.15491-5.42014 13.03975-9.03443 3.29115-3.21061 6.04008-6.11301 8.32715-10.51542 4.93525-8.54811 4.87447-19.86078-.63695-29.40684-4.41058-8.965-12.76767-16.7613-28.15834-25.12799-14.27961-7.10392-35.10345-12.96132-61.45524-16.57809-18.12509-2.48766-39.81967-3.2176-65.02875-3.75328-3.03228-.005-6.06468-.009-9.09695-.0137l-.13676-3.21597c-.71859-16.85484-.9485-33.89957-6.11739-55.15028-2.07562-8.53338-4.54564-15.99817-7.49678-20.96246-2.94874-4.96023-6.04283-7.08857-9.37635-7.05326-.95702.016-1.8919.22579-3.10461 1.48489-1.21446 1.26092-2.41979 3.5245-3.63605 6.32255-2.43252 5.5961-4.45707 13.79669-6.00016 23.03154-3.08617 18.46969-4.37046 41.33604-4.88843 57.3405l-.0898 2.92876-2.69645.44356c-34.05553 5.58586-64.93476 15.43834-88.25568 27.20489-11.66047 5.88328-21.208018 12.35085-27.556578 18.70189-6.348568 6.35106-9.241536 12.78691-9.241536 17.61167v.008.006c.04233 4.42636 2.140718 11.35357 7.897313 20.03634 5.756594 8.68278 14.239751 19.11563 25.311641 29.5143 22.14379 20.79733 54.24244 43.08439 93.75957 59.78081l1.88934.79911.13286 2.0476c.82171 12.62074 1.12486 24.08646 6.06268 32.66189 3.30781 5.17895 8.93378 10.09957 19.4463 9.93709h.01.01c7.43043-.0739 12.82204-3.34987 15.86692-7.27209 4.12012-6.11843 5.36473-14.067 5.29678-21.59158l3.62237.88702c25.52851 6.25065 54.99726 9.92977 84.27772 9.53461 54.92245-.66718 103.49473-14.60321 145.34609-42.7885 39.4622-29.07764 57.85022-64.79707 57.24671-102.51851-.64979-54.48456-55.21652-121.10717-139.4207-175.55434-76.09296-49.202375-170.62648-86.0342324-268.57894-88.21464938zm69.24704 245.55128938-.0176 4.23392c-.0367 30.50668-.0233 73.55251.3341 102.85457l-.0137 4.92165c-1.74904-.30794-3.49889-.74762-5.24794-1.19768-33.8285-11.6984-61.90513-26.88278-82.09921-40.84446-10.1877-7.04351-18.16491-13.76478-23.816983-19.67295-5.652061-5.90816-9.194945-11.28641-9.300144-16.46674-.145293-7.1547 5.126787-11.29971 12.002267-15.14986 6.8755-3.85011 15.807-6.5497 26.80826-9.05006 21.74012-4.94105 49.58734-7.82185 76.85324-9.50725z" fill="#2c2d5c"/><path d="m744.06215 194.18716c13.12115-.14265 31.31444-.36779 46.21197 1.6704 7.44877 1.01909 14.07334 2.60976 18.79971 5.02477 4.72636 2.415 7.51773 5.57976 7.5596 9.87106.0351 3.59762-2.14023 6.52219-6.13487 9.00577s-9.78149 4.46417-16.75216 6.06077c-13.94133 3.1932-46.87189 4.96942-65.56003 6.39406-18.68814 1.42463-23.56857 2.96101-37.20094 4.80942-7.03303 1.1049-12.90335 2.56382-17.06163 4.36794-2.07914.90207-3.73401 1.91548-4.8892 3.09053-1.15422 1.17404-1.80442 2.5328-1.80816 4.03533 0 .00064.00001.001 0 .002v.002c-.006 1.00003.61058 1.87457 1.61351 2.58998 1.0042.71633 2.41982 1.32369 4.19827 1.87022 3.55689 1.09308 8.56831 1.93079 14.52359 2.63462 11.91057 1.40765 27.58582 2.16763 42.70662 3.3128 20.16358 1.53625 41.7887 3.602 58.38246 11.28924 16.59375 7.68723 28.07747 20.9019 28.36915 45.01176.29162 19.68378-16.09496 58.62281-84.43538 59.60048-34.65678.49087-58.39828-8.08039-73.28761-18.62074-14.88934-10.54034-21.10684-23.29773-21.17815-30.60764v-.002c-.21656-14.38039 6.51988-23.50998 15.75563-29.165 9.23457-5.6543 20.9908-7.77835 30.66655-7.94068 9.20878-.0898 28.7925 1.48459 46.03876 4.92194 8.62314 1.71867 16.66844 3.90507 22.53086 6.56325 2.93118 1.32908 5.3143 2.77778 6.94648 4.31857 1.6322 1.54081 2.50389 3.14739 2.52052 4.85211.0367 3.76496-3.52167 7.69949-9.41836 10.71303-5.89581 3.0131-14.05604 5.08592-22.94541 5.24789-8.93805.10887-20.01389-3.7746-30.42326-7.69042-10.40844-3.91548-20.12061-7.87189-26.63373-7.78548h-.002c-12.95565.12726-18.74282 8.71153-18.69071 14.04606.0247 2.52448.38764 6.55553 4.96567 9.64141 4.57801 3.08588 13.14602 5.57933 30.18263 5.31387 8.2623-.0808 32.40671-2.70586 54.43788-7.87683 11.01617-2.58565 21.61709-5.95402 29.38863-9.98272 3.88578-2.01435 6.99254-4.21771 9.23845-6.64473 2.24593-2.427 3.53351-5.09949 3.50538-7.9853v-.006-.004c-.0431-1.35352-.71202-2.66605-1.84708-3.917s-2.74374-2.45616-4.74518-3.62793c-4.00291-2.34353-9.5842-4.54703-16.09237-6.52831-13.01576-3.96239-29.73763-7.02811-44.83006-8.37333h-.002c-18.60355-1.6838-41.81845-.10351-60.38523-2.7704-9.2837-1.3335-17.29219-3.73009-23.07324-8.07067-5.78105-4.34059-9.27608-10.5982-9.38721-19.85462-.15954-13.75015 5.8728-24.31506 15.36831-32.36378 9.49552-8.04871 22.3647-13.74598 35.98526-17.62441 27.23868-7.75616 57.05741-8.64385 66.88797-8.81954z" fill="#2c2d5c"/><path d="m588.34588 194.72481c-19.15805.4-18.77418 79.39367-19.04649 108.0048-.65193 65.1296 8.98416 72.65298 26.15775 72.48593 15.34768-.14932 20.56333-2.08224 18.71564-56.59607-3.42168-103.50902-10.7543-124.04128-25.8269-123.89466" fill="#2c2d5c"/><g fill="#41caff"><path d="m626.96653 28.447226c-7.34895.321495-15.55429 1.11815-21.53168 2.729477-4.09365.983953-8.21879 2.232246-14.43142 3.936933-7.58183 2.300302-15.0671 5.339868-21.94101 8.880079-10.25184 5.279903-19.29028 11.994254-27.33617 19.811662-9.20734 8.393428-17.9291 21.578953-20.87083 36.862593-2.94112 13.18654-1.11169 22.15808 2.25432 29.77415 5.20942 10.7942 11.01145 15.46747 11.01145 15.46747-.50323 3.05895-.62658 6.86563-.49626 10.08959.25397 7.38817 1.95718 13.7782 7.56443 18.68899 3.89511 3.38085 7.98868 3.10783 12.17865.16217 3.63263-2.67384 7.71817-7.47573 10.6469-11.549 7.86941 2.13972 22.52735 2.89751 22.52735 2.89751 6.07473.0542 15.73497-.30461 25.18965-2.01634 19.17757-4.39721 33.87189-12.20379 52.08411-24.21946 8.50522-5.80741 17.04994-14.44407 24.04021-23.28944 8.71529-10.11993 14.85541-24.996843 15.667-40.037544.40342-13.486479-5.53333-19.916301-10.51225-24.248771-5.36258-4.531642-14.51512-8.547319-28.51047-10.091444-1.72272-.31394-4.30926-.330194-4.30926-.330194s-1.9665-2.405133-3.33355-3.620415c-7.62063-6.89355-15.32963-8.699341-17.87632-9.057876-4.17731-.649191-7.87646-.838521-12.01485-.84014zm-23.88797 30.273701c-7.8316 4.783363-14.45992 9.891956-20.22261 15.116322-10.42149 9.522885-18.2641 19.190732-24.96883 29.056551-3.06204 4.5057-6.22794 9.39388-8.49765 13.87348-1.0853-.93451-2.76509-2.55262-3.63386-3.81378-4.37906-5.36998-2.71334-12.25858-.67756-17.502346 1.99251-4.222535 4.36121-7.847351 6.93374-11.13453 8.81918-11.842707 19.18085-21.160989 35.65317-24.411061 3.52429-.792064 6.10169-1.013609 9.31128-1.20764 1.86204-.06601 4.30622-.07015 6.10232.02301zm55.25618 10.084257 1.47712.01368c8.92869.05933 16.40005 3.972023 17.90737 11.922166 1.11487 6.283635-.46664 12.160003-4.22626 17.529609-10.96738 17.464891-31.98794 28.241101-64.74981 35.027961-11.26615 1.87518-23.09083 2.89543-31.35801-.33984 1.54664-4.02801 3.26436-7.87979 7.07947-13.87416 3.36343-4.51558 6.71544-8.90469 10.25139-12.97526 14.74062-17.085522 28.73117-27.38175 40.60277-32.630633 7.16882-2.847976 15.05554-4.627106 23.01596-4.67352z"/><path d="m644.8527 406.13488c-2.80166.0296-5.00596.76525-6.55781 2.27195-1.10603 1.22029-2.2483 2.67715-3.53681 5.09589-3.82983 7.18919-8.73577 21.51907-16.03104 50.02932l-.0312.12309-.12114.0469c-2.26539.88327-4.13994 1.62649-5.50779 2.16677-1.36786.54029-2.19911.86894-2.47548.95347l.0195-.006c-4.63386 1.81034-6.82591 7.037-5.00567 11.5783v.002c1.32025 3.33991 4.41278 5.37123 7.8133 5.57618l.29697.0176-.0684.29111c-1.02462 4.31775-2.13865 8.81674-3.20425 13.63371v.002c-1.12301 4.81203 2.21194 10.20165 7.80939 10.84171 4.83769.55498 8.77867-2.68374 9.72998-6.83444 1.86906-8.08169 3.87184-16.57707 6.01579-24.84663l.0332-.12505.11918-.0449c9.79973-3.76838 22.11929-8.32902 32.24769-11.68772l.19928-.0664.0996.18365c5.91152 10.92888 12.1507 22.72771 17.83441 33.842v.002c2.26833 4.40785 7.63537 6.2053 12.04135 3.90567l.002-.002h.002c4.40663-2.21037 6.19752-7.61607 3.97601-12.02181-6.70498-12.84843-12.43143-23.82239-17.45731-33.19333l-.0664-.12309.0703-.11918c1.14542-1.96676 1.48674-4.32909.88703-6.7426-1.00934-3.86899-4.62377-6.39743-8.38381-6.68986l-.13091-.0117-.0645-.11137c-10.71224-18.16733-17.15539-27.68889-21.4763-32.6404-2.16046-2.47576-3.78772-3.80446-5.14049-4.5094-1.35278-.70496-2.79525-.79979-3.93766-.78739zm1.95259 24.96582.27549.43961c3.01567 4.78534 6.714 11.14432 10.84757 18.31504l.15239.26572-.29111.0977c-5.88664 1.9486-12.15756 4.18548-18.23494 6.47103l-.46111.17193.13287-.47282c2.71282-9.79796 5.19307-18.44457 7.4069-24.79779z"/><path d="m465.67314 415.77327c7.69436-.63479 13.07285 1.47523 16.68165 4.39085 3.60881 2.91561 5.44733 6.65526 6.00407 9.25474 1.06311 4.87016-1.97917 9.66455-6.7934 10.719-4.55067.96436-9.03166-1.65183-10.44509-5.88651l-.0312-.0922-.0859-.0471c-.47356-.25984-1.58077-.62221-3.81384-.42397h-.002c-10.04143.83941-25.08685 4.90843-52.83109 28.46298-4.55184 3.87381-7.19602 7.0521-8.63782 9.4942-1.44178 2.4421-1.70395 4.14082-1.37938 5.11906v.002c.58731 1.72325 2.77507 3.37939 5.58986 4.69901s6.275 2.27451 9.46036 2.42016c6.71164.28686 23.24783-.37946 39.47483-1.58203 8.1135-.6013 16.14647-1.33574 22.8264-2.15519 6.67992-.81944 11.99389-1.71691 14.73175-2.66749 4.67768-1.63552 9.78271.83952 11.42394 5.48022h-.002c1.64282 4.73276-.86205 9.83517-5.53906 11.42563-6.58277 2.28405-22.30349 4.14048-38.63274 5.41741-16.32925 1.27695-33.30021 1.98954-42.48762 2.03938-6.01345.0327-13.34594-1.47139-19.7296-4.64995s-11.80944-8.02273-14.07917-14.66036c-1.83228-5.42073-1.45685-10.97243 1.11757-16.6703 2.57443-5.69791 7.35683-11.53543 14.33709-17.46134 31.6176-26.88929 50.18175-31.55186 62.84243-32.6281z"/><path d="m576.08118 407.07857c4.89745-.2316 9.10568 3.50312 9.36463 8.44439l1.29732 25.25693.31458-.10941c.51614-.17818.99512-.22662 1.41064-.27745l.0117-.002c4.8464-.80975 9.85315 2.42952 10.28878 7.39323.22289 2.9202-.46026 5.33765-2.19023 7.21152-1.7308 1.87478-4.5354 3.21642-8.59092 3.8959l-.22077.0371 2.03782 39.32439c.25894 4.94125-3.53444 9.11918-8.47759 9.39589-.13133.00097-.22274.002-.40053.004-4.76523.052-8.74811-3.59436-9.00708-8.4014v-.002l-1.82877-35.25655-.3048.0918c-7.99034 2.37537-17.39564 5.22334-26.66368 8.11614l-.17779.0547.16802 22.74238c.0359 4.89664-3.94051 8.99222-8.88203 9.04615-4.98849.0544-8.97311-3.95068-9.00903-8.84881l-.12895-17.40457-.32043.10159c-.91298.28449-1.82535.56827-2.6435.80498l-.008.002-.008.004c-.87779.31764-1.76233.41518-2.56731.42398-3.8748.0422-7.4046-2.36063-8.59092-6.2229v-.002-.002c-1.50491-4.75068 1.12446-9.71353 5.83605-11.23638 1.69245-.52281 4.476-1.42067 7.94419-2.51065l.17586-.0566-.25009-33.99635c-.0366-4.99058 3.93749-8.99219 8.88203-9.04615 4.98997-.0544 8.97279 3.90371 9.00903 8.84882l.21101 28.65657.32042-.0976c8.62891-2.61107 17.89512-5.45739 25.88217-7.78595l.18951-.0547-1.50444-29.14698c-.25844-4.8935 3.5369-9.11888 8.43071-9.39589z"/><path d="m781.67697 401.72903c4.92553.55472 8.49836 5.04823 7.87191 10.01721v.002c-.10074.81707-.28287 3.66136-.50603 7.76249-.22317 4.10114-.48549 9.43781-.73854 15.16159-.50613 11.44757-.97484 24.44295-1.01989 32.21838v.002c.002 7.90471.007 15.11316-.91244 20.89408-.91942 5.78091-2.75547 10.10472-6.39093 12.34418-3.40284 2.08896-7.48135 2.24781-11.38486.32629-4.2803-2.08468-9.68889-8.51586-32.24768-38.26151l-.002-.002c-2.74515-3.66187-5.8626-7.78057-8.88594-11.76195l-.44937-.59201v.74245c-.01 19.35406.68564 45.60982 1.00621 50.33413v.006.004c.21889 2.04754-.35368 4.36692-1.62362 6.23072-1.26961 1.86331-3.22239 3.27186-5.78524 3.55398-5.1381.52396-8.70751-2.09168-10.04064-5.84385-.0003-.00085-.002-.001-.002-.002-.0497-.17908-.12162-.40467-.22469-1.26803-.10452-.87541-.23267-2.37584-.37122-5.01738-.27712-5.28307-.59442-15.1367-.85382-33.74626-.27492-20.33285-.2207-31.19282.72877-37.26702.47473-3.03711 1.14586-4.88555 2.13552-6.09785.86837-1.06374 2.45369-2.01747 3.87246-2.57904h.002l.002-.002c3.37739-.9747 6.44397-.90274 9.34314 1.23677 2.89916 2.13949 5.80335 5.79845 9.31382 10.21452v.002c4.50467 5.5769 10.18031 13.08138 16.18147 20.99958 5.48992 7.23236 12.65334 16.57034 18.23494 23.57471l.44157.55292.004-.70728c.0462-7.6208.51864-22.84849 1.03748-36.70042.25942-6.92596.53045-13.5077.7659-18.6257.23543-5.11799.43751-8.78908.55097-9.82768.5373-4.92304 4.97128-8.38635 9.94881-7.87581z"/><path d="m871.71065 406.53346c4.95576-.52175 9.4297 3.04757 9.93905 7.98914l.49821-.0254-.49821.0273c.28305 2.48031 6.74077 60.74063 7.28381 71.76941.17347 4.08668-.81634 6.70664-2.0984 8.44047-1.28102 1.73242-2.86233 2.58605-3.92716 3.09484-.00058.00027-.001-.00027-.002 0-.00066.00031-.001.002-.002.002-3.90861 1.78964-8.1927 1.13314-13.46763-1.81704-5.27622-2.95091-11.50559-8.20027-19.18645-15.51914l-.002-.002-1.33445-1.2856c-3.99973-3.85302-11.08458-11.01737-17.62144-17.86176-2.34809-2.48091-5.30615-5.61759-8.02394-8.46745l-.465-.4865.0351.6721c.59469 11.87213 1.90226 27.3474 3.05735 41.93849.40823 6.17182-3.23871 9.90257-8.93479 9.98372-4.63997.0253-8.57983-3.44382-9.00122-8.1629v-.004c-.0003-.004-1.25198-15.92621-2.27423-31.89794-1.02481-16.57763-1.963-26.52267-1.38277-32.44467.29011-2.961.90037-4.94274 1.92646-6.33427 1.02454-1.38941 2.70446-2.06676 4.757-2.70442 1.37861-.36917 3.3788-.23574 4.19289-.0176 1.54779.41472 3.34698 1.4387 5.72857 3.27068 4.7632 3.66394 11.81006 10.66396 23.6431 23.18394v.002c6.1294 6.43819 12.02883 12.09805 15.71256 15.58948v-.002l1.3325 1.28561c1.9832 1.9327 4.88523 4.6425 7.83284 7.30726l.47672.42984-.0605-.6389c-1.52883-16.34668-4.33099-42.24419-5.99235-57.2936v-.002c-.59915-4.98916 2.95083-9.45201 7.85824-10.01915z"/><path d="m969.77059 412.09622c3.08036.54971 5.74752 2.70235 6.88328 5.82367 1.65177 4.69825-.77736 9.81201-5.48631 11.4966h-.002c-.38183.13771-1.31977.30468-2.62397.46394-1.30419.15925-2.99032.31996-4.93924.47568-3.89782.31143-8.84948.60764-13.92482.86523-10.14826.51505-20.79828.87197-24.52426.86914-1.30002-.0393-4.11525-.0697-6.66055-.01l-.26963.006.0254.26818c.45076 4.78614.64474 6.87279 1.5318 14.46624l.0254.23099.2325-.01c15.10007-.63436 34.10929-2.03499 42.63024-3.56081l-.004.002c3.91722-.63639 8.55666 3.26907 8.68275 8.22753v.004.004c.20698 3.83205-2.47986 7.78763-7.39519 8.75996h-.002c-12.69684 2.5496-28.06444 3.38374-41.63183 3.96016l-.27549.0117.0391.27407c.48675 3.49181 1.61565 12.33883 2.05541 14.6325l.0371.18596.18756.0156c8.42777.74335 23.83116-1.2342 45.69187-5.54374 2.5026-.49505 4.80583-.78758 6.76606-.43456 1.96022.35301 3.58192 1.32535 4.81224 3.42763 2.45864 4.33665 1.36757 10.51876-2.68649 13.26425-4.53831 3.07946-11.81549 4.20109-20.45056 4.78227-8.63508.58116-18.62457.63564-28.60578 1.65803-9.55337.96799-16.79356-.77295-19.76282-4.13824-1.26301-1.436-2.54915-5.30669-3.67511-10.43953-1.12597-5.13283-2.12925-11.54654-2.98543-18.16787l-.002-.008-.002-.008c-.1455-.74403-.32837-1.5087-.3341-2.30011-.001-.13853-.003-.22933-.004-.41305v-.0156l-.002-.0137c-1.03068-8.37012-1.85438-16.83524-2.42078-23.24181-.2832-3.20329-.50248-5.89202-.65061-7.79686-.074-.95242-.13011-1.7088-.16803-2.2355-.019-.26336-.0334-.4707-.043-.61467-.01-.14397-.0139-.2538-.0137-.22903-.0313-4.25117 1.89305-7.09512 3.46019-8.63273h.002v-.002c2.22691-2.20367 4.9376-3.33453 8.50885-3.90725 3.57124-.57271 7.99343-.57671 13.57899-.51482 11.39061.16933 37.78546-1.5812 41.19811-1.92622l.01-.002.01-.002c1.07704-.19628 2.15012-.19107 3.1769-.008z"/><path d="m1005.4726 406.67023c4.8773-.0264 9.032 3.83533 9.1263 8.74526v.004.004c.028.58399.1291 4.51414.2657 10.18523.1365 5.67108.3093 13.10177.4846 20.74948.3506 15.29544.7091 31.45782.8029 36.13772l.01.34192.3245-.1094c.2431-.0825.5483-.13016.9573-.17781h.01l.01-.002c11.1884-1.98702 39.3064-6.46938 66.7793-3.77672 4.9256.46474 8.5908 4.86444 8.1044 9.77884v.002c-.4418 4.91517-4.8281 8.55314-9.7535 8.04385-25.6255-2.48197-51.3423 1.60999-61.5842 3.50318-5.7789 1.05509-11.3642.35141-15.5054-2.32894-4.1418-2.68065-6.8689-7.33075-6.94001-14.28824-.0346-3.38926-1.24992-45.76614-1.88739-67.65663-.14007-4.95471 3.8887-9.12892 8.8039-9.15556z"/></g></svg>