<?xml version="1.0" encoding="UTF-8" standalone="no"?><svg version="1.1" viewBox="0 0 1000 270.78363" xmlns="http://www.w3.org/2000/svg" xmlns:svg="http://www.w3.org/2000/svg"><path d="M849.2218 159.2996c.0807 5.65205 1.0243 10.6133 2.8309 14.8837 2.8272 6.68268 7.7155 11.12362 12.0957 13.72594 3.9418 2.34187 7.4236 3.14605 9.4564 3.5899 2.6525.57914 5.4648.86874 8.4371.86874 12.0781 0 24.9809-5.46125 28.0946-15.40026 1.1447-3.6537.8098-7.75054-.4316-11.07036-.9887-2.64412-2.5261-4.68535-4.5394-6.41285-1.9763-1.69567-4.7192-3.21333-8.2633-4.52949-3.0102-1.11786-6.3022-1.87203-10.7861-2.90317l-23.0872-5.66241c-6.9978-1.61592-13.4893-3.89293-19.1454-6.75493-4.8708-2.4646-9.0795-5.36304-12.5007-8.64673-6.3555-6.10009-10.0219-13.48315-10.9145-22.14915-.1459-1.41601-.2188-2.86627-.2188-4.35078 0-16.9478 8.6106-28.26774 20.6913-35.132 11.0343-6.26971 24.9353-8.80806 38.385-8.80806 12.7946 0 23.7385 2.51117 32.6378 6.47333 8.6767 3.863 16.8865 10.01069 22.4617 18.01299 5.0875 7.30207 8.2864 15.61739 9.1827 26.0221h-33.4566c-1.2098-15.73647-13.7694-26.72643-30.8256-26.72643-7.2698 0-15.7552 1.82122-21.0839 6.65561-3.0513 2.76815-5.1722 6.57654-5.1722 11.464 0 9.6638 7.5025 16.00566 22.5922 19.0256l24.8981 5.88887c20.069 4.416 33.1931 12.74893 39.2875 24.99878 2.6579 5.34228 4.0293 11.42957 4.0293 18.26179 0 9.21081-2.9334 17.51267-8.191 24.235-5.4323 6.94585-12.9016 12.30622-22.4082 16.08114-9.3556 3.77493-19.6921 5.66237-31.0093 5.66237-4.7437 0-10.7365-.34228-17.1103-1.44414-9.1077-1.57453-21.2296-4.94915-32.0069-14.37061-4.0778-3.56486-7.6012-7.77813-10.5357-13.09223-1.636-2.96268-3.0453-6.12876-4.1842-9.63755-1.8584-5.72536-2.827-11.40004-3.1613-18.75871Z" fill="#00e0a5"/><path d="M734.6697 216.60271c-19.8444 0-36.1123-5.43575-47.1425-16.3075-11.0301-10.8718-16.5452-26.34414-16.5452-45.82269V63.26563h31.5039v91.0796c0 11.62674 2.7954 21.11102 8.386 27.60388 5.5906 6.49283 13.2966 9.73926 23.118 9.73926h1.8131c9.6703 0 17.2252-3.24643 22.6647-9.73926 5.4395-6.49286 8.1593-15.55268 8.1593-27.17942V63.26563h31.4825v91.24934c0 5.41329-.4046 10.51389-1.2565 15.29088-2.2135 12.4119-7.3026 22.63895-15.2674 30.48936-11.0301 10.87175-27.2389 16.3075-46.9159 16.3075Z" fill="#00e0a5"/><path d="M578.3424 60.59025c24.3478 0 42.8992 8.89107 55.2585 23.36183 12.0875 14.15247 18.1259 33.20523 18.1259 54.50993 0 15.09967-2.8689 28.53838-8.6068 40.31614-5.7379 11.77776-13.7364 20.87536-24.7592 27.67023-11.0227 6.79487-24.6168 10.38095-40.0184 10.38095-15.4017 0-28.6894-3.49134-39.8632-10.13519-11.0228-6.79487-19.4031-15.95427-25.141-27.73203-5.7378-11.92874-8.6267-25.40043-8.6267-40.5001 0-7.01158.5499-22.46197 7.7024-38.07787 2.9302-6.39724 6.9717-12.82226 12.5436-18.70626 5.6516-5.96821 13.2104-11.70118 23.2732-15.70912 8.276-3.29629 18.213-5.37851 30.1117-5.37851Zm.9059 131.14044c13.275 0 23.1218-5.49 29.7342-14.537 7.0978-9.71112 10.3555-23.10908 10.3555-38.50519 0-22.8224-7.4219-41.25049-22.3188-49.15794-5.0118-2.66028-10.8618-4.11073-17.5444-4.11073h-1.8119c-25.7173 0-40.3585 21.18068-40.3585 53.26867 0 16.30768 3.5152 29.09077 10.4611 38.60358 7.0969 9.51276 16.9871 14.43861 29.6709 14.43861Z" fill="#00e0a5"/><path d="M317.94146 63.26563h46.00181l26.28675 78.82033q7.02492 20.83754 9.74422 43.94004h3.39919q2.7193-22.64952 9.74423-43.94004l26.06014-78.82033h46.2285V213.8849h-30.819v-78.36731q0-10.41878 1.5862-22.19653 1.5863-12.00424 5.4386-29.21788l-3.6257-.90598-13.1434 41.90161-28.77943 88.78609h-29.00609l-28.55285-88.78609-13.14337-41.67511-3.62573.90598q3.85235 19.93157 5.43859 30.80334 1.58629 10.64527 1.58629 20.38457v78.36731h-30.81895Z" fill="#00e0a5"/><path d="M305.30536 213.8849h-32.63394l-13.59754-36.91868H202.1911l-13.14431 36.91868h-32.40734l53.48348-150.61927h38.97947Zm-96.76881-59.34171h43.7386l-15.4105-42.5811q-2.26623-7.02135-3.62598-12.91022-1.3598-5.88888-2.03961-14.0427h-3.39937q-.22666 8.15382-1.58641 14.0427-1.1331 5.88887-3.17271 12.91022Z" fill="#00e0a5"/><path d="M170.6222 63.26563v25.36746H94.74632v36.69221h67.72205v24.46149H94.74632v64.09811H63.26349V63.26563Z" fill="#00e0a5"/><path d="M94.86659 0v31.56154H31.59694v63.2626H0V0Z"/><path d="M905.2395 270.78363v-31.56154h63.1636v-63.17771H1000v94.73925Z"/></svg>