<?xml version="1.0" encoding="UTF-8" standalone="no"?>
<svg
   height="204.03548"
   viewBox="0 0 472.9382 204.03548"
   width="472.9382"
   version="1.1"
   id="svg1036"
   sodipodi:docname="World Channel 2023.svg"
   inkscape:version="1.2 (dc2aedaf03, 2022-05-15)"
   xmlns:inkscape="http://www.inkscape.org/namespaces/inkscape"
   xmlns:sodipodi="http://sodipodi.sourceforge.net/DTD/sodipodi-0.dtd"
   xmlns="http://www.w3.org/2000/svg"
   xmlns:svg="http://www.w3.org/2000/svg">
  <defs
     id="defs1040" />
  <sodipodi:namedview
     id="namedview1038"
     pagecolor="#ffffff"
     bordercolor="#000000"
     borderopacity="0.25"
     inkscape:showpageshadow="2"
     inkscape:pageopacity="0.0"
     inkscape:pagecheckerboard="0"
     inkscape:deskcolor="#d1d1d1"
     showgrid="false"
     inkscape:zoom="2.8284271"
     inkscape:cx="234.75945"
     inkscape:cy="95.105862"
     inkscape:window-width="1920"
     inkscape:window-height="1009"
     inkscape:window-x="-8"
     inkscape:window-y="-8"
     inkscape:window-maximized="1"
     inkscape:current-layer="svg1036" />
  <g
     stroke-width="17.5957"
     id="g1066"
     transform="matrix(2.2143682,0,0,2.2152845,-563.82786,-284.73887)"
     style="mix-blend-mode:normal;stroke:none;stroke-linecap:butt;stroke-linejoin:miter;stroke-miterlimit:10;stroke-dasharray:none;stroke-dashoffset:0">
    <path
       d="m 342.40566,155.10799 c -5.06613,0.37043 -9.351,2.31742 -12.83985,5.86718 -3.85825,3.96336 -5.78711,8.75085 -5.78711,14.35938 v 0.11133 c 0,5.60853 1.91128,10.37676 5.73242,14.30273 3.28935,3.37957 7.35282,5.29527 12.18165,5.76563 -7.62232,14.91007 -23.12302,25.12304 -41.01954,25.12304 -25.43299,0 -46.05078,-20.61739 -46.05078,-46.05273 0,-25.43299 20.61779,-46.05078 46.05078,-46.05078 18.47184,0 34.39442,10.87878 41.73243,26.57422 z"
       fill="#ffcc00"
       fill-rule="evenodd"
       id="path1054" />
    <path
       d="m 282.99821,195.24497 -13.52244,-39.54014 h 7.40117 l 9.29321,29.10828 9.57144,-29.22045 h 5.78739 l 9.57144,29.22045 9.29321,-29.10828 h 7.17858 l -13.52245,39.54014 h -5.95433 l -9.57144,-28.21091 -9.57144,28.21091 z"
       fill="#000000"
       fill-rule="nonzero"
       id="path1056" />
    <path
       d="m 344.09088,195.63757 c -5.89868,0 -10.7586,-1.96299 -14.57976,-5.88896 -3.82115,-3.92597 -5.73173,-8.69322 -5.73173,-14.30175 v -0.11217 c 0,-5.60853 1.92913,-10.39447 5.78738,-14.35784 3.89535,-3.96336 8.77382,-5.94505 14.63541,-5.94505 5.89868,0 10.7586,1.96299 14.57975,5.88896 3.82115,3.92597 5.73173,8.69322 5.73173,14.30175 v 0.11217 c 0,5.60853 -1.94768,10.39448 -5.84303,14.35784 -3.85825,3.96336 -8.71816,5.94504 -14.57975,5.94504 z m -9.4045,-10.43187 c 2.5227,2.69209 5.69464,4.03815 9.5158,4.03815 3.82116,0 6.95599,-1.32736 9.4045,-3.98206 2.4856,-2.65471 3.7284,-5.92635 3.7284,-9.81493 v -0.11217 c 0,-3.88858 -1.26135,-7.17892 -3.78405,-9.87101 -2.48561,-2.69209 -5.63899,-4.03814 -9.46015,-4.03814 -3.82115,0 -6.97454,1.32735 -9.46014,3.98206 -2.44851,2.65471 -3.67277,5.92635 -3.67277,9.81493 v 0.11217 c 0,3.88859 1.2428,7.17892 3.72841,9.87102 z"
       fill="#000000"
       fill-rule="nonzero"
       id="path1058" />
    <path
       d="m 366.98693,194.96454 v -39.25972 h 17.36215 c 4.82283,0 8.56979,1.30865 11.24088,3.92597 2.15172,2.2808 3.22759,5.10377 3.22759,8.46889 v 0.11217 c 0,3.10339 -0.83471,5.66462 -2.50415,7.68369 -1.66944,1.98168 -3.9139,3.38381 -6.7334,4.2064 l 10.51745,14.86261 h -8.1246 l -9.57144,-13.68481 h -8.56979 v 13.68481 z m 6.84469,-19.79811 h 10.01664 c 2.44851,0 4.39619,-0.57955 5.84303,-1.73864 1.44684,-1.19648 2.17027,-2.80427 2.17027,-4.82334 v -0.11217 c 0,-2.13125 -0.70487,-3.73902 -2.11463,-4.82333 -1.37264,-1.1217 -3.35742,-1.68256 -5.95432,-1.68256 h -9.96099 z"
       fill="#000000"
       fill-rule="nonzero"
       id="path1060" />
    <path
       d="m 402.67487,194.96454 v -39.25972 h 6.84469 v 32.97816 h 20.47845 v 6.28155 z"
       fill="#000000"
       fill-rule="nonzero"
       id="path1062" />
    <path
       d="m 432.97435,194.96454 v -39.25972 h 14.52411 c 6.04708,0 10.99974,1.86951 14.858,5.60853 3.89535,3.70163 5.84303,8.33802 5.84303,13.90916 v 0.11217 c 0,5.60853 -1.94768,10.28231 -5.84303,14.02133 -3.85826,3.73902 -8.81092,5.60853 -14.858,5.60853 z m 14.52411,-32.97816 h -7.67941 v 26.69661 h 7.67941 c 4.04375,0 7.30842,-1.23387 9.79403,-3.70163 2.48561,-2.46776 3.72842,-5.64593 3.72842,-9.5345 v -0.11217 c 0,-3.88858 -1.24281,-7.08544 -3.72842,-9.59059 -2.48561,-2.50514 -5.75028,-3.75771 -9.79403,-3.75771 z"
       fill="#000000"
       fill-rule="nonzero"
       id="path1064" />
  </g>
</svg>
