<svg width="178" height="43" viewBox="0 0 178 43" fill="none" xmlns="http://www.w3.org/2000/svg">
<path d="M174.3 0H71.3126C69.7414 0 68.4558 1.28556 68.4558 2.85679V39.9951C68.4558 41.5663 69.7414 42.8519 71.3126 42.8519H174.3C175.871 42.8519 177.157 41.5663 177.157 39.9951V2.85679C177.157 1.28556 175.871 0 174.3 0Z" fill="url(#paint0_linear)"/>
<path opacity="0.35" d="M70.4913 21.2474C70.4913 21.2474 70.5984 21.2474 70.777 21.2474C79.2402 20.9617 175.014 17.605 175.014 17.605C176.085 17.5693 177.157 16.7836 177.157 15.4267V2.85679C177.157 1.28556 175.871 0 174.3 0H71.3126C69.7414 0 68.4558 1.28556 68.4558 2.85679V23.4971C68.4558 23.2471 68.4915 21.4616 70.4913 21.2474Z" fill="url(#paint1_linear)"/>
<path fill-rule="evenodd" clip-rule="evenodd" d="M27.0681 29.6749C27.0681 31.639 26.2825 32.7817 22.4258 32.7817C21.9259 32.7817 21.4616 32.746 21.0331 32.6745V6.53492C21.0331 4.53516 21.7116 2.46399 25.604 2.46399C26.1039 2.46399 26.6039 2.4997 27.0681 2.60683V29.6749ZM42.8161 39.7808C43.3161 40.0308 44.3517 40.3522 45.6729 40.3879C47.9226 40.4236 49.1368 39.5666 50.0295 37.5668L62.0281 10.8558C61.5281 10.6058 60.4211 10.2845 59.5284 10.2845C57.9928 10.2487 55.9217 10.5701 54.6004 13.7126L50.708 22.8543L43.1018 10.463C42.6019 10.3202 41.3877 10.1059 40.5307 10.1059C37.8168 10.1059 36.3169 11.1058 34.7814 12.7841L27.3538 20.8546L33.3173 30.2106C34.4243 31.9246 35.8527 32.7817 38.2096 32.7817C39.7451 32.7817 41.0306 32.4246 41.6377 32.1389L34.46 21.3902L39.5308 15.998L47.8869 29.0678L42.8161 39.7808ZM11.82 32.6031C16.7122 32.0675 19.1048 29.3892 19.1048 25.7111C19.1048 22.5329 17.1407 19.9618 12.6413 19.2119L8.21327 18.3906C6.78488 18.1406 5.89213 17.8192 5.89213 16.9979C5.89213 16.2123 6.82059 15.6052 9.07031 15.6052C10.3593 15.6052 11.5428 15.6756 12.5536 15.7356C13.307 15.7804 13.9645 15.8195 14.4982 15.8195C16.1409 15.8195 17.8192 15.141 17.8192 11.9271C17.8192 11.4986 17.7478 11.0701 17.6764 10.6773C15.2481 10.3559 10.8201 9.92735 7.21339 10.3202C2.42827 10.8201 0 13.7126 0 17.1407C0 19.9618 2.07117 22.6401 5.92784 23.3543L10.5701 24.247C12.2842 24.6041 13.1412 24.9612 13.1412 25.8897C13.1412 26.5682 12.4627 27.3181 10.2844 27.3181C9.2408 27.3181 8.01236 27.2403 6.83769 27.1658C5.76155 27.0977 4.73054 27.0324 3.92809 27.0324C2.28543 27.0324 0.571358 27.7466 0.571358 30.9605C0.571358 31.3533 0.642778 31.8532 0.714198 32.246C3.14247 32.5317 8.28469 32.9959 11.82 32.6031Z" fill="#1C1C1C"/>
<path opacity="0.25" fill-rule="evenodd" clip-rule="evenodd" d="M25.604 2.46399C21.7116 2.46399 21.0688 4.53516 21.0688 6.53492V24.4613C21.0688 23.7471 21.6402 22.9972 22.5329 22.9615C22.8403 22.9444 23.4173 22.9273 23.9943 22.9102C24.6237 22.8916 25.2531 22.873 25.5326 22.8543C26.1396 22.8186 27.0324 22.4258 27.0681 21.3188V2.60683C26.6039 2.53541 26.1039 2.46399 25.604 2.46399ZM43.1018 10.463L50.5295 22.5329C50.2438 22.1401 49.8867 21.9616 49.5653 21.9616C49.4534 21.9616 48.1826 22.0103 46.9683 22.0568L46.9658 22.0569L46.9646 22.057L46.9626 22.057C45.8538 22.0995 44.7939 22.1401 44.7088 22.1401C44.4945 22.1401 43.566 22.1401 42.959 21.3188L39.5308 15.9623L34.46 21.3545L35.7813 23.3543C35.4242 22.89 34.8528 22.4972 33.9244 22.5329C33.7895 22.5329 32.9223 22.5648 32.0067 22.5984L32.0067 22.5984C30.9831 22.636 29.8991 22.6758 29.7106 22.6758C28.7107 22.7115 28.2108 22.1401 27.9608 21.783L27.3538 20.8546L34.7814 12.7841C36.3169 11.1058 37.8168 10.1059 40.5307 10.1059C41.3877 10.1059 42.6019 10.3202 43.1018 10.463ZM57.627 20.6557L57.6357 20.6403L62.0281 10.8558C61.5281 10.5701 60.4211 10.2845 59.5641 10.2845C58.0285 10.2487 55.9574 10.5701 54.6361 13.7126L50.8675 22.6008C50.8562 22.6256 50.8509 22.6401 50.8509 22.6401L50.8675 22.6008C50.9338 22.4556 51.2052 21.9564 51.815 21.9259C51.815 21.9259 55.5289 21.783 55.8145 21.783C57.0049 21.748 57.4744 20.9236 57.627 20.6557ZM8.17756 18.3192L12.6056 19.1405C17.1407 19.9618 19.1048 22.5329 19.1405 25.7111C19.1405 25.9343 19.1405 26.129 19.1151 26.3206C19.1707 24.6696 18.0733 23.1067 16.1766 23.1757C15.8257 23.1903 14.9659 23.2169 14.036 23.2457C12.6948 23.2872 11.2078 23.3332 10.8915 23.3543C9.17744 23.4257 6.92772 23.2828 5.92784 23.1043C4.7137 22.89 3.53528 22.5686 2.35685 21.8187C0.785617 20.6046 0 18.8905 0 17.1407C0 13.7126 2.42827 10.8201 7.17769 10.2487C10.8201 9.85593 15.2124 10.3202 17.6407 10.6058C17.7478 11.0344 17.7835 11.4272 17.7835 11.8557C17.7835 15.0696 16.1052 15.7481 14.4625 15.7481C13.9263 15.7481 13.2587 15.7086 12.4962 15.6636C11.4815 15.6037 10.2988 15.5338 9.0346 15.5338C6.78488 15.5338 5.85642 16.1766 5.85642 16.9265C5.85642 17.7478 6.74917 18.0692 8.17756 18.3192ZM19.1151 26.3206C19.112 26.3437 19.1086 26.3666 19.1048 26.3896V26.4253V26.4967C19.1097 26.438 19.1131 26.3792 19.1151 26.3206Z" fill="url(#paint2_linear)"/>
<path d="M95.3453 19.7833V30.6748C95.3453 31.4604 94.8811 31.996 93.4884 31.996C92.9171 31.996 92.2386 31.9246 91.8815 31.8175V20.2475C91.8815 16.2123 89.9174 14.2839 86.9178 14.2839C84.5967 14.2839 82.097 15.8909 81.0614 17.7835V30.7105C81.0614 31.4961 80.5972 32.0318 79.2045 32.0318C78.6331 32.0318 77.9546 31.9603 77.5975 31.8532V11.57C77.9189 11.4986 78.5974 11.3914 79.2045 11.3914C80.5972 11.3914 81.0614 11.8914 81.0614 12.7127V14.4268C82.5255 12.6056 84.7752 11.1772 87.7391 11.1772C91.8815 11.1772 95.3453 13.784 95.3453 19.7833Z" fill="white"/>
<path fill-rule="evenodd" clip-rule="evenodd" d="M102.987 22.9257H118.628C118.735 22.2115 118.771 21.4973 118.7 20.8903C118.7 15.998 115.629 11.1772 109.415 11.1772C103.916 11.1772 99.4163 15.5338 99.4163 21.6045C99.4163 27.9251 103.666 32.1746 109.986 32.1746C112.915 32.1746 115.664 31.2818 117.485 30.4962C117.664 28.6393 117.021 27.8537 116.057 27.8537C115.765 27.8537 115.474 27.9489 114.891 28.1394C114.76 28.1822 114.614 28.2298 114.45 28.2822C113.2 28.7107 111.843 29.0321 110.129 29.0321C106.13 29.0321 103.451 26.8538 102.987 22.9257ZM115.414 20.2475H102.987C103.523 16.248 106.344 14.1054 109.486 14.1054C113.057 14.1054 115.271 16.7836 115.414 20.2475Z" fill="white"/>
<path d="M150.481 11.8914L145.125 30.4962C144.804 31.6747 143.911 31.9603 142.625 31.9603C141.911 31.9603 141.197 31.8175 140.59 31.6747L135.483 15.3195L130.698 30.4962C130.305 31.6747 129.377 31.9603 128.27 31.9603C127.556 31.9603 126.77 31.8175 126.163 31.6747L120.449 11.8914C120.949 11.6414 121.878 11.3915 122.628 11.3915C123.592 11.3915 124.092 11.6771 124.342 12.6056L128.377 28.1394H128.413L133.412 11.8914C133.983 11.57 134.769 11.3915 135.555 11.3915C136.876 11.3915 137.59 11.6771 137.947 12.8913L142.59 28.1037H142.625L146.553 12.5699C146.803 11.6414 147.303 11.3557 148.267 11.3557C149.124 11.3915 149.981 11.6414 150.481 11.8914Z" fill="white"/>
<path d="M152.767 30.7819C152.517 29.0321 153.053 28.1037 154.088 28.1037C155.052 28.1037 157.409 29.1393 160.694 29.1393C164.158 29.1393 165.444 27.9251 165.444 26.3182C165.444 25.1755 164.944 24.1756 161.837 23.3185L158.266 22.3544C154.302 21.3188 152.767 19.319 152.767 16.8908C152.767 13.8554 155.159 11.1772 160.587 11.1772C163.016 11.1772 166.051 11.7128 167.908 12.427C168.229 14.1411 167.694 15.0696 166.658 15.0696C165.73 15.0696 163.623 14.1768 160.659 14.1768C157.445 14.1768 156.266 15.2838 156.266 16.7122C156.266 17.7121 156.731 18.6405 159.587 19.4619L163.23 20.4618C167.301 21.6045 168.943 23.4971 168.943 26.1753C168.943 29.3178 166.515 32.1389 160.623 32.1389C157.98 32.1746 154.731 31.5318 152.767 30.7819Z" fill="white"/>
<defs>
<linearGradient id="paint0_linear" x1="68.4417" y1="0" x2="68.4417" y2="42.8519" gradientUnits="userSpaceOnUse">
<stop offset="0.4" stop-color="#E90E10"/>
<stop offset="1" stop-color="#BC0000"/>
</linearGradient>
<linearGradient id="paint1_linear" x1="172.398" y1="20.026" x2="172.363" y2="-1.31573" gradientUnits="userSpaceOnUse">
<stop offset="0" stop-color="white"/>
<stop offset="1" stop-color="white" stop-opacity="0.25"/>
</linearGradient>
<linearGradient id="paint2_linear" x1="49.8329" y1="22.4598" x2="49.7576" y2="8.10538" gradientUnits="userSpaceOnUse">
<stop offset="0" stop-color="white"/>
<stop offset="1" stop-color="white" stop-opacity="0.25"/>
</linearGradient>
</defs>
</svg>
