<svg width="138" height="138" viewBox="0 0 138 138" fill="none" xmlns="http://www.w3.org/2000/svg">
<g clip-path="url(#clip0_15704_52980)">
<rect width="138" height="138" fill="#010028"/>
<rect width="138" height="138" transform="matrix(-1 0 0 1 138 0)" fill="url(#paint0_radial_15704_52980)"/>
<rect x="-40" y="-40" width="178" height="178" fill="url(#paint1_radial_15704_52980)"/>
<rect x="-142.061" y="135.269" width="399" height="138" transform="rotate(-15 -142.061 135.269)" fill="url(#paint2_linear_15704_52980)"/>
<rect x="-142.061" y="170.269" width="399" height="138" transform="rotate(-15 -142.061 170.269)" fill="url(#paint3_linear_15704_52980)"/>
<mask id="path-6-inside-1_15704_52980" fill="white">
<path d="M37.1014 64.0375C36.8412 64.0375 36.581 63.96 36.3609 63.7973C35.8054 63.3845 35.6803 62.5939 36.0932 62.036C38.5876 58.6508 40.4115 54.8704 41.5249 50.7997C41.7075 50.1267 42.4006 49.7313 43.0711 49.924C43.7441 50.1066 44.1369 50.7997 43.9443 51.4727C42.7458 55.8311 40.7868 59.8918 38.1072 63.5371C37.867 63.8549 37.4942 64.0375 37.1014 64.0375Z"/>
<path d="M29.5255 61.7382C29.2578 61.7382 28.9876 61.6532 28.7574 61.478C28.2095 61.0552 28.1144 60.2671 28.5373 59.7191C32.5404 54.5426 34.7396 48.0876 34.7396 41.545V40.1964C34.7396 37.2716 37.0514 34.8472 39.9036 34.7897C41.3147 34.7722 42.6683 35.3001 43.6866 36.3009C44.7024 37.3016 45.2603 38.6377 45.2603 40.0638V41.7451C45.2603 43.2363 45.1652 44.7374 44.9901 46.2211C44.905 46.9116 44.282 47.4045 43.589 47.317C42.8985 47.2294 42.4081 46.6039 42.4956 45.9134C42.6683 44.5373 42.7458 43.1312 42.7458 41.7451V40.0538C42.7458 39.3032 42.4581 38.6102 41.9202 38.0898C41.3923 37.5718 40.6917 37.2716 39.9411 37.3016C38.455 37.3292 37.244 38.6302 37.244 40.1889V41.5349C37.244 48.6355 34.8547 55.6385 30.5138 61.2478C30.2661 61.5656 29.9008 61.7382 29.5255 61.7382Z"/>
<path d="M41.7551 64.0375C41.5449 64.0375 41.3247 63.98 41.1221 63.8649C40.5266 63.5196 40.3164 62.749 40.6717 62.1435L40.987 61.5931C44.5973 55.3783 46.4988 48.2877 46.4988 41.1021V40.0538C46.4988 36.531 43.6365 33.6063 40.1238 33.5387C39.4333 33.5312 38.8753 32.9532 38.8953 32.2602C38.9053 31.5772 39.4708 31.0292 40.1538 31.0292C40.1613 31.0292 40.1713 31.0292 40.1813 31.0292C45.0576 31.1243 49.0132 35.175 49.0132 40.0538V41.1021C49.0132 48.7306 46.9891 56.2539 43.1662 62.8541L42.8509 63.402C42.6107 63.8073 42.1879 64.0375 41.7551 64.0375Z"/>
<path d="M26.2705 59.6316C26.0128 59.6316 25.7526 59.554 25.5224 59.3814C24.967 58.9686 24.8519 58.1779 25.2647 57.62L26.2054 56.3515C29.2853 52.2033 30.9842 47.0668 30.9842 41.8902V40.2264C30.9842 37.2641 32.4253 34.4544 34.8347 32.7131C35.4001 32.3077 36.1782 32.4328 36.591 33.0008C36.9939 33.5687 36.8688 34.3468 36.3033 34.7622C34.5469 36.0306 33.5011 38.0797 33.5011 40.2364V41.9002C33.5011 47.6047 31.6272 53.2816 28.2295 57.8602L27.2888 59.1312C27.0386 59.4589 26.6558 59.6316 26.2705 59.6316Z"/>
<path d="M46.4687 63.4596C46.2861 63.4596 46.0959 63.422 45.9233 63.3345C45.2978 63.0267 45.0401 62.2786 45.3379 61.6532L45.9233 60.4497C48.7555 54.6001 50.2417 48.0675 50.2417 41.5725V40.0538C50.2417 34.502 45.7407 29.8934 40.1913 29.7883C37.4842 29.7207 34.9022 30.779 32.9232 32.7206C30.9091 34.7121 29.7457 37.4643 29.7457 40.284V41.5925C29.7457 42.9485 29.6231 44.3146 29.3904 45.6532C29.2678 46.3362 28.6148 46.7865 27.9318 46.6715C27.2513 46.5464 26.7984 45.8933 26.916 45.2103C27.1262 44.0169 27.2312 42.7959 27.2312 41.5825V40.274C27.2312 36.7812 28.6624 33.3761 31.1668 30.9217C33.6337 28.4973 36.8512 27.1987 40.2389 27.2663C47.1317 27.4014 52.7486 33.1359 52.7486 40.0538V41.5725C52.7486 48.4528 51.1649 55.3607 48.1701 61.5456L47.5821 62.749C47.3819 63.2019 46.9316 63.4596 46.4687 63.4596Z"/>
<path d="M23.6034 56.8219C23.3632 56.8219 23.113 56.7543 22.9029 56.6117C22.3249 56.2264 22.1723 55.4358 22.5651 54.8604L23.7285 53.129C24.6017 51.828 25.3298 50.4244 25.8877 48.9532C26.1379 48.2977 26.856 47.98 27.509 48.2302C28.152 48.4804 28.4797 49.2034 28.2295 49.8564C27.6065 51.5027 26.7909 53.079 25.8001 54.5326L24.6392 56.2639C24.399 56.6292 24.0062 56.8219 23.6034 56.8219Z"/>
<path d="M51.5002 61.3529C51.3275 61.3529 51.1549 61.3154 50.9823 61.2378C50.3468 60.9501 50.069 60.2095 50.3468 59.574L50.4919 59.2663C52.8162 54.0897 53.9871 48.5779 53.9871 42.901V40.0538C53.9871 36.9464 52.9963 34.0016 51.1149 31.5396C50.6945 30.9892 50.7996 30.2011 51.3475 29.7783C51.893 29.3554 52.6811 29.4605 53.1039 30.0084C55.3206 32.9132 56.4915 36.3884 56.4915 40.0438V42.901C56.4915 48.9332 55.2431 54.7928 52.7761 60.2946L52.6335 60.6023C52.4409 61.0752 51.9805 61.3529 51.5002 61.3529Z"/>
<path d="M21.0014 53.8871C20.7612 53.8871 20.511 53.8195 20.3008 53.6769C19.7254 53.2916 19.5803 52.5035 19.9656 51.9256L20.6937 50.8372C22.5276 48.1251 23.4983 44.9601 23.4983 41.6801V40.304C23.4983 31.1919 30.774 23.6585 39.721 23.5134C43.3588 23.4558 46.814 24.5542 49.7338 26.6984C50.2892 27.1137 50.4143 27.8918 50.0015 28.4597C49.5887 29.0177 48.8131 29.1428 48.2451 28.7299C45.7682 26.911 42.8309 25.9678 39.751 26.0353C32.1651 26.1604 25.9928 32.5679 25.9928 40.3115V41.6876C25.9928 45.4705 24.8794 49.1259 22.7678 52.2533L22.0372 53.3292C21.797 53.6869 21.4042 53.8871 21.0014 53.8871Z"/>
<path d="M57.107 57.0721C56.9719 57.0721 56.8368 57.0521 56.7042 57.0045C56.0512 56.7844 55.6959 56.0613 55.9161 55.4083C57.1245 51.858 57.74 48.1451 57.74 44.3922V40.0538C57.74 35.2625 55.8686 30.769 52.4609 27.4014C49.1183 24.0913 44.6949 22.2724 39.9987 22.2724C39.9236 22.2724 39.8461 22.2724 39.7585 22.2724C38.2623 22.2924 36.7837 22.5051 35.3526 22.8979C34.6821 23.0805 33.989 22.6877 33.8064 22.0222C33.6262 21.3492 34.019 20.6561 34.6821 20.4735C36.3133 20.0231 38.0121 19.7805 39.721 19.7629C45.1827 19.6954 50.3292 21.772 54.2173 25.6125C58.1053 29.4605 60.2445 34.587 60.2445 40.0538V44.3922C60.2445 48.4228 59.5839 52.4059 58.2879 56.2164C58.1153 56.7443 57.6249 57.0721 57.107 57.0721Z"/>
<path d="M18.9473 49.8665C18.7546 49.8665 18.562 49.8289 18.3794 49.7313C17.7564 49.4236 17.5162 48.663 17.8239 48.0375L18.4669 46.749C19.3026 45.0952 19.7429 43.2363 19.7429 41.3798V40.3315C19.7429 32.8181 23.7861 25.9002 30.2936 22.2724C30.8991 21.9371 31.6672 22.1573 32.0025 22.7653C32.3377 23.3708 32.1176 24.1389 31.5121 24.4766C25.8001 27.6616 22.2499 33.7414 22.2499 40.3415V41.3898C22.2499 43.6416 21.7119 45.8833 20.7037 47.8949L20.0607 49.1834C19.8505 49.6062 19.4077 49.8665 18.9473 49.8665Z"/>
<path d="M62.5213 45.8834C62.4913 45.8834 62.4538 45.8834 62.4238 45.8834C61.7332 45.8258 61.2153 45.2279 61.2729 44.5373C61.4355 42.3806 61.493 40.0538 61.493 40.0338C61.493 33.4061 58.4882 27.2288 53.2566 23.1106C52.7087 22.6778 52.6136 21.8896 53.0465 21.3392C53.4768 20.7913 54.2649 20.6962 54.8128 21.129C60.6499 25.7176 64 32.6155 64 40.0538C64 40.1789 63.9425 42.4957 63.7698 44.72C63.7198 45.383 63.1744 45.8834 62.5213 45.8834Z"/>
<path d="M21.3767 28.2296C21.1265 28.2296 20.8763 28.152 20.6561 27.9969C20.0882 27.5941 19.9556 26.8134 20.3484 26.248C24.8419 19.8305 32.1851 16 39.9987 16C43.8192 16 47.477 16.8757 50.8571 18.597C51.4701 18.9148 51.7203 19.6654 51.4051 20.2909C51.0873 20.9063 50.3392 21.1565 49.7138 20.8388C46.6914 19.3001 43.4164 18.512 39.9887 18.512C32.9907 18.512 26.4156 21.9371 22.3925 27.6891C22.1523 28.0369 21.7695 28.2296 21.3767 28.2296Z"/>
<path d="M17.6313 44.6524C17.0833 44.6524 16.5754 44.2871 16.4228 43.7367C16 42.218 16 40.1389 16 40.0538C16 36.5135 16.7481 33.0959 18.2267 29.9134C18.5245 29.2879 19.2625 29.0077 19.898 29.3054C20.521 29.5956 20.7987 30.3462 20.501 30.9792C19.1775 33.8289 18.5045 36.8788 18.5045 40.0538C18.5045 40.5542 18.562 42.0729 18.8422 43.0536C19.0324 43.7292 18.6396 44.4197 17.9765 44.6048C17.8614 44.6324 17.7464 44.6524 17.6313 44.6524Z"/>
<path d="M33.0483 63.4596C32.8006 63.4596 32.5404 63.3845 32.3202 63.2294C31.7523 62.8266 31.6272 62.036 32.0325 61.478C32.713 60.5273 33.356 59.5265 33.9415 58.5157C34.2867 57.9202 35.0548 57.7076 35.6603 58.0528C36.2558 58.4006 36.4659 59.1687 36.1207 59.7767C35.4977 60.8525 34.8046 61.9209 34.0866 62.9417C33.8264 63.2769 33.4436 63.4596 33.0483 63.4596Z"/>
<path d="M37.1089 56.2164C36.9463 56.2164 36.7837 56.1864 36.6211 56.1188C35.9856 55.8511 35.6803 55.1105 35.958 54.4751C39.2706 46.6614 38.7602 40.2364 38.7502 40.1689C38.6927 39.4758 39.2031 38.8704 39.8936 38.8128C40.5841 38.7628 41.1896 39.2632 41.2472 39.9562C41.2772 40.2464 41.8051 47.0768 38.2623 55.4558C38.0597 55.9287 37.5893 56.2164 37.1089 56.2164Z"/>
</mask>
<path d="M37.1014 64.0375C36.8412 64.0375 36.581 63.96 36.3609 63.7973C35.8054 63.3845 35.6803 62.5939 36.0932 62.036C38.5876 58.6508 40.4115 54.8704 41.5249 50.7997C41.7075 50.1267 42.4006 49.7313 43.0711 49.924C43.7441 50.1066 44.1369 50.7997 43.9443 51.4727C42.7458 55.8311 40.7868 59.8918 38.1072 63.5371C37.867 63.8549 37.4942 64.0375 37.1014 64.0375Z" fill="url(#paint4_linear_15704_52980)"/>
<path d="M29.5255 61.7382C29.2578 61.7382 28.9876 61.6532 28.7574 61.478C28.2095 61.0552 28.1144 60.2671 28.5373 59.7191C32.5404 54.5426 34.7396 48.0876 34.7396 41.545V40.1964C34.7396 37.2716 37.0514 34.8472 39.9036 34.7897C41.3147 34.7722 42.6683 35.3001 43.6866 36.3009C44.7024 37.3016 45.2603 38.6377 45.2603 40.0638V41.7451C45.2603 43.2363 45.1652 44.7374 44.9901 46.2211C44.905 46.9116 44.282 47.4045 43.589 47.317C42.8985 47.2294 42.4081 46.6039 42.4956 45.9134C42.6683 44.5373 42.7458 43.1312 42.7458 41.7451V40.0538C42.7458 39.3032 42.4581 38.6102 41.9202 38.0898C41.3923 37.5718 40.6917 37.2716 39.9411 37.3016C38.455 37.3292 37.244 38.6302 37.244 40.1889V41.5349C37.244 48.6355 34.8547 55.6385 30.5138 61.2478C30.2661 61.5656 29.9008 61.7382 29.5255 61.7382Z" fill="url(#paint5_linear_15704_52980)"/>
<path d="M41.7551 64.0375C41.5449 64.0375 41.3247 63.98 41.1221 63.8649C40.5266 63.5196 40.3164 62.749 40.6717 62.1435L40.987 61.5931C44.5973 55.3783 46.4988 48.2877 46.4988 41.1021V40.0538C46.4988 36.531 43.6365 33.6063 40.1238 33.5387C39.4333 33.5312 38.8753 32.9532 38.8953 32.2602C38.9053 31.5772 39.4708 31.0292 40.1538 31.0292C40.1613 31.0292 40.1713 31.0292 40.1813 31.0292C45.0576 31.1243 49.0132 35.175 49.0132 40.0538V41.1021C49.0132 48.7306 46.9891 56.2539 43.1662 62.8541L42.8509 63.402C42.6107 63.8073 42.1879 64.0375 41.7551 64.0375Z" fill="url(#paint6_linear_15704_52980)"/>
<path d="M26.2705 59.6316C26.0128 59.6316 25.7526 59.554 25.5224 59.3814C24.967 58.9686 24.8519 58.1779 25.2647 57.62L26.2054 56.3515C29.2853 52.2033 30.9842 47.0668 30.9842 41.8902V40.2264C30.9842 37.2641 32.4253 34.4544 34.8347 32.7131C35.4001 32.3077 36.1782 32.4328 36.591 33.0008C36.9939 33.5687 36.8688 34.3468 36.3033 34.7622C34.5469 36.0306 33.5011 38.0797 33.5011 40.2364V41.9002C33.5011 47.6047 31.6272 53.2816 28.2295 57.8602L27.2888 59.1312C27.0386 59.4589 26.6558 59.6316 26.2705 59.6316Z" fill="url(#paint7_linear_15704_52980)"/>
<path d="M46.4687 63.4596C46.2861 63.4596 46.0959 63.422 45.9233 63.3345C45.2978 63.0267 45.0401 62.2786 45.3379 61.6532L45.9233 60.4497C48.7555 54.6001 50.2417 48.0675 50.2417 41.5725V40.0538C50.2417 34.502 45.7407 29.8934 40.1913 29.7883C37.4842 29.7207 34.9022 30.779 32.9232 32.7206C30.9091 34.7121 29.7457 37.4643 29.7457 40.284V41.5925C29.7457 42.9485 29.6231 44.3146 29.3904 45.6532C29.2678 46.3362 28.6148 46.7865 27.9318 46.6715C27.2513 46.5464 26.7984 45.8933 26.916 45.2103C27.1262 44.0169 27.2312 42.7959 27.2312 41.5825V40.274C27.2312 36.7812 28.6624 33.3761 31.1668 30.9217C33.6337 28.4973 36.8512 27.1987 40.2389 27.2663C47.1317 27.4014 52.7486 33.1359 52.7486 40.0538V41.5725C52.7486 48.4528 51.1649 55.3607 48.1701 61.5456L47.5821 62.749C47.3819 63.2019 46.9316 63.4596 46.4687 63.4596Z" fill="url(#paint8_linear_15704_52980)"/>
<path d="M23.6034 56.8219C23.3632 56.8219 23.113 56.7543 22.9029 56.6117C22.3249 56.2264 22.1723 55.4358 22.5651 54.8604L23.7285 53.129C24.6017 51.828 25.3298 50.4244 25.8877 48.9532C26.1379 48.2977 26.856 47.98 27.509 48.2302C28.152 48.4804 28.4797 49.2034 28.2295 49.8564C27.6065 51.5027 26.7909 53.079 25.8001 54.5326L24.6392 56.2639C24.399 56.6292 24.0062 56.8219 23.6034 56.8219Z" fill="url(#paint9_linear_15704_52980)"/>
<path d="M51.5002 61.3529C51.3275 61.3529 51.1549 61.3154 50.9823 61.2378C50.3468 60.9501 50.069 60.2095 50.3468 59.574L50.4919 59.2663C52.8162 54.0897 53.9871 48.5779 53.9871 42.901V40.0538C53.9871 36.9464 52.9963 34.0016 51.1149 31.5396C50.6945 30.9892 50.7996 30.2011 51.3475 29.7783C51.893 29.3554 52.6811 29.4605 53.1039 30.0084C55.3206 32.9132 56.4915 36.3884 56.4915 40.0438V42.901C56.4915 48.9332 55.2431 54.7928 52.7761 60.2946L52.6335 60.6023C52.4409 61.0752 51.9805 61.3529 51.5002 61.3529Z" fill="url(#paint10_linear_15704_52980)"/>
<path d="M21.0014 53.8871C20.7612 53.8871 20.511 53.8195 20.3008 53.6769C19.7254 53.2916 19.5803 52.5035 19.9656 51.9256L20.6937 50.8372C22.5276 48.1251 23.4983 44.9601 23.4983 41.6801V40.304C23.4983 31.1919 30.774 23.6585 39.721 23.5134C43.3588 23.4558 46.814 24.5542 49.7338 26.6984C50.2892 27.1137 50.4143 27.8918 50.0015 28.4597C49.5887 29.0177 48.8131 29.1428 48.2451 28.7299C45.7682 26.911 42.8309 25.9678 39.751 26.0353C32.1651 26.1604 25.9928 32.5679 25.9928 40.3115V41.6876C25.9928 45.4705 24.8794 49.1259 22.7678 52.2533L22.0372 53.3292C21.797 53.6869 21.4042 53.8871 21.0014 53.8871Z" fill="url(#paint11_linear_15704_52980)"/>
<path d="M57.107 57.0721C56.9719 57.0721 56.8368 57.0521 56.7042 57.0045C56.0512 56.7844 55.6959 56.0613 55.9161 55.4083C57.1245 51.858 57.74 48.1451 57.74 44.3922V40.0538C57.74 35.2625 55.8686 30.769 52.4609 27.4014C49.1183 24.0913 44.6949 22.2724 39.9987 22.2724C39.9236 22.2724 39.8461 22.2724 39.7585 22.2724C38.2623 22.2924 36.7837 22.5051 35.3526 22.8979C34.6821 23.0805 33.989 22.6877 33.8064 22.0222C33.6262 21.3492 34.019 20.6561 34.6821 20.4735C36.3133 20.0231 38.0121 19.7805 39.721 19.7629C45.1827 19.6954 50.3292 21.772 54.2173 25.6125C58.1053 29.4605 60.2445 34.587 60.2445 40.0538V44.3922C60.2445 48.4228 59.5839 52.4059 58.2879 56.2164C58.1153 56.7443 57.6249 57.0721 57.107 57.0721Z" fill="url(#paint12_linear_15704_52980)"/>
<path d="M18.9473 49.8665C18.7546 49.8665 18.562 49.8289 18.3794 49.7313C17.7564 49.4236 17.5162 48.663 17.8239 48.0375L18.4669 46.749C19.3026 45.0952 19.7429 43.2363 19.7429 41.3798V40.3315C19.7429 32.8181 23.7861 25.9002 30.2936 22.2724C30.8991 21.9371 31.6672 22.1573 32.0025 22.7653C32.3377 23.3708 32.1176 24.1389 31.5121 24.4766C25.8001 27.6616 22.2499 33.7414 22.2499 40.3415V41.3898C22.2499 43.6416 21.7119 45.8833 20.7037 47.8949L20.0607 49.1834C19.8505 49.6062 19.4077 49.8665 18.9473 49.8665Z" fill="url(#paint13_linear_15704_52980)"/>
<path d="M62.5213 45.8834C62.4913 45.8834 62.4538 45.8834 62.4238 45.8834C61.7332 45.8258 61.2153 45.2279 61.2729 44.5373C61.4355 42.3806 61.493 40.0538 61.493 40.0338C61.493 33.4061 58.4882 27.2288 53.2566 23.1106C52.7087 22.6778 52.6136 21.8896 53.0465 21.3392C53.4768 20.7913 54.2649 20.6962 54.8128 21.129C60.6499 25.7176 64 32.6155 64 40.0538C64 40.1789 63.9425 42.4957 63.7698 44.72C63.7198 45.383 63.1744 45.8834 62.5213 45.8834Z" fill="url(#paint14_linear_15704_52980)"/>
<path d="M21.3767 28.2296C21.1265 28.2296 20.8763 28.152 20.6561 27.9969C20.0882 27.5941 19.9556 26.8134 20.3484 26.248C24.8419 19.8305 32.1851 16 39.9987 16C43.8192 16 47.477 16.8757 50.8571 18.597C51.4701 18.9148 51.7203 19.6654 51.4051 20.2909C51.0873 20.9063 50.3392 21.1565 49.7138 20.8388C46.6914 19.3001 43.4164 18.512 39.9887 18.512C32.9907 18.512 26.4156 21.9371 22.3925 27.6891C22.1523 28.0369 21.7695 28.2296 21.3767 28.2296Z" fill="url(#paint15_linear_15704_52980)"/>
<path d="M17.6313 44.6524C17.0833 44.6524 16.5754 44.2871 16.4228 43.7367C16 42.218 16 40.1389 16 40.0538C16 36.5135 16.7481 33.0959 18.2267 29.9134C18.5245 29.2879 19.2625 29.0077 19.898 29.3054C20.521 29.5956 20.7987 30.3462 20.501 30.9792C19.1775 33.8289 18.5045 36.8788 18.5045 40.0538C18.5045 40.5542 18.562 42.0729 18.8422 43.0536C19.0324 43.7292 18.6396 44.4197 17.9765 44.6048C17.8614 44.6324 17.7464 44.6524 17.6313 44.6524Z" fill="url(#paint16_linear_15704_52980)"/>
<path d="M33.0483 63.4596C32.8006 63.4596 32.5404 63.3845 32.3202 63.2294C31.7523 62.8266 31.6272 62.036 32.0325 61.478C32.713 60.5273 33.356 59.5265 33.9415 58.5157C34.2867 57.9202 35.0548 57.7076 35.6603 58.0528C36.2558 58.4006 36.4659 59.1687 36.1207 59.7767C35.4977 60.8525 34.8046 61.9209 34.0866 62.9417C33.8264 63.2769 33.4436 63.4596 33.0483 63.4596Z" fill="url(#paint17_linear_15704_52980)"/>
<path d="M37.1089 56.2164C36.9463 56.2164 36.7837 56.1864 36.6211 56.1188C35.9856 55.8511 35.6803 55.1105 35.958 54.4751C39.2706 46.6614 38.7602 40.2364 38.7502 40.1689C38.6927 39.4758 39.2031 38.8704 39.8936 38.8128C40.5841 38.7628 41.1896 39.2632 41.2472 39.9562C41.2772 40.2464 41.8051 47.0768 38.2623 55.4558C38.0597 55.9287 37.5893 56.2164 37.1089 56.2164Z" fill="url(#paint18_linear_15704_52980)"/>
<path d="M37.1014 64.0375C36.8412 64.0375 36.581 63.96 36.3609 63.7973C35.8054 63.3845 35.6803 62.5939 36.0932 62.036C38.5876 58.6508 40.4115 54.8704 41.5249 50.7997C41.7075 50.1267 42.4006 49.7313 43.0711 49.924C43.7441 50.1066 44.1369 50.7997 43.9443 51.4727C42.7458 55.8311 40.7868 59.8918 38.1072 63.5371C37.867 63.8549 37.4942 64.0375 37.1014 64.0375Z" stroke="url(#paint19_radial_15704_52980)" stroke-width="1.281" mask="url(#path-6-inside-1_15704_52980)"/>
<path d="M29.5255 61.7382C29.2578 61.7382 28.9876 61.6532 28.7574 61.478C28.2095 61.0552 28.1144 60.2671 28.5373 59.7191C32.5404 54.5426 34.7396 48.0876 34.7396 41.545V40.1964C34.7396 37.2716 37.0514 34.8472 39.9036 34.7897C41.3147 34.7722 42.6683 35.3001 43.6866 36.3009C44.7024 37.3016 45.2603 38.6377 45.2603 40.0638V41.7451C45.2603 43.2363 45.1652 44.7374 44.9901 46.2211C44.905 46.9116 44.282 47.4045 43.589 47.317C42.8985 47.2294 42.4081 46.6039 42.4956 45.9134C42.6683 44.5373 42.7458 43.1312 42.7458 41.7451V40.0538C42.7458 39.3032 42.4581 38.6102 41.9202 38.0898C41.3923 37.5718 40.6917 37.2716 39.9411 37.3016C38.455 37.3292 37.244 38.6302 37.244 40.1889V41.5349C37.244 48.6355 34.8547 55.6385 30.5138 61.2478C30.2661 61.5656 29.9008 61.7382 29.5255 61.7382Z" stroke="url(#paint20_radial_15704_52980)" stroke-width="1.281" mask="url(#path-6-inside-1_15704_52980)"/>
<path d="M41.7551 64.0375C41.5449 64.0375 41.3247 63.98 41.1221 63.8649C40.5266 63.5196 40.3164 62.749 40.6717 62.1435L40.987 61.5931C44.5973 55.3783 46.4988 48.2877 46.4988 41.1021V40.0538C46.4988 36.531 43.6365 33.6063 40.1238 33.5387C39.4333 33.5312 38.8753 32.9532 38.8953 32.2602C38.9053 31.5772 39.4708 31.0292 40.1538 31.0292C40.1613 31.0292 40.1713 31.0292 40.1813 31.0292C45.0576 31.1243 49.0132 35.175 49.0132 40.0538V41.1021C49.0132 48.7306 46.9891 56.2539 43.1662 62.8541L42.8509 63.402C42.6107 63.8073 42.1879 64.0375 41.7551 64.0375Z" stroke="url(#paint21_radial_15704_52980)" stroke-width="1.281" mask="url(#path-6-inside-1_15704_52980)"/>
<path d="M26.2705 59.6316C26.0128 59.6316 25.7526 59.554 25.5224 59.3814C24.967 58.9686 24.8519 58.1779 25.2647 57.62L26.2054 56.3515C29.2853 52.2033 30.9842 47.0668 30.9842 41.8902V40.2264C30.9842 37.2641 32.4253 34.4544 34.8347 32.7131C35.4001 32.3077 36.1782 32.4328 36.591 33.0008C36.9939 33.5687 36.8688 34.3468 36.3033 34.7622C34.5469 36.0306 33.5011 38.0797 33.5011 40.2364V41.9002C33.5011 47.6047 31.6272 53.2816 28.2295 57.8602L27.2888 59.1312C27.0386 59.4589 26.6558 59.6316 26.2705 59.6316Z" stroke="url(#paint22_radial_15704_52980)" stroke-width="1.281" mask="url(#path-6-inside-1_15704_52980)"/>
<path d="M46.4687 63.4596C46.2861 63.4596 46.0959 63.422 45.9233 63.3345C45.2978 63.0267 45.0401 62.2786 45.3379 61.6532L45.9233 60.4497C48.7555 54.6001 50.2417 48.0675 50.2417 41.5725V40.0538C50.2417 34.502 45.7407 29.8934 40.1913 29.7883C37.4842 29.7207 34.9022 30.779 32.9232 32.7206C30.9091 34.7121 29.7457 37.4643 29.7457 40.284V41.5925C29.7457 42.9485 29.6231 44.3146 29.3904 45.6532C29.2678 46.3362 28.6148 46.7865 27.9318 46.6715C27.2513 46.5464 26.7984 45.8933 26.916 45.2103C27.1262 44.0169 27.2312 42.7959 27.2312 41.5825V40.274C27.2312 36.7812 28.6624 33.3761 31.1668 30.9217C33.6337 28.4973 36.8512 27.1987 40.2389 27.2663C47.1317 27.4014 52.7486 33.1359 52.7486 40.0538V41.5725C52.7486 48.4528 51.1649 55.3607 48.1701 61.5456L47.5821 62.749C47.3819 63.2019 46.9316 63.4596 46.4687 63.4596Z" stroke="url(#paint23_radial_15704_52980)" stroke-width="1.281" mask="url(#path-6-inside-1_15704_52980)"/>
<path d="M23.6034 56.8219C23.3632 56.8219 23.113 56.7543 22.9029 56.6117C22.3249 56.2264 22.1723 55.4358 22.5651 54.8604L23.7285 53.129C24.6017 51.828 25.3298 50.4244 25.8877 48.9532C26.1379 48.2977 26.856 47.98 27.509 48.2302C28.152 48.4804 28.4797 49.2034 28.2295 49.8564C27.6065 51.5027 26.7909 53.079 25.8001 54.5326L24.6392 56.2639C24.399 56.6292 24.0062 56.8219 23.6034 56.8219Z" stroke="url(#paint24_radial_15704_52980)" stroke-width="1.281" mask="url(#path-6-inside-1_15704_52980)"/>
<path d="M51.5002 61.3529C51.3275 61.3529 51.1549 61.3154 50.9823 61.2378C50.3468 60.9501 50.069 60.2095 50.3468 59.574L50.4919 59.2663C52.8162 54.0897 53.9871 48.5779 53.9871 42.901V40.0538C53.9871 36.9464 52.9963 34.0016 51.1149 31.5396C50.6945 30.9892 50.7996 30.2011 51.3475 29.7783C51.893 29.3554 52.6811 29.4605 53.1039 30.0084C55.3206 32.9132 56.4915 36.3884 56.4915 40.0438V42.901C56.4915 48.9332 55.2431 54.7928 52.7761 60.2946L52.6335 60.6023C52.4409 61.0752 51.9805 61.3529 51.5002 61.3529Z" stroke="url(#paint25_radial_15704_52980)" stroke-width="1.281" mask="url(#path-6-inside-1_15704_52980)"/>
<path d="M21.0014 53.8871C20.7612 53.8871 20.511 53.8195 20.3008 53.6769C19.7254 53.2916 19.5803 52.5035 19.9656 51.9256L20.6937 50.8372C22.5276 48.1251 23.4983 44.9601 23.4983 41.6801V40.304C23.4983 31.1919 30.774 23.6585 39.721 23.5134C43.3588 23.4558 46.814 24.5542 49.7338 26.6984C50.2892 27.1137 50.4143 27.8918 50.0015 28.4597C49.5887 29.0177 48.8131 29.1428 48.2451 28.7299C45.7682 26.911 42.8309 25.9678 39.751 26.0353C32.1651 26.1604 25.9928 32.5679 25.9928 40.3115V41.6876C25.9928 45.4705 24.8794 49.1259 22.7678 52.2533L22.0372 53.3292C21.797 53.6869 21.4042 53.8871 21.0014 53.8871Z" stroke="url(#paint26_radial_15704_52980)" stroke-width="1.281" mask="url(#path-6-inside-1_15704_52980)"/>
<path d="M57.107 57.0721C56.9719 57.0721 56.8368 57.0521 56.7042 57.0045C56.0512 56.7844 55.6959 56.0613 55.9161 55.4083C57.1245 51.858 57.74 48.1451 57.74 44.3922V40.0538C57.74 35.2625 55.8686 30.769 52.4609 27.4014C49.1183 24.0913 44.6949 22.2724 39.9987 22.2724C39.9236 22.2724 39.8461 22.2724 39.7585 22.2724C38.2623 22.2924 36.7837 22.5051 35.3526 22.8979C34.6821 23.0805 33.989 22.6877 33.8064 22.0222C33.6262 21.3492 34.019 20.6561 34.6821 20.4735C36.3133 20.0231 38.0121 19.7805 39.721 19.7629C45.1827 19.6954 50.3292 21.772 54.2173 25.6125C58.1053 29.4605 60.2445 34.587 60.2445 40.0538V44.3922C60.2445 48.4228 59.5839 52.4059 58.2879 56.2164C58.1153 56.7443 57.6249 57.0721 57.107 57.0721Z" stroke="url(#paint27_radial_15704_52980)" stroke-width="1.281" mask="url(#path-6-inside-1_15704_52980)"/>
<path d="M18.9473 49.8665C18.7546 49.8665 18.562 49.8289 18.3794 49.7313C17.7564 49.4236 17.5162 48.663 17.8239 48.0375L18.4669 46.749C19.3026 45.0952 19.7429 43.2363 19.7429 41.3798V40.3315C19.7429 32.8181 23.7861 25.9002 30.2936 22.2724C30.8991 21.9371 31.6672 22.1573 32.0025 22.7653C32.3377 23.3708 32.1176 24.1389 31.5121 24.4766C25.8001 27.6616 22.2499 33.7414 22.2499 40.3415V41.3898C22.2499 43.6416 21.7119 45.8833 20.7037 47.8949L20.0607 49.1834C19.8505 49.6062 19.4077 49.8665 18.9473 49.8665Z" stroke="url(#paint28_radial_15704_52980)" stroke-width="1.281" mask="url(#path-6-inside-1_15704_52980)"/>
<path d="M62.5213 45.8834C62.4913 45.8834 62.4538 45.8834 62.4238 45.8834C61.7332 45.8258 61.2153 45.2279 61.2729 44.5373C61.4355 42.3806 61.493 40.0538 61.493 40.0338C61.493 33.4061 58.4882 27.2288 53.2566 23.1106C52.7087 22.6778 52.6136 21.8896 53.0465 21.3392C53.4768 20.7913 54.2649 20.6962 54.8128 21.129C60.6499 25.7176 64 32.6155 64 40.0538C64 40.1789 63.9425 42.4957 63.7698 44.72C63.7198 45.383 63.1744 45.8834 62.5213 45.8834Z" stroke="url(#paint29_radial_15704_52980)" stroke-width="1.281" mask="url(#path-6-inside-1_15704_52980)"/>
<path d="M21.3767 28.2296C21.1265 28.2296 20.8763 28.152 20.6561 27.9969C20.0882 27.5941 19.9556 26.8134 20.3484 26.248C24.8419 19.8305 32.1851 16 39.9987 16C43.8192 16 47.477 16.8757 50.8571 18.597C51.4701 18.9148 51.7203 19.6654 51.4051 20.2909C51.0873 20.9063 50.3392 21.1565 49.7138 20.8388C46.6914 19.3001 43.4164 18.512 39.9887 18.512C32.9907 18.512 26.4156 21.9371 22.3925 27.6891C22.1523 28.0369 21.7695 28.2296 21.3767 28.2296Z" stroke="url(#paint30_radial_15704_52980)" stroke-width="1.281" mask="url(#path-6-inside-1_15704_52980)"/>
<path d="M17.6313 44.6524C17.0833 44.6524 16.5754 44.2871 16.4228 43.7367C16 42.218 16 40.1389 16 40.0538C16 36.5135 16.7481 33.0959 18.2267 29.9134C18.5245 29.2879 19.2625 29.0077 19.898 29.3054C20.521 29.5956 20.7987 30.3462 20.501 30.9792C19.1775 33.8289 18.5045 36.8788 18.5045 40.0538C18.5045 40.5542 18.562 42.0729 18.8422 43.0536C19.0324 43.7292 18.6396 44.4197 17.9765 44.6048C17.8614 44.6324 17.7464 44.6524 17.6313 44.6524Z" stroke="url(#paint31_radial_15704_52980)" stroke-width="1.281" mask="url(#path-6-inside-1_15704_52980)"/>
<path d="M33.0483 63.4596C32.8006 63.4596 32.5404 63.3845 32.3202 63.2294C31.7523 62.8266 31.6272 62.036 32.0325 61.478C32.713 60.5273 33.356 59.5265 33.9415 58.5157C34.2867 57.9202 35.0548 57.7076 35.6603 58.0528C36.2558 58.4006 36.4659 59.1687 36.1207 59.7767C35.4977 60.8525 34.8046 61.9209 34.0866 62.9417C33.8264 63.2769 33.4436 63.4596 33.0483 63.4596Z" stroke="url(#paint32_radial_15704_52980)" stroke-width="1.281" mask="url(#path-6-inside-1_15704_52980)"/>
<path d="M37.1089 56.2164C36.9463 56.2164 36.7837 56.1864 36.6211 56.1188C35.9856 55.8511 35.6803 55.1105 35.958 54.4751C39.2706 46.6614 38.7602 40.2364 38.7502 40.1689C38.6927 39.4758 39.2031 38.8704 39.8936 38.8128C40.5841 38.7628 41.1896 39.2632 41.2472 39.9562C41.2772 40.2464 41.8051 47.0768 38.2623 55.4558C38.0597 55.9287 37.5893 56.2164 37.1089 56.2164Z" stroke="url(#paint33_radial_15704_52980)" stroke-width="1.281" mask="url(#path-6-inside-1_15704_52980)"/>
<path d="M21.1075 96.3417V107.542L18.202 108.32V104.144C17.7899 104.372 17.3468 104.581 16.8729 104.772C16.3989 104.953 15.9662 105.095 15.5747 105.2C14.3486 105.529 13.411 105.471 12.7619 105.026C12.1231 104.568 11.8037 103.752 11.8037 102.579V98.8347L14.7092 98.0562V101.256C14.7092 101.907 14.8483 102.318 15.1265 102.488C15.4047 102.659 15.8374 102.666 16.4247 102.508C17.0223 102.348 17.6147 102.083 18.202 101.712V97.1203L21.1075 96.3417Z" fill="white"/>
<path d="M23.3266 95.7471L31.8577 93.4612V95.8132L26.2321 97.3206V99.3686L30.5904 98.2008V100.409L26.2321 101.577V103.817L32.074 102.251V104.603L23.3266 106.947V95.7471Z" fill="white"/>
<path d="M32.8075 98.8067C32.8075 97.6334 33.0136 96.5595 33.4257 95.5851C33.8481 94.5972 34.456 93.7623 35.2494 93.0804C36.0427 92.3879 36.9803 91.8966 38.0622 91.6067C39.4531 91.234 40.571 91.2865 41.4159 91.7641C42.2607 92.2417 42.7759 93.069 42.9613 94.246L40.1795 95.2314C40.0661 94.7285 39.8189 94.3734 39.4376 94.1662C39.0667 93.9456 38.6082 93.9084 38.0622 94.0547C37.2688 94.2673 36.6764 94.7461 36.2849 95.491C35.9036 96.2331 35.713 97.0789 35.713 98.0282C35.713 99.0522 35.9397 99.8075 36.393 100.294C36.8464 100.77 37.4543 100.906 38.2167 100.701C38.7937 100.547 39.2625 100.245 39.6231 99.7965C39.994 99.3451 40.2361 98.8269 40.3495 98.2419L43.1468 97.6683C42.9716 99.0593 42.4668 100.224 41.6322 101.162C40.7977 102.1 39.6592 102.763 38.2167 103.149C37.0937 103.45 36.1252 103.475 35.3112 103.224C34.4973 102.973 33.8739 102.473 33.4412 101.725C33.0187 100.963 32.8075 99.9907 32.8075 98.8067Z" fill="white"/>
<path d="M43.7129 90.2846L53.2022 87.742V90.206L49.9103 91.088V99.824L47.0048 100.603V91.8666L43.7129 92.7486V90.2846Z" fill="white"/>
<path d="M64.3343 84.7592V95.9592L61.4288 96.7377V92.2737L57.5341 93.3172V97.7812L54.6286 98.5598V87.3598L57.5341 86.5812V90.8532L61.4288 89.8097V85.5377L64.3343 84.7592Z" fill="white"/>
<path d="M71.3115 86.8096C72.5376 86.4811 73.5421 86.4999 74.3252 86.8661C75.1082 87.2323 75.4998 88.0447 75.4998 89.3034C75.4998 90.5727 75.1031 91.607 74.3097 92.4062C73.5164 93.2055 72.517 93.7666 71.3115 94.0896L66.5669 95.3609V84.1609L69.4724 83.3824V87.3024L71.3115 86.8096ZM79.4098 80.7197V91.9197L76.5043 92.6982V81.4982L79.4098 80.7197ZM70.956 91.7209C71.5021 91.5745 71.9091 91.3695 72.177 91.1057C72.4552 90.8392 72.5942 90.4979 72.5942 90.0819C72.5942 89.6552 72.4552 89.3832 72.177 89.2657C71.9091 89.1455 71.5021 89.1585 70.956 89.3049L69.4724 89.7024V92.1184L70.956 91.7209Z" fill="white"/>
<path d="M86.6676 77.927C85.7403 78.1754 85.0396 78.1392 84.5657 77.8182C84.1021 77.4837 83.8599 76.9299 83.8393 76.1568L85.6166 75.6806C85.6372 75.9204 85.73 76.1142 85.8948 76.262C86.07 76.4071 86.3275 76.4341 86.6676 76.343C87.0076 76.2519 87.26 76.0936 87.4248 75.8681C87.5897 75.6319 87.6876 75.3817 87.7185 75.1174L89.4958 74.6412C89.4752 75.4253 89.2279 76.1103 88.7539 76.6959C88.2903 77.2682 87.5948 77.6785 86.6676 77.927ZM91.6904 77.4291V88.6291L88.8621 89.3869V80.6989L86.1575 90.1116L81.6293 91.325V80.125L84.4575 79.3672V88.0552L87.1621 78.6425L91.6904 77.4291Z" fill="white"/>
<path d="M43.2733 118.138V123.162L40.5533 123.891V121.331L34.8814 122.851V125.411L32.1613 126.14V121.116L33.0577 120.876C33.3153 120.252 33.542 119.231 33.7377 117.813C33.9335 116.385 34.052 114.401 34.0932 111.862L42.1606 109.701V118.437L43.2733 118.138ZM39.2551 112.943L36.7359 113.618C36.6432 115.147 36.4784 116.604 36.2414 117.991C36.0971 118.883 35.9271 119.605 35.7314 120.159L39.2551 119.215V112.943Z" fill="white"/>
<path d="M44.5468 109.061L53.0778 106.775V109.127L47.4523 110.635V112.683L51.8105 111.515V113.723L47.4523 114.891V117.131L53.2942 115.565V117.917L44.5468 120.261V109.061Z" fill="white"/>
<path d="M54.2174 106.47L63.7066 103.927V106.391L60.4148 107.273V116.009L57.5093 116.788V108.052L54.2174 108.934V106.47Z" fill="white"/>
<path d="M65.1331 103.545L73.6641 101.259V103.611L68.0386 105.119V107.167L72.3968 105.999V108.207L68.0386 109.375V111.615L73.8805 110.049V112.401L65.1331 114.745V103.545Z" fill="white"/>
<path d="M82.1138 110.195L79.0074 106.564L78.5128 106.696V111.16L75.6073 111.939V100.739L78.5128 99.96V104.392L78.9456 104.276L81.8047 99.078L85.2048 98.1669L81.2638 104.615L85.5757 109.268L82.1138 110.195Z" fill="white"/>
<path d="M86.0326 97.9451L95.5218 95.4025V97.8665L92.23 98.7485V107.485L89.3244 108.263V99.5271L86.0326 100.409V97.9451Z" fill="white"/>
<path d="M107.009 92.3244V103.524L104.181 104.282V95.5942L101.477 105.007L96.9483 106.22V95.0203L99.7765 94.2624V102.95L102.481 93.5378L107.009 92.3244Z" fill="white"/>
<path d="M115.122 95.5746C116.235 95.3512 117.126 95.363 117.796 95.6102C118.465 95.8575 118.8 96.4291 118.8 97.3251C118.8 98.3384 118.383 99.2129 117.548 99.9485C116.724 100.671 115.694 101.197 114.457 101.529L109.234 102.928V91.7284L114.303 90.3701C115.519 90.0444 116.508 90.0033 117.27 90.247C118.043 90.4773 118.429 91.0991 118.429 92.1125C118.429 92.9231 118.161 93.6082 117.626 94.1678C117.09 94.7273 116.255 95.1963 115.122 95.5746ZM112.139 95.3499L113.963 94.8612C115.003 94.5824 115.524 94.0963 115.524 93.403C115.524 93.0936 115.405 92.8747 115.168 92.7462C114.931 92.6177 114.545 92.6253 114.009 92.7688L112.139 93.2699V95.3499ZM114.195 99.2791C115.328 98.9754 115.895 98.4449 115.895 97.6876C115.895 96.9303 115.369 96.6924 114.318 96.974L112.139 97.5579V99.8299L114.195 99.2791Z" fill="white"/>
</g>
<defs>
<radialGradient id="paint0_radial_15704_52980" cx="0" cy="0" r="1" gradientUnits="userSpaceOnUse" gradientTransform="translate(5.03659e-06 138) scale(138)">
<stop stop-color="#0000FF"/>
<stop offset="1" stop-color="#0000FF" stop-opacity="0"/>
</radialGradient>
<radialGradient id="paint1_radial_15704_52980" cx="0" cy="0" r="1" gradientUnits="userSpaceOnUse" gradientTransform="translate(-40 138) scale(178)">
<stop stop-color="#FF0000"/>
<stop offset="1" stop-color="#FF0000" stop-opacity="0"/>
</radialGradient>
<linearGradient id="paint2_linear_15704_52980" x1="107.855" y1="95.3217" x2="63.5881" y2="160.071" gradientUnits="userSpaceOnUse">
<stop stop-color="#0075FF"/>
<stop offset="1" stop-color="#020278" stop-opacity="0"/>
</linearGradient>
<linearGradient id="paint3_linear_15704_52980" x1="-19.4952" y1="130.362" x2="-6.96169" y2="207.225" gradientUnits="userSpaceOnUse">
<stop stop-color="#FF0000"/>
<stop offset="1" stop-color="#FF0000" stop-opacity="0"/>
</linearGradient>
<linearGradient id="paint4_linear_15704_52980" x1="64" y1="40.0188" x2="-19.799" y2="107.984" gradientUnits="userSpaceOnUse">
<stop stop-color="white"/>
<stop offset="1" stop-color="white" stop-opacity="0"/>
</linearGradient>
<linearGradient id="paint5_linear_15704_52980" x1="64" y1="40.0188" x2="-19.799" y2="107.984" gradientUnits="userSpaceOnUse">
<stop stop-color="white"/>
<stop offset="1" stop-color="white" stop-opacity="0"/>
</linearGradient>
<linearGradient id="paint6_linear_15704_52980" x1="64" y1="40.0188" x2="-19.799" y2="107.984" gradientUnits="userSpaceOnUse">
<stop stop-color="white"/>
<stop offset="1" stop-color="white" stop-opacity="0"/>
</linearGradient>
<linearGradient id="paint7_linear_15704_52980" x1="64" y1="40.0188" x2="-19.799" y2="107.984" gradientUnits="userSpaceOnUse">
<stop stop-color="white"/>
<stop offset="1" stop-color="white" stop-opacity="0"/>
</linearGradient>
<linearGradient id="paint8_linear_15704_52980" x1="64" y1="40.0188" x2="-19.799" y2="107.984" gradientUnits="userSpaceOnUse">
<stop stop-color="white"/>
<stop offset="1" stop-color="white" stop-opacity="0"/>
</linearGradient>
<linearGradient id="paint9_linear_15704_52980" x1="64" y1="40.0188" x2="-19.799" y2="107.984" gradientUnits="userSpaceOnUse">
<stop stop-color="white"/>
<stop offset="1" stop-color="white" stop-opacity="0"/>
</linearGradient>
<linearGradient id="paint10_linear_15704_52980" x1="64" y1="40.0188" x2="-19.799" y2="107.984" gradientUnits="userSpaceOnUse">
<stop stop-color="white"/>
<stop offset="1" stop-color="white" stop-opacity="0"/>
</linearGradient>
<linearGradient id="paint11_linear_15704_52980" x1="64" y1="40.0188" x2="-19.799" y2="107.984" gradientUnits="userSpaceOnUse">
<stop stop-color="white"/>
<stop offset="1" stop-color="white" stop-opacity="0"/>
</linearGradient>
<linearGradient id="paint12_linear_15704_52980" x1="64" y1="40.0188" x2="-19.799" y2="107.984" gradientUnits="userSpaceOnUse">
<stop stop-color="white"/>
<stop offset="1" stop-color="white" stop-opacity="0"/>
</linearGradient>
<linearGradient id="paint13_linear_15704_52980" x1="64" y1="40.0188" x2="-19.799" y2="107.984" gradientUnits="userSpaceOnUse">
<stop stop-color="white"/>
<stop offset="1" stop-color="white" stop-opacity="0"/>
</linearGradient>
<linearGradient id="paint14_linear_15704_52980" x1="64" y1="40.0188" x2="-19.799" y2="107.984" gradientUnits="userSpaceOnUse">
<stop stop-color="white"/>
<stop offset="1" stop-color="white" stop-opacity="0"/>
</linearGradient>
<linearGradient id="paint15_linear_15704_52980" x1="64" y1="40.0188" x2="-19.799" y2="107.984" gradientUnits="userSpaceOnUse">
<stop stop-color="white"/>
<stop offset="1" stop-color="white" stop-opacity="0"/>
</linearGradient>
<linearGradient id="paint16_linear_15704_52980" x1="64" y1="40.0188" x2="-19.799" y2="107.984" gradientUnits="userSpaceOnUse">
<stop stop-color="white"/>
<stop offset="1" stop-color="white" stop-opacity="0"/>
</linearGradient>
<linearGradient id="paint17_linear_15704_52980" x1="64" y1="40.0188" x2="-19.799" y2="107.984" gradientUnits="userSpaceOnUse">
<stop stop-color="white"/>
<stop offset="1" stop-color="white" stop-opacity="0"/>
</linearGradient>
<linearGradient id="paint18_linear_15704_52980" x1="64" y1="40.0188" x2="-19.799" y2="107.984" gradientUnits="userSpaceOnUse">
<stop stop-color="white"/>
<stop offset="1" stop-color="white" stop-opacity="0"/>
</linearGradient>
<radialGradient id="paint19_radial_15704_52980" cx="0" cy="0" r="1" gradientUnits="userSpaceOnUse" gradientTransform="translate(22.72 50.3468) rotate(-45.0224) scale(18.3354 18.3354)">
<stop stop-color="white"/>
<stop offset="1" stop-color="white" stop-opacity="0"/>
</radialGradient>
<radialGradient id="paint20_radial_15704_52980" cx="0" cy="0" r="1" gradientUnits="userSpaceOnUse" gradientTransform="translate(22.72 50.3468) rotate(-45.0224) scale(18.3354 18.3354)">
<stop stop-color="white"/>
<stop offset="1" stop-color="white" stop-opacity="0"/>
</radialGradient>
<radialGradient id="paint21_radial_15704_52980" cx="0" cy="0" r="1" gradientUnits="userSpaceOnUse" gradientTransform="translate(22.72 50.3468) rotate(-45.0224) scale(18.3354 18.3354)">
<stop stop-color="white"/>
<stop offset="1" stop-color="white" stop-opacity="0"/>
</radialGradient>
<radialGradient id="paint22_radial_15704_52980" cx="0" cy="0" r="1" gradientUnits="userSpaceOnUse" gradientTransform="translate(22.72 50.3468) rotate(-45.0224) scale(18.3354 18.3354)">
<stop stop-color="white"/>
<stop offset="1" stop-color="white" stop-opacity="0"/>
</radialGradient>
<radialGradient id="paint23_radial_15704_52980" cx="0" cy="0" r="1" gradientUnits="userSpaceOnUse" gradientTransform="translate(22.72 50.3468) rotate(-45.0224) scale(18.3354 18.3354)">
<stop stop-color="white"/>
<stop offset="1" stop-color="white" stop-opacity="0"/>
</radialGradient>
<radialGradient id="paint24_radial_15704_52980" cx="0" cy="0" r="1" gradientUnits="userSpaceOnUse" gradientTransform="translate(22.72 50.3468) rotate(-45.0224) scale(18.3354 18.3354)">
<stop stop-color="white"/>
<stop offset="1" stop-color="white" stop-opacity="0"/>
</radialGradient>
<radialGradient id="paint25_radial_15704_52980" cx="0" cy="0" r="1" gradientUnits="userSpaceOnUse" gradientTransform="translate(22.72 50.3468) rotate(-45.0224) scale(18.3354 18.3354)">
<stop stop-color="white"/>
<stop offset="1" stop-color="white" stop-opacity="0"/>
</radialGradient>
<radialGradient id="paint26_radial_15704_52980" cx="0" cy="0" r="1" gradientUnits="userSpaceOnUse" gradientTransform="translate(22.72 50.3468) rotate(-45.0224) scale(18.3354 18.3354)">
<stop stop-color="white"/>
<stop offset="1" stop-color="white" stop-opacity="0"/>
</radialGradient>
<radialGradient id="paint27_radial_15704_52980" cx="0" cy="0" r="1" gradientUnits="userSpaceOnUse" gradientTransform="translate(22.72 50.3468) rotate(-45.0224) scale(18.3354 18.3354)">
<stop stop-color="white"/>
<stop offset="1" stop-color="white" stop-opacity="0"/>
</radialGradient>
<radialGradient id="paint28_radial_15704_52980" cx="0" cy="0" r="1" gradientUnits="userSpaceOnUse" gradientTransform="translate(22.72 50.3468) rotate(-45.0224) scale(18.3354 18.3354)">
<stop stop-color="white"/>
<stop offset="1" stop-color="white" stop-opacity="0"/>
</radialGradient>
<radialGradient id="paint29_radial_15704_52980" cx="0" cy="0" r="1" gradientUnits="userSpaceOnUse" gradientTransform="translate(22.72 50.3468) rotate(-45.0224) scale(18.3354 18.3354)">
<stop stop-color="white"/>
<stop offset="1" stop-color="white" stop-opacity="0"/>
</radialGradient>
<radialGradient id="paint30_radial_15704_52980" cx="0" cy="0" r="1" gradientUnits="userSpaceOnUse" gradientTransform="translate(22.72 50.3468) rotate(-45.0224) scale(18.3354 18.3354)">
<stop stop-color="white"/>
<stop offset="1" stop-color="white" stop-opacity="0"/>
</radialGradient>
<radialGradient id="paint31_radial_15704_52980" cx="0" cy="0" r="1" gradientUnits="userSpaceOnUse" gradientTransform="translate(22.72 50.3468) rotate(-45.0224) scale(18.3354 18.3354)">
<stop stop-color="white"/>
<stop offset="1" stop-color="white" stop-opacity="0"/>
</radialGradient>
<radialGradient id="paint32_radial_15704_52980" cx="0" cy="0" r="1" gradientUnits="userSpaceOnUse" gradientTransform="translate(22.72 50.3468) rotate(-45.0224) scale(18.3354 18.3354)">
<stop stop-color="white"/>
<stop offset="1" stop-color="white" stop-opacity="0"/>
</radialGradient>
<radialGradient id="paint33_radial_15704_52980" cx="0" cy="0" r="1" gradientUnits="userSpaceOnUse" gradientTransform="translate(22.72 50.3468) rotate(-45.0224) scale(18.3354 18.3354)">
<stop stop-color="white"/>
<stop offset="1" stop-color="white" stop-opacity="0"/>
</radialGradient>
<clipPath id="clip0_15704_52980">
<rect width="138" height="138" fill="white"/>
</clipPath>
</defs>
</svg>
