<?xml version="1.0" encoding="UTF-8"?>
<!-- Generated by Pixelmator Pro 3.5.6 -->
<svg width="708" height="152" viewBox="0 0 708 152" xmlns="http://www.w3.org/2000/svg">
    <g id="g1">
        <g id="g2">
            <g id="g3">
                <path id="path1" fill="#000000" stroke="none" d="M 469.480011 98.149994 L 469.480011 122.020004 L 492.089996 122.020004 L 492.089996 51.889999 L 469.480011 51.889999 L 469.480011 76.560005 L 425.980011 76.560005 L 425.980011 51.889999 L 403.369995 51.889999 L 403.369995 122.009995 L 425.980011 122.009995 L 425.980011 98.149994 L 469.480011 98.149994 Z"/>
                <path id="path2" fill="#000000" stroke="none" d="M 196.960007 73.140007 L 196.960007 51.889999 L 282.089996 51.889999 L 282.089996 73.140007 L 250.830002 73.140007 L 250.830002 118.570007 L 228.220001 122.009995 L 228.220001 73.140007 L 196.960007 73.140007 Z"/>
                <path id="path3" fill="#000000" fill-rule="evenodd" stroke="none" d="M 339.670013 124.339996 C 329.850006 124.339996 321.420013 122.919998 314.51001 120.990005 C 296.070007 115.850006 288.859985 98.639999 288.859985 86.400002 C 288.859985 72.610001 295.420013 58.270004 313.200012 53.130005 C 320.279999 51.090004 329.100006 49.57 339.670013 49.57 C 350.23999 49.57 359.059998 51.090004 366.140015 53.130005 C 383.920013 58.270004 390.480011 72.610001 390.480011 86.400002 C 390.480011 98.639999 383.269989 115.850006 364.829987 120.990005 C 357.920013 122.910004 349.48999 124.339996 339.670013 124.339996 Z M 339.670013 69.990005 C 348.160004 69.990005 353.829987 71.200005 359.070007 72.720001 C 364.73999 74.360001 369.029999 76.920006 369.029999 86.400002 C 369.029999 96.380005 364.320007 99.570007 357.950012 101.350006 C 352.75 102.800003 347.390015 103.919998 339.670013 103.919998 C 331.940002 103.919998 326.589996 102.800003 321.390015 101.350006 C 315.01001 99.570007 310.309998 96.380005 310.309998 86.400002 C 310.309998 76.910004 314.600006 74.360001 320.279999 72.720001 C 325.51001 71.210007 331.170013 69.990005 339.670013 69.990005 Z"/>
                <path id="path4" fill="#000000" stroke="none" d="M 519.909973 150.240005 C 537.890015 155.880005 558.710022 147.460007 567.960022 131.770004 L 613.210022 54.300003 L 589.820007 50.720001 L 558.909973 105.940002 L 528 50.730003 L 504.609985 54.310005 L 546.080017 123.460007 C 541.340027 130.339996 533.440002 133.410004 525.109985 130.800003 L 519.909973 150.240005 Z"/>
                <path id="path5" fill="#000000" stroke="none" d="M 695.27002 73.610001 L 695.280029 73.620003 L 695.309998 73.640007 L 695.359985 73.68 L 695.460022 73.760002 C 695.52002 73.810005 695.580017 73.850006 695.630005 73.890007 C 695.72998 73.960007 695.789978 74.010002 695.830017 74.030006 C 695.840027 74.040001 695.849976 74.040001 695.849976 74.050003 C 695.840027 74.040001 695.76001 73.990005 695.599976 73.910004 C 695.150024 73.68 694.030029 73.160004 692.01001 72.580002 C 687.960022 71.410004 680.359985 69.990005 667.440002 69.990005 C 658.940002 69.990005 653.27002 71.200005 648.039978 72.720001 C 642.369995 74.360001 638.070007 76.920006 638.070007 86.400002 C 638.070007 96.380005 642.780029 99.570007 649.150024 101.350006 C 654.359985 102.800003 659.700012 103.919998 667.429993 103.919998 C 679.650024 103.919998 687.299988 102.509995 691.599976 101.300003 C 693.75 100.699997 695.070007 100.139999 695.719971 99.839996 C 696.01001 99.699997 696.169983 99.610001 696.219971 99.589996 C 696.22998 99.580002 696.22998 99.580002 696.22998 99.580002 C 696.22998 99.580002 696.219971 99.580002 696.219971 99.589996 C 696.210022 99.600006 696.179993 99.610001 696.150024 99.630005 C 696.119995 99.649994 696.080017 99.679993 696.030029 99.710007 L 695.909973 99.789993 L 695.890015 99.809998 L 695.880005 99.820007 C 695.880005 99.820007 695.869995 100.990005 701.950012 108.699997 C 708.039978 116.399994 708.02002 116.410004 708.02002 116.410004 L 708.01001 116.419998 L 707.98999 116.440002 L 707.940002 116.479996 L 707.830017 116.559998 C 707.75 116.610001 707.659973 116.669998 707.559998 116.740005 C 707.359985 116.869995 707.130005 117.009995 706.859985 117.169998 C 706.309998 117.490005 705.609985 117.869995 704.73999 118.279999 C 702.98999 119.100006 700.570007 120.050003 697.349976 120.949997 C 690.909973 122.75 681.289978 124.350006 667.440002 124.350006 C 657.619995 124.350006 649.190002 122.929993 642.280029 121 C 623.840027 115.860001 616.630005 98.649994 616.630005 86.410004 C 616.630005 72.620003 623.200012 58.279999 640.97998 53.139999 C 648.059998 51.099998 656.880005 49.580002 667.450012 49.580002 C 681.880005 49.580002 691.539978 51.169998 697.909973 53.010002 C 701.109985 53.93 703.48999 54.919998 705.23999 55.82 C 706.109985 56.270004 706.820007 56.690002 707.390015 57.060005 C 707.669983 57.25 707.919983 57.419998 708.140015 57.580002 C 708.25 57.660004 708.340027 57.740005 708.440002 57.810005 L 708.570007 57.910004 L 708.630005 57.959999 L 708.659973 57.980003 L 708.679993 57.990005 C 708.679993 57.990005 708.690002 59.169998 701.97998 66.390007 C 695.26001 73.600006 695.27002 73.610001 695.27002 73.610001 Z"/>
                <path id="path6" fill="#000000" fill-rule="evenodd" stroke="none" d="M 0 -0.089996 L 159.309998 82.25 L 67.629997 149.730011 C 67.629997 149.730011 87.519997 115.460007 62.16 71.290001 C 36.799999 27.120003 0.37 3.309998 0.37 3.309998 L 0 -0.089996 Z"/>
            </g>
        </g>
    </g>
</svg>
