<?xml version="1.0" encoding="utf-8"?>
<!-- Generator: Adobe Illustrator 26.0.1, SVG Export Plug-In . SVG Version: 6.00 Build 0)  -->
<svg version="1.1" id="Layer_1" xmlns="http://www.w3.org/2000/svg" xmlns:xlink="http://www.w3.org/1999/xlink" x="0px" y="0px"
	 viewBox="0 0 841.89 162.38" style="enable-background:new 0 0 841.89 162.38;" xml:space="preserve">
<style type="text/css">
	.st0{fill:url(#SVGID_1_);}
	.st1{fill:url(#SVGID_00000076566654432531450010000008920402964717159041_);}
	.st2{fill:url(#SVGID_00000029015787278756973240000006004293118031381664_);}
	.st3{fill:url(#SVGID_00000118358527885414168610000001830479026177973414_);}
	.st4{fill:#FFFFFF;}
</style>
<g>
	<linearGradient id="SVGID_1_" gradientUnits="userSpaceOnUse" x1="30.5343" y1="-3.0296" x2="162.4487" y2="136.0902">
		<stop  offset="0" style="stop-color:#42C0F0"/>
		<stop  offset="0.9804" style="stop-color:#7164AA"/>
	</linearGradient>
	<polygon class="st0" points="151.32,31.99 90.15,65.94 90.15,152.21 151.32,152.21 	"/>
	
		<linearGradient id="SVGID_00000139288436473833545060000000898977739470527657_" gradientUnits="userSpaceOnUse" x1="25.253" y1="1.9782" x2="157.1674" y2="141.098">
		<stop  offset="0" style="stop-color:#42C0F0"/>
		<stop  offset="0.9804" style="stop-color:#7164AA"/>
	</linearGradient>
	<polygon style="fill:url(#SVGID_00000139288436473833545060000000898977739470527657_);" points="151.32,27.91 8.41,107.03 
		8.41,59.05 90.15,12.12 151.32,12.12 	"/>
	
		<linearGradient id="SVGID_00000000188286874873330790000006429155452738475413_" gradientUnits="userSpaceOnUse" x1="9.219" y1="17.1818" x2="141.1334" y2="156.3016">
		<stop  offset="0" style="stop-color:#42C0F0"/>
		<stop  offset="0.9804" style="stop-color:#7164AA"/>
	</linearGradient>
	<polygon style="fill:url(#SVGID_00000000188286874873330790000006429155452738475413_);" points="8.41,12.12 39.14,12.12 
		55.48,28.19 8.41,54.12 	"/>
	
		<linearGradient id="SVGID_00000109749227332398684370000012307498600044221580_" gradientUnits="userSpaceOnUse" x1="-33.7851" y1="57.9586" x2="98.1293" y2="197.0784">
		<stop  offset="0" style="stop-color:#42C0F0"/>
		<stop  offset="0.9804" style="stop-color:#7164AA"/>
	</linearGradient>
	<polygon style="fill:url(#SVGID_00000109749227332398684370000012307498600044221580_);" points="8.41,111.06 44.49,90.76 
		44.49,152.21 8.41,152.21 	"/>
</g>
<g>
	<path class="st4" d="M234.45,32.37v64.27h-24.58V32.37h-17.52V12.12h59.63v20.25H234.45z"/>
	<path class="st4" d="M285.66,65.93v30.71h-26.32V12.12h36.1c9,0,15.84,1.03,20.53,3.1c4.68,2.06,8.4,5.22,11.15,9.47
		c2.74,4.25,4.12,9.02,4.12,14.3c0,8.05-2.81,14.55-8.42,19.5s-13.11,7.43-22.48,7.43H285.66z M285.29,47.78h8.67
		c7.64,0,11.45-2.8,11.45-8.42c0-5.28-3.53-7.92-10.59-7.92h-9.54V47.78z"/>
	<path class="st4" d="M340.89,96.64V12.12h42.91c8.92,0,15.42,2.25,19.5,6.75c4.09,4.5,6.13,9.64,6.13,15.42
		c0,4.21-1.19,8.02-3.56,11.42c-2.37,3.41-5.91,5.75-10.62,7.03c10.94,2.64,16.41,9.21,16.41,19.69c0,6.27-1.93,11.88-5.79,16.81
		c-3.86,4.94-12.1,7.4-24.74,7.4H340.89z M364.79,44.5h12.01c3.01,0,5.14-0.76,6.38-2.29c1.24-1.53,1.86-3.16,1.86-4.89
		c0-4.71-2.89-7.06-8.67-7.06h-11.58V44.5z M364.79,77.82h12.63c3.14,0,5.44-0.77,6.9-2.32s2.2-3.29,2.2-5.23
		c0-1.94-0.71-3.72-2.14-5.36c-1.42-1.63-4.04-2.45-7.83-2.45h-11.76V77.82z"/>
	<path class="st4" d="M545.96,12.12v84.52h-24.09V36.21l-15.63,60.43h-16.47l-16.25-60.43v60.43h-19.44V12.12h33.9l12.26,44.89
		l11.7-44.89H545.96z"/>
	<path class="st4" d="M581.63,70.51l-32.14-58.39h28.76l14.85,32.76l12.24-32.76h22.9l-24.89,61.61
		c-2.23,5.57-4.78,10.02-7.65,13.34c-2.87,3.32-6.02,5.75-9.44,7.28c-3.43,1.53-7.76,2.29-13,2.29H560.2V77.82h8.67
		C576.1,77.82,580.35,75.38,581.63,70.51z"/>
	<path class="st4" d="M718.86,48.92l30.75,47.72H722.8l-23.03-35.17l-3.71,0.93v34.24h-22.72V62.4l-3.84-0.93l-22.93,35.17h-24.19
		l28.89-41.25l-26.29-43.27h25.88l19.14,34.37l3.34,0.68V12.12h22.72v35.05l3.4-0.68l19.11-34.37h23.31L718.86,48.92z"/>
	<path class="st4" d="M776.24,87.72v8.92h-25.2V12.12h25.2V46c0,4.49-0.25,9.85-0.74,16.08c3.1-6.76,6.17-12.75,9.23-17.99
		l13.37-22.93v-9.04h25.2v84.52h-25.2V63.06c0-4.82,0.23-10.16,0.68-16.01c-2.48,5.69-5.55,11.66-9.23,17.93L776.24,87.72z"/>
</g>
<g>
	<path class="st4" d="M214.51,152.3h-4.28v-10.98h-11.06v10.98h-4.3v-24.74h4.3v10.3h11.06v-10.3h4.28V152.3z"/>
	<path class="st4" d="M239.34,140.58c0,2.42-0.42,4.55-1.26,6.38c-0.84,1.83-2.04,3.24-3.59,4.22c-1.56,0.98-3.35,1.47-5.38,1.47
		c-2,0-3.79-0.49-5.36-1.47c-1.57-0.98-2.78-2.38-3.64-4.19c-0.86-1.81-1.29-3.9-1.3-6.27v-1.39c0-2.41,0.43-4.54,1.28-6.39
		c0.86-1.85,2.06-3.26,3.62-4.24c1.56-0.98,3.35-1.47,5.36-1.47c2.02,0,3.8,0.48,5.36,1.45c1.56,0.97,2.76,2.36,3.61,4.18
		c0.85,1.82,1.28,3.93,1.29,6.35V140.58z M235.04,139.29c0-2.74-0.52-4.84-1.56-6.31s-2.51-2.19-4.41-2.19
		c-1.86,0-3.31,0.73-4.36,2.18c-1.05,1.46-1.58,3.52-1.61,6.18v1.43c0,2.72,0.53,4.82,1.59,6.3c1.06,1.49,2.53,2.23,4.41,2.23
		c1.9,0,3.37-0.73,4.39-2.18c1.03-1.45,1.54-3.57,1.54-6.36V139.29z"/>
	<path class="st4" d="M243.62,152.3v-24.74h8.48c2.8,0,4.93,0.56,6.39,1.68c1.46,1.12,2.19,2.79,2.19,5.01
		c0,1.13-0.31,2.15-0.92,3.06c-0.61,0.91-1.51,1.61-2.69,2.11c1.34,0.36,2.37,1.05,3.1,2.05c0.73,1,1.1,2.21,1.1,3.61
		c0,2.32-0.74,4.11-2.23,5.35c-1.49,1.25-3.62,1.87-6.4,1.87H243.62z M247.92,137.98h4.22c1.34,0,2.38-0.3,3.14-0.91
		c0.75-0.61,1.13-1.46,1.13-2.57c0-1.22-0.35-2.11-1.05-2.65c-0.7-0.54-1.78-0.82-3.25-0.82h-4.18V137.98z M247.92,141.14v7.73h4.78
		c1.35,0,2.4-0.33,3.16-1c0.76-0.67,1.14-1.6,1.14-2.79c0-2.57-1.31-3.89-3.94-3.94H247.92z"/>
	<path class="st4" d="M285.32,140.58c0,2.42-0.42,4.55-1.26,6.38c-0.84,1.83-2.04,3.24-3.59,4.22c-1.56,0.98-3.35,1.47-5.38,1.47
		c-2,0-3.79-0.49-5.36-1.47c-1.57-0.98-2.78-2.38-3.64-4.19c-0.86-1.81-1.29-3.9-1.3-6.27v-1.39c0-2.41,0.43-4.54,1.28-6.39
		c0.86-1.85,2.06-3.26,3.62-4.24c1.56-0.98,3.35-1.47,5.36-1.47c2.02,0,3.8,0.48,5.36,1.45c1.56,0.97,2.76,2.36,3.61,4.18
		c0.85,1.82,1.28,3.93,1.29,6.35V140.58z M281.03,139.29c0-2.74-0.52-4.84-1.55-6.31c-1.04-1.46-2.51-2.19-4.41-2.19
		c-1.86,0-3.31,0.73-4.36,2.18c-1.05,1.46-1.58,3.52-1.61,6.18v1.43c0,2.72,0.53,4.82,1.59,6.3c1.06,1.49,2.53,2.23,4.41,2.23
		c1.9,0,3.37-0.73,4.39-2.18c1.03-1.45,1.54-3.57,1.54-6.36V139.29z"/>
	<path class="st4" d="M308.49,144.25c-0.25,2.64-1.22,4.7-2.92,6.18c-1.7,1.48-3.96,2.22-6.78,2.22c-1.97,0-3.71-0.47-5.21-1.4
		c-1.5-0.93-2.66-2.26-3.48-3.98c-0.82-1.72-1.24-3.72-1.28-6v-2.31c0-2.33,0.41-4.39,1.24-6.17c0.83-1.78,2.01-3.15,3.56-4.11
		c1.55-0.96,3.33-1.44,5.36-1.44c2.73,0,4.93,0.74,6.59,2.22c1.66,1.48,2.63,3.57,2.91,6.28h-4.28c-0.2-1.78-0.72-3.06-1.55-3.85
		c-0.83-0.79-2.05-1.18-3.66-1.18c-1.87,0-3.31,0.68-4.31,2.05c-1,1.37-1.52,3.37-1.54,6.01v2.19c0,2.68,0.48,4.72,1.44,6.12
		c0.96,1.41,2.36,2.11,4.21,2.11c1.69,0,2.96-0.38,3.81-1.14c0.85-0.76,1.39-2.02,1.61-3.79H308.49z"/>
	<path class="st4" d="M329.71,131.03H322v21.28h-4.27v-21.28h-7.65v-3.47h19.63V131.03z"/>
	<path class="st4" d="M348.12,127.56h4.3v24.74h-4.3v-17.62l-10.86,17.62h-4.3v-24.74h4.3v17.64L348.12,127.56z"/>
	<path class="st4" d="M370.62,127.56v21.31h7.55v-21.31h4.28v21.31h7.49v-21.31h4.28v24.74H366.3v-24.74H370.62z"/>
	<path class="st4" d="M408.23,140.49l4.96-12.93h4.77l-8.62,20.53l-0.78,1.55c-1.13,2.02-2.97,3.02-5.51,3.02l-1.77-0.1l0.03-3.4
		c0.27,0.04,0.75,0.07,1.45,0.07c1.22,0,2.08-0.52,2.58-1.56l0.88-2.09l-8.46-18.01h4.69L408.23,140.49z"/>
	<path class="st4" d="M425.55,143.13v9.18h-4.3v-24.74h9.47c2.76,0,4.96,0.72,6.59,2.16c1.63,1.44,2.44,3.35,2.44,5.72
		c0,2.43-0.8,4.32-2.39,5.67s-3.82,2.02-6.69,2.02H425.55z M425.55,139.66h5.17c1.53,0,2.7-0.36,3.5-1.08
		c0.8-0.72,1.21-1.76,1.21-3.12c0-1.34-0.41-2.41-1.22-3.2c-0.82-0.8-1.94-1.21-3.36-1.23h-5.29V139.66z"/>
	<path class="st4" d="M447.91,137.03h5.06c1.81,0,3.39,0.31,4.74,0.93s2.37,1.51,3.08,2.65c0.7,1.14,1.05,2.47,1.05,3.98
		c0,2.31-0.78,4.17-2.35,5.57c-1.57,1.41-3.71,2.12-6.42,2.14h-9.47v-24.74h4.3V137.03z M447.91,140.49v8.38h5.05
		c1.45,0,2.58-0.39,3.39-1.18c0.81-0.79,1.21-1.83,1.21-3.13c0-1.24-0.4-2.23-1.19-2.95c-0.79-0.72-1.89-1.1-3.3-1.12H447.91z
		 M468.58,152.3h-4.28v-24.74h4.28V152.3z"/>
	<path class="st4" d="M478.21,127.56v21.31h7.55v-21.31h4.28v21.31h7.49v-21.31h4.28v24.74H473.9v-24.74H478.21z"/>
	<path class="st4" d="M514.24,141.7h-2.92v10.61h-4.28v-24.74h4.28v10.4h2.36l7.27-10.4h5.27l-8.5,11.84l9.24,12.9h-5.17
		L514.24,141.7z"/>
	<path class="st4" d="M543.2,146.54h-9.58l-2.01,5.76h-4.47l9.35-24.74h3.86l9.36,24.74h-4.49L543.2,146.54z M534.82,143.08h7.17
		l-3.59-10.26L534.82,143.08z"/>
	<path class="st4" d="M556.81,143.13v9.18h-4.3v-24.74h9.47c2.77,0,4.96,0.72,6.59,2.16c1.63,1.44,2.44,3.35,2.44,5.72
		c0,2.43-0.8,4.32-2.39,5.67c-1.59,1.35-3.82,2.02-6.69,2.02H556.81z M556.81,139.66h5.17c1.53,0,2.7-0.36,3.5-1.08
		c0.8-0.72,1.21-1.76,1.21-3.12c0-1.34-0.41-2.41-1.22-3.2c-0.82-0.8-1.94-1.21-3.36-1.23h-5.29V139.66z"/>
	<path class="st4" d="M593.64,144.25c-0.25,2.64-1.22,4.7-2.92,6.18c-1.7,1.48-3.96,2.22-6.78,2.22c-1.97,0-3.71-0.47-5.21-1.4
		c-1.5-0.93-2.66-2.26-3.48-3.98c-0.82-1.72-1.24-3.72-1.28-6v-2.31c0-2.33,0.41-4.39,1.24-6.17c0.83-1.78,2.01-3.15,3.56-4.11
		c1.55-0.96,3.33-1.44,5.36-1.44c2.73,0,4.93,0.74,6.59,2.22c1.66,1.48,2.63,3.57,2.91,6.28h-4.28c-0.2-1.78-0.72-3.06-1.55-3.85
		c-0.83-0.79-2.05-1.18-3.66-1.18c-1.87,0-3.31,0.68-4.31,2.05c-1,1.37-1.52,3.37-1.54,6.01v2.19c0,2.68,0.48,4.72,1.44,6.12
		c0.96,1.41,2.36,2.11,4.21,2.11c1.69,0,2.96-0.38,3.81-1.14c0.85-0.76,1.39-2.02,1.61-3.79H593.64z"/>
	<path class="st4" d="M604.8,141.7h-2.92v10.61h-4.28v-24.74h4.28v10.4h2.36l7.27-10.4h5.27l-8.5,11.84l9.24,12.9h-5.17L604.8,141.7
		z"/>
	<path class="st4" d="M639.13,140.58c0,2.42-0.42,4.55-1.26,6.38c-0.84,1.83-2.04,3.24-3.59,4.22c-1.56,0.98-3.35,1.47-5.38,1.47
		c-2,0-3.79-0.49-5.36-1.47c-1.57-0.98-2.78-2.38-3.64-4.19c-0.86-1.81-1.29-3.9-1.3-6.27v-1.39c0-2.41,0.43-4.54,1.28-6.39
		c0.86-1.85,2.06-3.26,3.62-4.24c1.56-0.98,3.35-1.47,5.36-1.47s3.8,0.48,5.36,1.45c1.56,0.97,2.76,2.36,3.61,4.18
		c0.85,1.82,1.28,3.93,1.29,6.35V140.58z M634.83,139.29c0-2.74-0.52-4.84-1.55-6.31s-2.51-2.19-4.41-2.19
		c-1.86,0-3.31,0.73-4.36,2.18c-1.05,1.46-1.58,3.52-1.61,6.18v1.43c0,2.72,0.53,4.82,1.59,6.3c1.06,1.49,2.53,2.23,4.41,2.23
		c1.9,0,3.37-0.73,4.39-2.18c1.03-1.45,1.54-3.57,1.54-6.36V139.29z"/>
	<path class="st4" d="M659.24,131.03h-11.42v21.28h-4.28v-24.74h15.7V131.03z"/>
	<path class="st4" d="M681.41,140.58c0,2.42-0.42,4.55-1.26,6.38c-0.84,1.83-2.04,3.24-3.59,4.22c-1.56,0.98-3.35,1.47-5.38,1.47
		c-2,0-3.79-0.49-5.36-1.47c-1.57-0.98-2.78-2.38-3.64-4.19c-0.86-1.81-1.29-3.9-1.3-6.27v-1.39c0-2.41,0.43-4.54,1.28-6.39
		c0.86-1.85,2.06-3.26,3.62-4.24c1.56-0.98,3.35-1.47,5.36-1.47c2.02,0,3.8,0.48,5.36,1.45c1.56,0.97,2.76,2.36,3.61,4.18
		c0.85,1.82,1.28,3.93,1.29,6.35V140.58z M677.11,139.29c0-2.74-0.52-4.84-1.55-6.31s-2.51-2.19-4.41-2.19
		c-1.86,0-3.31,0.73-4.36,2.18c-1.05,1.46-1.58,3.52-1.61,6.18v1.43c0,2.72,0.53,4.82,1.59,6.3c1.06,1.49,2.53,2.23,4.41,2.23
		c1.9,0,3.37-0.73,4.39-2.18c1.03-1.45,1.54-3.57,1.54-6.36V139.29z"/>
	<path class="st4" d="M698.66,143.13v9.18h-4.3v-24.74h9.47c2.76,0,4.96,0.72,6.59,2.16c1.63,1.44,2.44,3.35,2.44,5.72
		c0,2.43-0.8,4.32-2.39,5.67c-1.59,1.35-3.82,2.02-6.69,2.02H698.66z M698.66,139.66h5.17c1.53,0,2.7-0.36,3.5-1.08
		c0.8-0.72,1.21-1.76,1.21-3.12c0-1.34-0.41-2.41-1.22-3.2c-0.82-0.8-1.94-1.21-3.36-1.23h-5.29V139.66z"/>
	<path class="st4" d="M727.43,146.54h-9.58l-2.01,5.76h-4.47l9.35-24.74h3.86l9.37,24.74h-4.49L727.43,146.54z M719.06,143.08h7.17
		l-3.59-10.26L719.06,143.08z"/>
	<path class="st4" d="M751.91,127.56h4.3v24.74h-4.3v-17.62l-10.86,17.62h-4.3v-24.74h4.3v17.64L751.91,127.56z M752.04,121.26
		c0,1.43-0.5,2.58-1.49,3.47c-1,0.88-2.33,1.32-3.99,1.32c-1.66,0-3-0.44-3.99-1.32c-1-0.88-1.49-2.04-1.49-3.47h3.09
		c0,0.75,0.21,1.33,0.64,1.74c0.42,0.41,1.01,0.62,1.76,0.62s1.33-0.21,1.75-0.62c0.42-0.41,0.63-0.99,0.63-1.74H752.04z"/>
	<path class="st4" d="M781.1,140.58c0,2.42-0.42,4.55-1.26,6.38c-0.84,1.83-2.04,3.24-3.59,4.22c-1.56,0.98-3.35,1.47-5.38,1.47
		c-2,0-3.79-0.49-5.36-1.47c-1.57-0.98-2.78-2.38-3.64-4.19c-0.86-1.81-1.29-3.9-1.3-6.27v-1.39c0-2.41,0.43-4.54,1.28-6.39
		c0.86-1.85,2.06-3.26,3.62-4.24c1.56-0.98,3.35-1.47,5.36-1.47c2.02,0,3.8,0.48,5.36,1.45c1.56,0.97,2.76,2.36,3.61,4.18
		c0.85,1.82,1.28,3.93,1.29,6.35V140.58z M776.8,139.29c0-2.74-0.52-4.84-1.55-6.31s-2.51-2.19-4.41-2.19
		c-1.86,0-3.31,0.73-4.36,2.18c-1.05,1.46-1.58,3.52-1.61,6.18v1.43c0,2.72,0.53,4.82,1.59,6.3c1.06,1.49,2.53,2.23,4.41,2.23
		c1.9,0,3.37-0.73,4.39-2.18c1.03-1.45,1.54-3.57,1.54-6.36V139.29z"/>
	<path class="st4" d="M805.03,152.3h-4.28v-10.98h-11.06v10.98h-4.3v-24.74h4.3v10.3h11.06v-10.3h4.28V152.3z"/>
	<path class="st4" d="M824.27,146.54h-9.58l-2.01,5.76h-4.47l9.35-24.74h3.86l9.36,24.74h-4.49L824.27,146.54z M815.89,143.08h7.17
		l-3.59-10.26L815.89,143.08z"/>
</g>
</svg>
