<svg width="253" height="48" viewBox="0 0 253 48" fill="none" xmlns="http://www.w3.org/2000/svg">
<g clip-path="url(#clip0_1005_3523)">
<path d="M83.0997 23.9971L47.5238 48V0L83.0997 23.9971Z" fill="#E30613"/>
<path d="M83.0997 15.0252L60.8224 30.0563V0L83.0997 15.0252Z" fill="#233266"/>
<path d="M0 16.9904V12.6565H19.0702V16.9904H12.2275V34.975H6.87836V16.9904H0Z" fill="#E30613"/>
<path d="M34.8857 12.6565H40.818L33.1006 34.975H27.4242L19.7366 12.6565H25.8653L30.4707 28.6L34.8857 12.6565Z" fill="#E30613"/>
<path d="M94.6905 34.975H89.3354V12.6565H104.514V16.9904H94.6905V34.975Z" fill="#233266"/>
<path d="M120.282 12.6565H126.083L118.693 30.4131C116.777 35.0101 114.278 35.3903 111.654 35.3903C110.505 35.3935 109.359 35.254 108.245 34.975V30.647C108.994 30.854 109.769 30.9602 110.548 30.9628C111.207 31.011 111.861 30.8205 112.387 30.4273C112.913 30.034 113.275 29.4652 113.404 28.8281L105.002 12.6623H111.393L116.355 23.5701L120.282 12.6623V12.6565Z" fill="#233266"/>
<path d="M132.652 20.9499H138.133C140.013 20.9499 146.76 21.1078 146.76 28.249C146.76 32.8051 143.386 34.975 138.133 34.975H127.297V12.6565H144.975V16.9962H132.652V20.9499ZM132.652 30.6411H136.996C139.102 30.6411 140.989 30.2259 140.989 28.1204C140.989 25.4417 138.388 25.2838 137.091 25.2838H132.652V30.647V30.6411Z" fill="#233266"/>
<path d="M165.343 21.5231V25.6347H154.251V30.6353H167.157V34.975H148.896V12.6565H166.836V16.9904H154.251V21.5231H165.343Z" fill="#233266"/>
<path d="M179.849 12.6565C184.454 12.6565 188.411 14.3468 188.411 19.8621C188.411 26.8454 182.461 27.2899 179.718 27.2899H174.625V34.975H169.27V12.6565H179.849ZM174.625 22.956H178.79C181.325 22.956 182.622 22.0612 182.622 19.8971C182.622 16.8675 179.992 16.9728 178.79 16.9728H174.625V22.9326V22.956Z" fill="#233266"/>
<path d="M195.545 34.975H190.196V12.6565H195.545V21.0435H203.786V12.6565H209.136V34.975H203.786V25.3773H195.545V34.975Z" fill="#233266"/>
<path d="M225.933 12.6565H231.282V34.975H225.933V20.406L216.883 34.975H211.533V12.6565H216.883V27.0676L225.933 12.6565Z" fill="#233266"/>
<path d="M244.789 27.2606L240.35 34.975H233.989L239.344 26.8453C236.78 26.5295 233.394 24.8042 233.394 19.8269C233.394 13.3934 238.97 12.6506 241.498 12.6506H253.012V34.975H247.657V27.2606H244.789ZM242.647 16.9962C239.826 16.9962 239.148 18.587 239.148 19.9205C239.148 21.254 239.666 22.9501 242.843 22.9501H247.645V16.9962H242.647Z" fill="#233266"/>
</g>
<defs>
<clipPath id="clip0_1005_3523">
<rect width="253" height="48" fill="white"/>
</clipPath>
</defs>
</svg>
