<?xml version="1.0" encoding="UTF-8"?>
<svg id="Layer_2" data-name="Layer 2" xmlns="http://www.w3.org/2000/svg" viewBox="0 0 722.98 420.43">
  <g id="logo">
    <path d="M703.97,209.18c1.57,1.08,3.13,1.45,4.6,1.19,1.51-.28,2.66-1.09,3.51-2.42.87-1.41,1.1-2.85.73-4.38-.39-1.46-1.41-2.8-3.14-3.94-1.1-.74-2.13-1.19-3.17-1.35-1.1-.15-2.09-.02-2.97.39-.91.44-1.62,1.09-2.2,2.03-.83,1.26-1.09,2.67-.82,4.16.28,1.53,1.4,2.94,3.46,4.32ZM702.69,210.99c-2.19-1.46-3.56-3.25-4.04-5.3-.49-2.06-.1-4.08,1.1-6.03.79-1.25,1.83-2.21,3.08-2.82,1.23-.63,2.56-.89,3.94-.72,1.4.21,2.78.72,4.11,1.61,1.33.89,2.37,1.99,3.08,3.3.7,1.25,1.05,2.62.92,4-.09,1.41-.53,2.72-1.27,3.9-.81,1.33-1.86,2.27-3.13,2.85-1.25.64-2.55.85-3.97.71-1.38-.18-2.63-.71-3.84-1.49ZM0,83.27h15.21s0,66.86,0,66.86c0,5.96,2.14,10.84,6.4,14.7,4.28,3.83,9.96,5.78,17.04,5.78,7.44,0,13.31-1.86,17.57-5.59,4.31-3.76,6.43-8.84,6.43-15.2v-66.55h15.22v67.94c0,9.86-3.49,17.56-10.51,23.13-6.99,5.53-16.5,8.27-28.61,8.27s-21.96-2.69-28.66-8.1c-6.75-5.42-10.1-13.23-10.1-23.37v-67.86ZM172.42,182.38l-57.4-71.52v70.09h-14.42v-97.69h6.03l55.83,67.64v-67.64h14.43v99.11h-4.46ZM202.06,180.96v-97.69h15.18v97.69h-15.18ZM257.83,95.3v27.08h38.95v11.33h-38.95v47.25h-15.18v-97.69h68.51v12.03h-53.33ZM385.47,180.96l-29.54-41.92c-3.41,0-8.72-.24-16.08-.66v42.59h-15.19v-97.78c.56,0,4.49-.17,11.8-.51,7.29-.31,12.6-.47,15.95-.47,26.66,0,40,9.35,40,28.04,0,6.16-2.11,11.68-6.43,16.61-4.29,4.92-9.37,8-15.29,9.15l32.13,44.97h-17.35ZM339.85,95.15v31.85c3.67.46,7.16.68,10.6.68,9.04,0,15.67-1.28,19.79-3.9,4.16-2.54,6.2-7.16,6.2-13.84,0-5.48-2.25-9.42-6.65-11.81-4.47-2.44-11.45-3.63-21-3.63-1.55,0-4.5.2-8.95.66ZM477.34,180.96l-7.63-20.63h-41.46l-8.25,20.63h-16.9l45.1-99.05h4.05l41.85,99.05h-16.78ZM449.54,107.61l-17.3,42.89h33.1l-15.8-42.89ZM577.5,182.38l-57.41-71.52v70.09h-14.42v-97.69h6.08s55.81,67.64,55.81,67.64v-67.64h14.42v99.11h-4.47ZM600.8,180.96v-3.35l47.6-82.32h-47.6s0-12.02,0-12.02l68.38-.02v3.37l-47.78,82.35h49.48v11.99h-70.09ZM510.84,20.81l1.76-1.13,4.77,7.83c.81,1.38,1.33,2.59,1.5,3.56.2,1.01.07,1.98-.41,3-.44,1.02-1.33,1.91-2.61,2.73-1.22.82-2.38,1.21-3.42,1.27-1.05.06-1.99-.19-2.83-.84-.86-.59-1.73-1.63-2.57-3.07l-4.79-7.84,1.76-1.13,4.73,7.84c.73,1.2,1.4,1.99,1.93,2.4.57.45,1.18.65,1.87.62.7-.06,1.4-.31,2.2-.77,1.26-.82,1.98-1.68,2.15-2.65.18-.95-.27-2.28-1.28-3.96l-4.78-7.85ZM524.1,31.25l-6.58-14.53,1.89-.93,12.58,7.9-5.2-11.4,1.81-.85,6.58,14.51-1.89.91-12.61-7.86,5.22,11.39-1.81.87ZM539.35,23.91l-5.37-15.07,1.97-.71,5.32,15.04-1.92.74ZM549.34,21.15l-10.08-13.72,2.15-.62,7.01,10.04c.53.8,1.05,1.57,1.48,2.29,0-.91,0-1.82.11-2.75l.88-12.35,2-.6-1.5,17.09-2.04.63ZM559.44,18.27l-2.45-15.82,11.09-1.79.3,1.86-9.07,1.46.77,4.88,8.47-1.36.29,1.84-8.45,1.38.82,5.39,9.41-1.52.29,1.84-11.47,1.86ZM574.62,16.22l-.57-15.99,6.86-.23c1.41,0,2.48.08,3.23.33.71.28,1.31.76,1.76,1.45.47.72.68,1.52.72,2.4.01,1.15-.27,2.12-.97,2.94-.7.76-1.75,1.29-3.23,1.54.53.26.96.52,1.23.77.68.57,1.25,1.27,1.8,2.06l2.85,4.27-2.57.11-2.21-3.26c-.6-.95-1.16-1.67-1.54-2.16-.39-.47-.75-.82-1.09-1.02-.28-.2-.6-.33-.91-.4-.27-.05-.64-.07-1.19-.05l-2.38.08.28,7.09-2.07.06ZM576.36,7.22l4.42-.14c.95-.02,1.64-.14,2.17-.39.53-.19.94-.53,1.19-.98.25-.43.37-.94.37-1.45-.02-.76-.32-1.38-.88-1.86-.56-.45-1.4-.65-2.56-.64l-4.88.19.18,5.28ZM589.72,10.72l1.93-.02c.04.79.21,1.47.5,2,.3.53.81,1,1.51,1.38.7.38,1.47.6,2.31.64.79.06,1.5,0,2.13-.19.6-.19,1.09-.5,1.4-.9.3-.39.51-.82.51-1.34.08-.45-.06-.94-.31-1.33-.29-.39-.71-.74-1.34-1.04-.41-.21-1.3-.53-2.72-1-1.43-.43-2.4-.84-2.93-1.23-.71-.43-1.22-.98-1.54-1.58-.32-.62-.47-1.29-.42-2.04.06-.8.32-1.55.83-2.21.49-.68,1.16-1.14,2.04-1.45.86-.31,1.85-.41,2.9-.33,1.16.06,2.13.33,2.99.77.86.45,1.48,1.09,1.9,1.86.44.78.61,1.6.61,2.56h-1.99c-.02-1.02-.33-1.78-.91-2.36-.58-.57-1.45-.88-2.67-.97-1.26-.08-2.16.06-2.76.5-.61.44-.93.97-.96,1.65-.05.53.1,1.04.51,1.45.35.39,1.38.84,3.01,1.35,1.64.51,2.78.96,3.35,1.29.91.47,1.5,1.1,1.88,1.79.4.66.57,1.46.53,2.3-.06.85-.34,1.6-.9,2.35-.51.7-1.23,1.25-2.13,1.58-.92.34-1.92.49-3.03.4-1.41-.08-2.58-.4-3.52-.88-.87-.51-1.58-1.19-2.06-2.08-.49-.88-.72-1.81-.67-2.93ZM605.91,17.78l2.68-15.78,2.01.39-2.66,15.75-2.02-.37ZM611.86,18.81l3.72-15.52,5.23,1.36c1.15.31,2.04.62,2.65.91.78.44,1.45,1,1.94,1.68.61.89,1.02,1.95,1.15,3.13.12,1.19.04,2.47-.29,3.84-.3,1.15-.65,2.17-1.18,3-.46.87-1.01,1.54-1.55,2.03-.57.47-1.13.83-1.72,1.04-.56.21-1.23.28-1.98.28s-1.58-.07-2.51-.32l-5.44-1.46ZM614.29,17.56l3.24.81c.98.25,1.78.38,2.41.33.61-.08,1.09-.2,1.53-.43.6-.38,1.14-.95,1.6-1.72.44-.76.81-1.72,1.09-2.86.37-1.66.44-2.97.12-3.99-.29-1-.78-1.73-1.48-2.25-.43-.33-1.29-.65-2.5-.98l-3.14-.84-2.87,11.93ZM626.17,22.4l11.35-12.53,2.07.88.09,17.28-2.17-.92.09-5.16-6.08-2.56-3.31,3.83-2.04-.82ZM632.7,18.02l4.95,2.06.05-4.76c.09-1.45.13-2.61.2-3.49-.56.87-1.19,1.68-1.92,2.5l-3.28,3.68ZM641.14,29.22l7.72-13.83,4.67,2.78c1.05.62,1.81,1.16,2.27,1.66.68.63,1.17,1.33,1.44,2.14.39,1.06.46,2.15.25,3.32-.16,1.19-.59,2.35-1.27,3.61-.61,1.06-1.24,1.9-1.96,2.56-.68.69-1.36,1.17-2.03,1.48-.65.33-1.34.49-1.94.5-.61.07-1.29-.01-2-.26-.71-.21-1.49-.55-2.31-1.03l-4.83-2.92ZM643.84,28.67l2.87,1.71c.87.55,1.63.87,2.24,1.01.6.15,1.11.15,1.58,0,.68-.19,1.33-.57,1.96-1.15.68-.6,1.27-1.44,1.89-2.46.78-1.47,1.18-2.73,1.18-3.81-.05-1.04-.31-1.9-.85-2.54-.33-.49-1.06-1.03-2.13-1.67l-2.8-1.68-5.95,10.59ZM660.43,41.54l9.76-12.4,4.57,3.81c.78.66,1.38,1.2,1.75,1.66.51.58.85,1.17,1.04,1.81.18.63.19,1.29,0,2-.15.74-.47,1.39-.93,2-.88,1.04-1.86,1.65-3.13,1.85-1.2.18-2.7-.43-4.39-1.85l-3.11-2.62-3.98,5.08-1.59-1.35ZM667.15,36.37l3.14,2.59c1.03.89,1.92,1.28,2.67,1.27.73-.02,1.37-.43,1.94-1.13.43-.51.65-1.03.68-1.65.04-.59-.11-1.12-.39-1.58-.27-.28-.7-.75-1.48-1.36l-3.1-2.57-3.46,4.44ZM671.46,51.29l11.39-10.89,4.72,5.18c.94,1.07,1.55,1.92,1.82,2.68.29.72.34,1.51.13,2.34-.24.83-.7,1.54-1.31,2.14-.82.76-1.71,1.16-2.72,1.16-1.05-.06-2.16-.5-3.34-1.51.19.59.3,1.08.3,1.45,0,.87-.12,1.79-.36,2.76l-1.29,4.99-1.72-1.92.98-3.84c.23-1.13.4-1.99.54-2.62.1-.64.1-1.13.05-1.52-.07-.36-.19-.68-.37-.97-.09-.21-.32-.53-.71-.93l-1.62-1.8-5.04,4.84-1.44-1.54ZM679.28,46.77l3,3.31c.65.72,1.21,1.21,1.73,1.44.46.26.95.37,1.48.26.49-.08.92-.28,1.29-.65.54-.52.81-1.13.79-1.86,0-.74-.41-1.53-1.19-2.41l-3.37-3.69-3.74,3.61ZM682.49,63.7l12.07-10.04,1.3,1.65-12.07,10.02-1.3-1.64ZM689.04,72.85l9.74-13.9,1.22,1.95-7.29,9.76c-.57.82-1.15,1.54-1.68,2.17.86-.27,1.69-.51,2.62-.69l11.73-2.7,1.13,1.83-16.33,3.43-1.15-1.84ZM692.88,79.25l16.55-1.77,1.03,2.08-10.97,13.06-1.06-2.18,3.38-3.81-3-6.03-4.95.63-.98-1.98ZM700.6,80.38l2.41,4.84,3.1-3.48c.92-1.03,1.71-1.91,2.37-2.54-1.01.3-1.98.51-3.04.63l-4.84.55ZM700.75,94.25l14.59-5.42,1.83,5.18c.43,1.15.67,2.09.74,2.75.12.94,0,1.81-.26,2.61-.4,1.04-1,1.92-1.87,2.69-.85.77-1.93,1.42-3.25,1.9-1.09.43-2.15.63-3.11.69-.92.05-1.76,0-2.48-.21-.7-.23-1.32-.52-1.8-.89-.51-.38-.98-.88-1.34-1.54-.44-.6-.79-1.41-1.15-2.3l-1.9-5.46ZM703.17,95.61l1.13,3.21c.34,1,.68,1.73,1.09,2.21.36.53.81.9,1.23,1.12.64.28,1.36.42,2.25.39.86-.01,1.87-.25,2.96-.65,1.55-.53,2.65-1.26,3.26-2.1.63-.81.96-1.64.98-2.48.04-.6-.2-1.49-.59-2.72l-1.15-3.13-11.16,4.15ZM705.87,108.01l16.53,2.12.58,2.27-13.55,10.2-.55-2.38,4.11-2.94-1.58-6.55-4.94-.53-.58-2.18ZM713.16,110.89l1.33,5.31,3.74-2.72c1.17-.77,2.13-1.41,2.89-1.89-1.05.05-2.09-.02-3.11-.11l-4.85-.6ZM566.89,280.9l4.41-15.81,10.35,3.07-.53,1.85-8.33-2.42-1.35,4.9,7.2,2.17-.51,1.78-7.2-2.09-2,7.15-2.04-.6ZM581.15,284.78l1.95-16.32,7.03.87c1.43.2,2.47.52,3.18.88.66.39,1.21.94,1.55,1.76.34.81.48,1.68.39,2.57-.14,1.13-.63,2.02-1.49,2.73-.81.77-1.99,1.11-3.5,1.11.5.34.91.7,1.14.97.56.66,1.05,1.45,1.49,2.41l2.22,4.77-2.66-.32-1.65-3.67c-.53-1.03-.9-1.86-1.23-2.42-.34-.63-.66-.97-.95-1.22-.28-.26-.6-.45-.91-.58-.24-.04-.6-.14-1.16-.19l-2.42-.34-.88,7.22-2.11-.23ZM584.36,275.92l4.49.58c.97.11,1.75.11,2.28,0,.54-.2,1-.44,1.31-.88.36-.39.54-.88.6-1.41.12-.74-.09-1.38-.6-1.99-.45-.56-1.28-.89-2.44-1.08l-5.01-.62-.64,5.4ZM596.23,286.42l5.56-16.64,2.32-.08,7.07,16.16-2.41.08-2.01-4.9-6.72.25-1.55,5.03-2.26.11ZM600.61,279.49l5.44-.2-1.82-4.47c-.53-1.38-.96-2.48-1.29-3.39-.2,1.07-.42,2.11-.77,3.16l-1.57,4.91ZM613.83,285.11l-3.04-16.07,2.13-.44,10.59,10.98-2.4-12.66,2-.38,3.04,16.11-2.1.45-10.59-11.07,2.34,12.7-1.98.37ZM629.83,282.23l-.67-1.84,4.18-12.8c.3-.91.61-1.71.92-2.41l-8.37,3.12-.64-1.78,10.72-4.07.63,1.84-4.63,13.88-.52,1.41,9.6-3.59.61,1.8-11.84,4.44ZM659.14,267.95l-7.47-12.31-4.46,2.88-.98-1.63,10.74-6.89.97,1.61-4.44,2.87,7.46,12.32-1.82,1.14ZM664.83,263.92l-4.73-16.89,1.88-1.47,14.76,9.12-1.92,1.48-4.38-2.81-5.35,4.15,1.51,5.07-1.76,1.35ZM664.54,255.72l4.35-3.36-3.98-2.63c-1.22-.8-2.18-1.48-2.9-2.04.4,1.04.81,2.04,1.13,3.11l1.4,4.92ZM678.4,252.82l-11.05-11.83,2.28-2.27,10.56,5.65,2.19,1.19-1.18-2.49-4.95-10.95,2.03-2.03,11.1,11.81-1.46,1.41-9.27-9.87,5.92,13.2-1.38,1.39-12.77-6.77,9.47,10.09-1.48,1.46ZM690.94,239.96l-8.31-15.35,1.49-1.84,16.43,5.43-1.57,1.89-4.86-1.76-4.35,5.3,2.61,4.56-1.44,1.77ZM688.83,232.01l3.54-4.26-4.46-1.65c-1.37-.49-2.46-.94-3.31-1.28.7.89,1.27,1.79,1.81,2.68l2.42,4.51ZM703.43,223.94l-5.39-4.16-11.04-.66,1.5-2.06,5.77.38c1.06.04,2.11.15,3.13.32-.35-.93-.75-1.96-1.19-3.19l-1.91-5.44,1.49-2.04,3.52,10.96,5.42,4.15-1.3,1.76ZM14.32,353.15v66.07H0v-66.07h14.32ZM34.64,371.38v6.67h.28c1.64-2.79,3.76-4.81,6.37-6.07,2.62-1.25,5.29-1.89,8.02-1.89,3.47,0,6.31.47,8.52,1.43,2.22.97,3.98,2.29,5.25,3.98,1.28,1.68,2.16,3.77,2.68,6.2.52,2.44.78,5.14.78,8.11v29.42h-12.95v-27.02c0-3.95-.6-6.9-1.82-8.85-1.22-1.93-3.37-2.91-6.47-2.91-3.53,0-6.08,1.07-7.65,3.19-1.6,2.13-2.38,5.63-2.38,10.52v25.06h-12.94v-47.85h12.3ZM99.08,371.38v8.8h-9.49v23.69c0,2.19.37,3.7,1.11,4.43.71.73,2.18,1.12,4.36,1.12.72,0,1.43-.04,2.09-.08.67-.08,1.31-.19,1.92-.31v10.19c-1.1.16-2.32.29-3.65.37-1.34.07-2.65.11-3.92.11-2.01,0-3.91-.14-5.7-.42-1.79-.28-3.37-.84-4.74-1.63-1.36-.81-2.45-1.94-3.23-3.42-.79-1.48-1.2-3.44-1.2-5.83v-28.22h-7.84v-8.8h7.84v-14.34h12.93v14.34h9.49ZM115.94,407.74c1.94,1.92,4.74,2.89,8.38,2.89,2.61,0,4.86-.67,6.76-1.99,1.88-1.34,3.03-2.75,3.46-4.21h11.39c-1.83,5.73-4.62,9.83-8.39,12.29-3.77,2.47-8.33,3.71-13.67,3.71-3.71,0-7.04-.61-10.03-1.83-2.98-1.2-5.49-2.9-7.55-5.11-2.08-2.24-3.67-4.89-4.79-7.96-1.13-3.09-1.7-6.47-1.7-10.18s.58-6.92,1.73-9.98c1.17-3.09,2.81-5.76,4.93-8,2.12-2.26,4.67-4.04,7.61-5.31,2.95-1.31,6.21-1.96,9.8-1.96,4.01,0,7.5.77,10.48,2.36,2.97,1.58,5.42,3.7,7.35,6.34,1.9,2.65,3.28,5.68,4.13,9.07.86,3.38,1.17,6.93.91,10.63h-33.99c.19,4.27,1.25,7.35,3.19,9.25ZM130.57,382.57c-1.56-1.71-3.91-2.58-7.06-2.58-2.07,0-3.79.35-5.15,1.06-1.37.71-2.46,1.58-3.27,2.64-.82,1.04-1.4,2.14-1.73,3.31-.35,1.19-.54,2.23-.6,3.16h21.05c-.61-3.32-1.69-5.87-3.23-7.59ZM163.51,371.38v8.88h.18c.6-1.47,1.45-2.85,2.47-4.11,1.03-1.26,2.21-2.34,3.54-3.23,1.35-.91,2.77-1.6,4.29-2.1,1.52-.48,3.1-.73,4.74-.73.85,0,1.79.15,2.83.45v12.23c-.6-.14-1.34-.25-2.19-.33-.85-.09-1.67-.13-2.46-.13-2.37,0-4.37.39-6.01,1.19-1.64.79-2.97,1.89-3.96,3.29-1,1.4-1.72,3.02-2.15,4.85-.42,1.85-.63,3.86-.63,6.03v21.55h-12.95v-47.85h12.3ZM197.41,371.38v6.67h.28c1.64-2.79,3.78-4.81,6.37-6.07,2.62-1.25,5.3-1.89,8.03-1.89,3.47,0,6.3.47,8.52,1.43,2.23.97,3.97,2.29,5.26,3.98,1.27,1.68,2.16,3.77,2.68,6.2.5,2.44.77,5.14.77,8.11v29.42h-12.94v-27.02c0-3.95-.6-6.9-1.82-8.85-1.21-1.93-3.37-2.91-6.47-2.91-3.52,0-6.08,1.07-7.67,3.19-1.58,2.13-2.37,5.63-2.37,10.52v25.06h-12.93v-47.85h12.3ZM237.69,378.42c1.35-2.04,3.05-3.68,5.11-4.91,2.07-1.24,4.39-2.11,6.97-2.65,2.58-.52,5.18-.77,7.79-.77,2.38,0,4.77.16,7.2.51,2.43.34,4.65,1,6.66,1.98,2,.99,3.64,2.36,4.92,4.12,1.28,1.74,1.91,4.09,1.91,6.99v24.88c0,2.18.12,4.24.37,6.21.26,1.97.69,3.45,1.29,4.44h-13.13c-.26-.75-.44-1.51-.59-2.27-.16-.77-.27-1.57-.33-2.37-2.06,2.17-4.5,3.69-7.28,4.55-2.8.86-5.65,1.3-8.58,1.3-2.24,0-4.33-.28-6.28-.84-1.94-.57-3.64-1.43-5.1-2.59-1.47-1.18-2.59-2.64-3.42-4.43-.83-1.8-1.22-3.94-1.22-6.4,0-2.72.46-4.95,1.39-6.7.95-1.77,2.17-3.16,3.67-4.21,1.47-1.07,3.18-1.85,5.09-2.38,1.92-.51,3.85-.93,5.79-1.24,1.96-.31,3.87-.57,5.75-.73,1.89-.2,3.56-.46,5.02-.84,1.45-.38,2.61-.91,3.46-1.63.84-.71,1.24-1.74,1.18-3.09,0-1.44-.23-2.55-.68-3.38-.46-.84-1.07-1.5-1.83-1.94-.75-.46-1.64-.77-2.65-.92-1.01-.16-2.08-.25-3.24-.25-2.54,0-4.55.57-6.01,1.68-1.46,1.1-2.31,2.95-2.54,5.53h-12.95c.19-3.09.95-5.63,2.27-7.66ZM263.27,396.97c-.83.27-1.69.5-2.65.71-.93.17-1.92.33-2.94.45-1.05.11-2.08.27-3.1.47-.99.18-1.94.42-2.89.73-.94.32-1.75.73-2.46,1.25-.69.53-1.25,1.2-1.67,1.99-.43.79-.64,1.83-.64,3.05s.21,2.14.64,2.96c.42.81,1,1.44,1.72,1.9.73.46,1.58.78,2.55.98.97.19,1.98.27,3.02.27,2.55,0,4.53-.44,5.92-1.3,1.4-.86,2.43-1.89,3.11-3.1.66-1.19,1.07-2.4,1.22-3.64.16-1.25.23-2.23.23-2.97v-4.9c-.55.5-1.23.87-2.05,1.15ZM307.61,379.99c-2.07,0-3.81.46-5.19,1.44-1.4.95-2.54,2.19-3.44,3.7-.88,1.51-1.49,3.19-1.86,5-.37,1.8-.54,3.61-.54,5.41s.17,3.49.54,5.29c.38,1.77.96,3.39,1.78,4.84.81,1.46,1.93,2.64,3.33,3.57,1.39.92,3.1,1.39,5.11,1.39,3.09,0,5.47-.88,7.14-2.65,1.68-1.74,2.73-4.1,3.15-7.08h12.49c-.85,6.35-3.28,11.2-7.29,14.53-4.02,3.35-9.15,5.01-15.41,5.01-3.53,0-6.77-.61-9.71-1.83-2.94-1.2-5.44-2.86-7.52-5.02-2.05-2.17-3.68-4.74-4.82-7.74-1.16-2.98-1.72-6.28-1.72-9.85s.52-7.15,1.58-10.32c1.07-3.17,2.63-5.9,4.71-8.2,2.06-2.34,4.57-4.15,7.57-5.42,2.97-1.31,6.37-1.96,10.19-1.96,2.8,0,5.49.37,8.08,1.1,2.59.75,4.89,1.86,6.93,3.38,2.03,1.51,3.68,3.41,4.96,5.64,1.29,2.27,2.01,4.91,2.19,8.01h-12.68c-.84-5.48-4.03-8.24-9.56-8.24ZM334.58,363.98v-10.83h12.93v10.83h-12.93ZM347.52,371.38v47.85h-12.93v-47.85h12.93ZM354.81,384.92c1.15-3.11,2.8-5.75,4.93-7.95,2.13-2.18,4.68-3.88,7.65-5.09,2.98-1.18,6.32-1.79,10.03-1.79s7.06.61,10.08,1.79c2.99,1.21,5.56,2.91,7.69,5.09,2.13,2.2,3.77,4.84,4.92,7.95,1.15,3.12,1.73,6.59,1.73,10.42s-.58,7.29-1.73,10.37c-1.15,3.09-2.79,5.71-4.92,7.89-2.14,2.2-4.7,3.9-7.69,5.05-3.02,1.17-6.37,1.77-10.08,1.77s-7.05-.6-10.03-1.77c-2.97-1.15-5.52-2.85-7.65-5.05-2.13-2.18-3.78-4.81-4.93-7.89-1.15-3.07-1.73-6.53-1.73-10.37s.58-7.29,1.73-10.42ZM366.56,400.95c.38,1.8,1,3.45,1.89,4.89.86,1.45,2.03,2.63,3.5,3.5,1.44.85,3.27,1.28,5.45,1.28s4.03-.44,5.52-1.28c1.5-.87,2.68-2.05,3.56-3.5.86-1.44,1.5-3.09,1.87-4.89.36-1.83.53-3.69.53-5.61s-.17-3.78-.53-5.64c-.37-1.84-1-3.46-1.87-4.9-.88-1.43-2.07-2.58-3.56-3.46-1.49-.9-3.32-1.34-5.52-1.34-2.18,0-4.01.45-5.45,1.34-1.47.88-2.65,2.04-3.5,3.46-.89,1.44-1.51,3.06-1.89,4.9-.35,1.86-.53,3.72-.53,5.64s.18,3.78.53,5.61ZM419.35,371.38v6.67h.26c1.65-2.79,3.78-4.81,6.39-6.07,2.6-1.25,5.28-1.89,8.02-1.89,3.47,0,6.3.47,8.52,1.43,2.22.97,3.96,2.29,5.25,3.98,1.26,1.68,2.16,3.77,2.68,6.2.51,2.44.78,5.14.78,8.11v29.42h-12.95v-27.02c0-3.95-.61-6.9-1.83-8.85-1.21-1.93-3.37-2.91-6.45-2.91-3.53,0-6.09,1.07-7.67,3.19-1.6,2.13-2.36,5.63-2.36,10.52v25.06h-12.94v-47.85h12.3ZM459.63,378.42c1.33-2.04,3.04-3.68,5.1-4.91,2.06-1.24,4.38-2.11,6.98-2.65,2.58-.52,5.18-.77,7.79-.77,2.37,0,4.77.16,7.2.51,2.43.34,4.65,1,6.66,1.98,2,.99,3.64,2.36,4.92,4.12,1.28,1.74,1.9,4.09,1.9,6.99v24.88c0,2.18.12,4.24.38,6.21.22,1.97.65,3.45,1.25,4.44h-13.13c-.22-.75-.42-1.51-.57-2.27-.16-.77-.27-1.57-.31-2.37-2.08,2.17-4.5,3.69-7.3,4.55-2.8.86-5.65,1.3-8.58,1.3-2.24,0-4.34-.28-6.28-.84-1.93-.57-3.64-1.43-5.11-2.59-1.45-1.18-2.59-2.64-3.41-4.43-.81-1.8-1.23-3.94-1.23-6.4,0-2.72.48-4.95,1.42-6.7.93-1.77,2.15-3.16,3.64-4.21,1.49-1.07,3.19-1.85,5.09-2.38,1.92-.51,3.85-.93,5.78-1.24,1.95-.31,3.89-.57,5.76-.73,1.87-.2,3.55-.46,5.01-.84,1.46-.38,2.62-.91,3.45-1.63.86-.71,1.25-1.74,1.2-3.09,0-1.44-.22-2.55-.68-3.38-.46-.84-1.07-1.5-1.83-1.94-.76-.46-1.63-.77-2.64-.92-1-.16-2.08-.25-3.22-.25-2.57,0-4.57.57-6.03,1.68-1.45,1.1-2.31,2.95-2.55,5.53h-12.94c.19-3.09.94-5.63,2.29-7.66ZM485.18,396.97c-.82.27-1.69.5-2.63.71-.95.17-1.93.33-2.97.45-1.04.11-2.07.27-3.09.47-.98.18-1.94.42-2.87.73-.94.32-1.76.73-2.45,1.25-.7.53-1.27,1.2-1.69,1.99-.42.79-.64,1.83-.64,3.05s.22,2.14.64,2.96c.43.81,1,1.44,1.72,1.9.73.46,1.58.78,2.58.98.95.19,1.96.27,2.98.27,2.56,0,4.54-.44,5.93-1.3,1.42-.86,2.43-1.89,3.11-3.1.66-1.19,1.07-2.4,1.23-3.64.14-1.25.22-2.23.22-2.97v-4.9c-.55.5-1.22.87-2.06,1.15ZM520.33,353.15v66.07h-12.94v-66.07h12.94ZM527.35,365.44l8.74-13.1h14.31l-14.03,13.1h-9.02ZM540.66,371.38v47.85h-12.96v-47.85h12.96ZM569.26,381.28h-22.7v-9.91h39.76v9.91l-24.53,28.05h26.25v9.89h-43.3v-9.89l24.52-28.05ZM593.51,378.42c1.33-2.04,3.03-3.68,5.11-4.91,2.07-1.24,4.38-2.11,6.96-2.65,2.58-.52,5.19-.77,7.79-.77,2.37,0,4.77.16,7.21.51,2.44.34,4.65,1,6.64,1.98,2.03.99,3.66,2.36,4.93,4.12,1.27,1.74,1.92,4.09,1.92,6.99v24.88c0,2.18.13,4.24.37,6.21.23,1.97.66,3.45,1.28,4.44h-13.11c-.25-.75-.45-1.51-.6-2.27-.15-.77-.25-1.57-.32-2.37-2.07,2.17-4.49,3.69-7.29,4.55-2.79.86-5.66,1.3-8.55,1.3-2.26,0-4.35-.28-6.3-.84-1.94-.57-3.64-1.43-5.11-2.59-1.45-1.18-2.61-2.64-3.42-4.43-.82-1.8-1.22-3.94-1.22-6.4,0-2.72.46-4.95,1.42-6.7.94-1.77,2.14-3.16,3.63-4.21,1.49-1.07,3.19-1.85,5.11-2.38,1.93-.51,3.84-.93,5.79-1.24,1.95-.31,3.84-.57,5.74-.73,1.9-.2,3.56-.46,5.02-.84,1.45-.38,2.61-.91,3.46-1.63.84-.71,1.24-1.74,1.17-3.09,0-1.44-.2-2.55-.67-3.38-.46-.84-1.07-1.5-1.82-1.94-.77-.46-1.65-.77-2.65-.92-.99-.16-2.08-.25-3.24-.25-2.54,0-4.56.57-6,1.68-1.46,1.1-2.31,2.95-2.57,5.53h-12.94c.18-3.09.94-5.63,2.29-7.66ZM619.07,396.97c-.81.27-1.69.5-2.63.71-.95.17-1.94.33-2.96.45-1.02.11-2.07.27-3.1.47-.97.18-1.93.42-2.87.73-.94.32-1.75.73-2.45,1.25-.71.53-1.27,1.2-1.71,1.99-.42.79-.63,1.83-.63,3.05s.2,2.14.63,2.96c.43.81,1,1.44,1.73,1.9.75.46,1.6.78,2.56.98.98.19,1.97.27,3.01.27,2.55,0,4.52-.44,5.92-1.3,1.39-.86,2.43-1.89,3.1-3.1.66-1.19,1.07-2.4,1.24-3.64.13-1.25.2-2.23.2-2.97v-4.9c-.54.5-1.21.87-2.05,1.15ZM666.79,371.38v8.8h-9.49v23.69c0,2.19.39,3.7,1.11,4.43.73.73,2.18,1.12,4.36,1.12.73,0,1.44-.04,2.1-.08.68-.08,1.31-.19,1.92-.31v10.19c-1.08.16-2.3.29-3.66.37-1.33.07-2.64.11-3.92.11-2,0-3.89-.14-5.69-.42-1.79-.28-3.38-.84-4.75-1.63-1.36-.81-2.45-1.94-3.23-3.42-.8-1.48-1.18-3.44-1.18-5.83v-28.22h-7.86v-8.8h7.86v-14.34h12.92v14.34h9.49ZM683.66,407.74c1.94,1.92,4.72,2.89,8.37,2.89,2.62,0,4.86-.67,6.75-1.99,1.88-1.34,3.04-2.75,3.46-4.21h11.39c-1.82,5.73-4.62,9.83-8.39,12.29-3.76,2.47-8.31,3.71-13.67,3.71-3.69,0-7.03-.61-10.03-1.83-2.98-1.2-5.5-2.9-7.56-5.11-2.08-2.24-3.67-4.89-4.78-7.96-1.13-3.09-1.7-6.47-1.7-10.18s.59-6.92,1.72-9.98c1.18-3.09,2.81-5.76,4.94-8,2.14-2.26,4.68-4.04,7.62-5.31,2.95-1.31,6.2-1.96,9.78-1.96,4,0,7.51.77,10.47,2.36,2.99,1.58,5.43,3.7,7.35,6.34,1.92,2.65,3.28,5.68,4.12,9.07.87,3.38,1.18,6.93.93,10.63h-33.99c.19,4.27,1.24,7.35,3.2,9.25ZM698.29,382.57c-1.56-1.71-3.92-2.58-7.08-2.58-2.05,0-3.78.35-5.14,1.06-1.38.71-2.47,1.58-3.28,2.64-.81,1.04-1.38,2.14-1.72,3.31-.34,1.19-.53,2.23-.61,3.16h21.05c-.59-3.32-1.68-5.87-3.21-7.59Z" style="fill: #fff; stroke-width: 0px;"/>
    <path d="M68.65,273.96c7.44-.95,104.17-29.16,104.17-29.16,130.2-29.66,190.19-36.35,199.02-37.31,8.8-.96,19.06-3.84,23.23-4.29,4.22-.51,60-3.36,60-3.36-4.17,16.26-46.04,22.95-61.37,25.8-15.36,2.88-1.4,3.86-1.4,3.86,10.22.44,91.61-12.93,91.61-12.93,95.8-12.92,175.3-1.42,175.3-1.42,18.15,4.28,2.31,7.65-2.8,6.7-5.14-.98-16.74-1.46-16.74-1.46-20.92-2.87-123.7,12.41-124.15,12.41-21.41,0-84.16,4.32-84.16,4.32,0,0-48.36.52-62.32,5.78-13.98,5.25-21.84-.46-21.84-.46-5.12-.52-56.29,15.29-56.29,15.29-19.07,9.98-54.87,9.98-27.9-4.8,40.55-22.25,146.93-41.59,146.93-41.59-43.67-10.53-187.4,30.58-249.23,54.53-65.92,25.47-93,33.89-93,33.89l-14.64,3.83h-5.54c-.85,0-1.3-.44-2.18-.44h-7.1c-4.42,0-7.36.79-11.23-1.45-1.33-.76-1.16-2.4-2.52-3.11-2.09-1.08-3.97-.15-5.86-1.42-2.52-1.87-3-4.59-3-7.92s.73-5.97,3.25-8.36c1.75-1.67,4.07-.72,5.81-2.4,2.68-2.49,3.54-6.19,7.19-6.19,2.75,0,3.63,2.46,6.08,3.59,2.68,1.27,4.58,1.19,7.53,1.19,4.56,0,7.3.5,11.52-1.19,0,0,4.2-.97,11.63-1.92Z" style="fill: #ff5100; fill-rule: evenodd; stroke-width: 0px;"/>
  </g>
</svg>