<?xml version="1.0" encoding="UTF-8"?><!DOCTYPE svg PUBLIC "-//W3C//DTD SVG 1.1//EN" "http://www.w3.org/Graphics/SVG/1.1/DTD/svg11.dtd"><!-- Creator: CorelDRAW X7 --><svg width="1924" height="1179" viewBox="4525.8050286723 4394.4407677035 50921.923246581 31211.118464593" xmlns="http://www.w3.org/2000/svg" xmlns:xlink="http://www.w3.org/1999/xlink" xml:space="preserve" version="1.1" style="shape-rendering:geometricPrecision; text-rendering:geometricPrecision; image-rendering:optimizeQuality; fill-rule:evenodd; clip-rule:evenodd">
 <defs xmlns="http://www.w3.org/2000/svg">
  <style type="text/css">
   <![CDATA[
    .fil2 {fill:#069EE3}
    .fil1 {fill:#33AA43}
    .fil5 {fill:#4859AF}
    .fil0 {fill:#F82B41}
    .fil3 {fill:#FFD206}
    .fil4 {fill:#4859AF;fill-rule:nonzero}
   ]]>
  </style>
 </defs>
 <g xmlns="http://www.w3.org/2000/svg" id="Capa_x0020_1">
  <metadata id="CorelCorpID_0Corel-Layer"/>
  <g id="_540297648">
   <g>
    <path class="fil0" d="M25436 25757c1958,4892 6337,8553 11656,9502l-9 -2c269,15 538,23 810,23 6270,0 11617,-3947 13695,-9491 -38,60 -76,120 -115,180 -39,77 -80,154 -121,230 -16,30 -33,61 -50,91 -29,54 -60,108 -90,162 -16,28 -32,57 -48,85 -44,74 -87,149 -132,222 -16,27 -33,54 -50,81 -32,53 -65,106 -98,158 -19,30 -38,59 -57,89 -44,68 -88,136 -134,203 -16,24 -32,48 -48,71 -39,57 -78,114 -118,170 -20,28 -40,57 -61,86 -38,52 -76,104 -114,156 -17,23 -33,46 -50,68 -52,69 -104,137 -157,205 -21,27 -42,53 -63,79 -38,49 -77,97 -117,145 -20,25 -40,50 -60,75 -56,66 -111,132 -168,197 -19,23 -39,45 -58,67 -42,48 -84,96 -127,143 -23,26 -46,51 -68,76 -53,57 -106,114 -160,171 -18,19 -37,39 -55,58 -52,54 -104,107 -156,160 -24,23 -48,47 -71,70 -48,47 -95,94 -143,140 -19,18 -38,37 -57,55 -64,60 -128,120 -192,179 -23,20 -46,41 -68,61 -49,44 -97,87 -146,130 -23,20 -46,40 -69,60 -67,57 -134,114 -201,170 -20,16 -39,32 -59,47 -53,44 -106,87 -160,130 -25,19 -50,39 -74,58 -62,49 -125,97 -188,144 -14,11 -29,22 -43,32 -68,51 -137,101 -206,151 -25,18 -50,35 -75,53 -57,40 -114,80 -172,119 -20,14 -40,28 -61,42 -74,50 -149,99 -224,147 -23,15 -46,29 -69,44 -58,37 -117,73 -175,109 -25,15 -49,31 -74,46 -77,46 -155,92 -233,137 -17,10 -33,19 -50,28 -65,38 -131,74 -197,111 -26,14 -52,28 -77,42 -71,38 -141,75 -212,111 -13,7 -25,14 -38,20 -81,42 -164,83 -246,123 -25,12 -50,24 -75,36 -66,31 -132,62 -198,92 -22,10 -43,20 -65,30 -83,37 -167,74 -252,110 -22,9 -45,19 -67,28 -68,28 -135,56 -203,83 -25,10 -50,20 -76,30 -86,34 -173,67 -261,99 -12,5 -25,9 -37,14 -78,28 -156,55 -234,82 -26,9 -52,18 -78,26 -78,26 -156,52 -234,76 -13,4 -27,9 -41,13 -90,28 -180,55 -271,81 -25,7 -50,14 -75,21 -73,20 -146,40 -219,59 -23,6 -46,12 -69,18 -91,24 -183,46 -276,68 -20,4 -40,9 -61,13 -76,18 -152,34 -228,50 -26,6 -53,11 -79,16 -94,19 -189,38 -284,55 -6,1 -12,2 -19,3 -89,16 -180,31 -270,45 -27,4 -54,8 -80,12 -82,12 -164,24 -246,34 -17,2 -33,5 -49,7 -97,12 -193,23 -290,33 -25,3 -50,5 -76,7 -78,8 -156,15 -234,21 -24,2 -49,4 -73,6 -98,7 -196,14 -294,19 -19,1 -38,1 -56,2 -83,4 -166,7 -248,10 -28,0 -56,1 -83,2 -100,2 -200,4 -301,4 -110,0 -221,-2 -330,-4l-14 -1c-108,-3 -216,-7 -323,-12l-14 -1c-105,-5 -211,-12 -316,-20l-16 -1c-104,-8 -207,-17 -310,-28l-29 -3c-101,-10 -201,-21 -300,-34 -11,-1 -22,-3 -33,-4 -94,-12 -189,-25 -282,-40 -15,-2 -30,-4 -45,-6 -93,-15 -186,-30 -279,-47 -18,-3 -36,-6 -54,-9 -85,-16 -170,-32 -254,-49 -25,-5 -50,-10 -76,-15 -80,-17 -160,-35 -240,-53 -26,-6 -51,-12 -77,-18 -76,-17 -151,-36 -225,-55 -35,-8 -70,-17 -104,-26 -68,-18 -136,-36 -204,-55 -40,-12 -80,-23 -119,-34 -60,-18 -118,-35 -177,-53 -46,-14 -92,-28 -138,-43 -55,-17 -109,-35 -163,-53 -49,-16 -98,-33 -146,-49 -49,-17 -97,-34 -145,-51 -58,-21 -115,-42 -173,-64 -40,-15 -80,-30 -121,-46 -63,-24 -127,-49 -190,-75 -31,-12 -63,-25 -94,-38 -65,-27 -130,-54 -194,-82 -32,-14 -63,-28 -95,-42 -69,-30 -137,-61 -205,-93 -31,-14 -62,-28 -93,-43l-1 0 0 0c-3118,-1114 -5746,-3257 -7477,-6019 -131,8 -263,12 -397,12 -310,0 -624,-24 -942,-70z"/>
    <path class="fil1" d="M55331 20000c0,-7626 -5507,-13965 -12761,-15259l9 2c-268,-15 -538,-23 -810,-23 -6133,0 -11383,3777 -13553,9132 19,6 38,12 57,19 12,-23 24,-46 37,-70 17,-30 33,-61 50,-91 30,-54 60,-108 90,-162 16,-28 32,-56 49,-85 43,-74 87,-149 131,-222 17,-27 33,-54 50,-81 32,-53 65,-106 99,-158 18,-30 37,-59 56,-89 44,-68 89,-136 134,-203 16,-24 32,-48 49,-71 38,-57 77,-114 117,-170 20,-28 41,-57 61,-86 38,-52 76,-104 114,-156 17,-23 34,-46 51,-68 51,-69 104,-137 157,-205 20,-27 41,-53 62,-79 39,-49 78,-97 117,-145 20,-25 40,-50 61,-75 55,-66 111,-132 167,-197 19,-23 39,-45 58,-67 42,-48 85,-96 128,-143 22,-26 45,-51 68,-76 52,-57 106,-114 159,-171 19,-19 37,-39 56,-58 51,-54 103,-107 156,-160 23,-23 47,-47 71,-70 47,-47 94,-94 142,-140 19,-18 38,-37 57,-55 64,-60 128,-120 192,-179 23,-20 46,-41 69,-61 48,-44 97,-87 146,-130 22,-20 45,-40 68,-60 67,-57 134,-114 202,-170 19,-16 39,-32 58,-47 53,-44 107,-87 160,-130 25,-19 50,-39 75,-58 62,-49 124,-97 187,-144 15,-11 29,-22 43,-32 69,-51 137,-101 207,-151 25,-18 50,-35 75,-53 56,-40 114,-80 171,-119 20,-14 41,-28 61,-42 74,-50 149,-99 224,-147 23,-15 46,-29 69,-44 58,-37 117,-73 176,-109 24,-15 49,-31 73,-46 77,-46 155,-92 233,-137 17,-10 34,-19 50,-28 66,-38 131,-74 197,-111 26,-14 52,-28 78,-42 70,-38 140,-75 211,-111 13,-7 26,-14 38,-20 82,-42 164,-83 246,-123 25,-12 51,-24 76,-36 65,-31 131,-62 197,-92 22,-10 43,-20 65,-30 84,-37 168,-74 252,-110 23,-9 45,-19 67,-28 68,-28 136,-56 204,-83 25,-10 50,-20 75,-30 87,-34 174,-67 261,-99 13,-5 25,-9 38,-14 77,-28 155,-55 233,-82 26,-9 52,-18 79,-26 77,-26 155,-52 233,-76 14,-4 27,-9 41,-13 90,-28 180,-55 271,-81 25,-7 50,-14 76,-21 72,-20 145,-40 218,-59 23,-6 46,-12 69,-18 92,-24 184,-46 276,-68 20,-4 41,-9 61,-13 76,-18 152,-34 228,-50 27,-6 53,-11 79,-16 95,-19 189,-38 284,-55 7,-1 13,-2 19,-3 90,-16 180,-31 270,-45 27,-4 54,-8 81,-12 81,-12 163,-24 245,-34 17,-2 33,-5 50,-7 96,-12 192,-23 289,-33 25,-3 51,-5 76,-7 78,-8 156,-15 234,-21 25,-2 49,-4 74,-6 97,-7 195,-14 294,-19 18,-1 37,-1 56,-2 82,-4 165,-7 248,-10 27,0 55,-1 82,-2 100,-2 201,-4 301,-4 111,0 221,2 331,4l13 1c108,3 216,7 324,12l13 1c106,5 211,12 316,20l16 1c104,8 207,17 310,28l30 3c100,10 200,21 299,34 11,1 22,3 33,4 95,12 189,25 283,40 14,2 29,4 44,6 93,15 187,30 279,47 19,3 37,6 55,9 84,16 169,32 253,49 25,5 51,10 76,15 80,17 160,35 240,53 26,6 52,12 77,18 76,17 151,36 226,55 34,8 69,17 103,26 68,18 136,36 204,55 40,12 80,23 120,34 59,18 118,35 176,53 47,14 93,28 138,43 55,17 109,35 164,53 48,16 97,33 145,49 49,17 97,34 145,51 58,21 116,42 173,64 40,15 81,30 121,46 64,24 127,49 190,75 32,12 63,25 95,38 64,27 129,54 193,82 32,14 64,28 95,42 69,30 137,61 206,93 30,14 61,28 92,43l2 0 0 0c5654,2021 9700,7424 9700,13772 0,272 -8,542 -23,810 160,-892 243,-1810 243,-2748z"/>
    <path class="fil2" d="M39831 35500c7626,0 13966,-5507 15259,-12761l-2 9c15,-268 23,-538 23,-810 0,-6270 -3947,-11617 -9491,-13695 60,38 120,76 180,115 77,39 154,80 230,121 30,16 61,33 91,50 54,30 108,60 162,90 28,16 57,32 85,49 74,43 149,86 222,131 27,16 54,33 81,50 53,32 106,65 158,99 30,18 59,37 89,56 68,44 136,88 203,134 24,16 48,32 72,48 56,39 113,78 169,118 29,20 57,41 86,61 53,38 105,76 157,114 22,17 45,34 67,50 69,52 138,104 205,157 27,21 53,42 79,63 49,39 97,78 145,117 25,20 50,40 75,61 66,55 132,110 198,167 22,19 44,39 66,58 48,42 96,85 143,127 26,23 51,46 76,69 57,52 114,105 171,159 19,19 39,37 58,55 54,52 107,104 160,156 23,24 47,48 71,72 46,47 93,94 139,142 18,19 37,38 55,57 60,64 120,128 179,192 20,23 41,46 61,69 44,48 87,96 130,145 20,23 40,46 60,69 57,67 114,134 170,201 16,20 32,39 48,59 43,53 86,106 129,160 19,25 39,50 58,75 49,62 97,124 144,187 11,15 22,29 33,43 50,69 101,137 150,207 18,24 35,49 53,74 40,57 80,114 119,172 14,20 28,41 42,61 50,74 99,149 147,224 15,23 30,46 44,69 37,58 73,117 110,175 15,25 30,49 45,74 46,77 92,155 137,233 10,17 19,33 29,50 37,65 74,131 110,197 14,26 28,52 42,78 38,70 75,140 112,211 6,13 13,25 19,38 42,82 83,164 123,246 12,25 24,50 36,76 31,65 62,131 92,197 10,22 20,43 30,65 37,83 74,167 110,252 9,22 19,45 28,67 28,68 56,135 83,203 10,26 20,51 30,76 34,86 67,174 99,261 5,13 9,25 14,38 28,77 55,155 82,233 9,26 18,52 27,79 25,77 51,155 75,233 5,14 9,27 13,41 28,90 55,180 81,271 7,25 14,50 21,76 21,72 40,145 59,218 6,23 12,46 18,69 24,91 46,184 68,276 4,20 9,41 13,61 18,76 34,152 50,228 6,26 11,53 16,79 20,94 38,189 55,284 1,6 2,13 3,19 16,89 31,180 45,270 4,27 8,54 12,81 12,81 24,163 34,245 3,17 5,33 7,50 12,96 23,192 33,289 3,25 5,51 8,76 7,78 14,156 20,234 2,25 4,49 6,74 8,97 14,195 19,294 1,18 2,37 2,56 4,82 7,165 10,248 1,27 1,55 2,82 2,100 4,200 4,301 0,111 -2,221 -4,331l-1 13c-2,108 -7,216 -12,323l-1 14c-5,106 -12,211 -20,316l-1 16c-8,104 -17,207 -27,310l-3 29c-11,101 -22,201 -35,300 -1,11 -2,22 -4,33 -12,94 -25,189 -39,283 -3,14 -5,29 -7,44 -15,93 -30,186 -46,279 -4,18 -7,36 -10,55 -16,84 -32,169 -49,253 -5,25 -10,50 -15,76 -17,80 -34,160 -53,240 -5,26 -11,52 -17,77 -18,76 -36,151 -55,226 -9,34 -18,69 -27,103 -18,68 -36,136 -55,204 -11,40 -23,80 -34,120 -17,59 -35,118 -53,176 -14,46 -28,92 -43,138 -17,55 -35,109 -53,163 -16,49 -32,98 -49,146 -17,49 -34,97 -51,145 -21,58 -42,115 -63,173 -16,40 -31,81 -46,121 -25,63 -50,127 -76,190 -12,32 -25,63 -38,94 -27,65 -54,130 -82,194 -14,32 -28,63 -42,95 -30,69 -61,137 -92,205 -15,31 -29,62 -44,93l0 1 0 0c-2021,5654 -7424,9701 -13772,9701 -272,0 -541,-8 -810,-23 892,160 1810,243 2748,243z"/>
    <path class="fil3" d="M39831 4500c-6278,0 -11684,3733 -14120,9100 219,-23 441,-34 667,-34 456,0 907,50 1352,151 165,38 327,83 485,135 2171,-5355 7421,-9132 13554,-9132 272,0 542,8 810,23 -892,-160 -1810,-243 -2748,-243zm-13056 21315c1692,2700 4242,4808 7268,5942 -61,-38 -121,-76 -181,-115 -77,-39 -153,-80 -229,-121 -31,-16 -62,-33 -92,-50 -54,-30 -108,-60 -162,-90 -28,-16 -56,-32 -85,-49 -74,-43 -148,-86 -222,-131 -27,-16 -54,-33 -81,-50 -53,-32 -106,-65 -158,-99 -30,-18 -59,-37 -88,-56 -69,-44 -137,-88 -204,-134 -24,-16 -47,-32 -71,-48 -57,-39 -113,-78 -170,-118 -28,-20 -57,-41 -86,-61 -52,-38 -104,-76 -156,-114 -23,-17 -46,-34 -68,-50 -69,-52 -137,-104 -205,-157 -26,-21 -53,-42 -79,-63 -49,-38 -97,-78 -145,-117 -25,-20 -50,-40 -74,-61 -67,-55 -133,-110 -198,-167 -23,-19 -44,-39 -67,-58 -48,-42 -96,-85 -143,-127 -25,-23 -50,-46 -75,-69 -58,-52 -115,-105 -172,-159 -19,-18 -38,-37 -58,-55 -53,-52 -107,-104 -159,-156 -24,-24 -48,-48 -71,-71 -47,-48 -93,-95 -140,-143 -18,-19 -37,-38 -55,-57 -60,-64 -120,-128 -178,-192 -21,-23 -42,-46 -62,-69 -44,-48 -87,-96 -130,-145 -20,-23 -40,-46 -60,-69 -57,-67 -114,-134 -170,-201 -16,-20 -31,-39 -47,-59 -44,-53 -87,-106 -129,-160 -20,-25 -40,-50 -59,-75 -48,-62 -96,-124 -144,-187 -11,-15 -22,-29 -32,-43 -51,-68 -101,-137 -151,-207 -18,-24 -35,-49 -53,-74 -40,-57 -79,-114 -119,-172 -14,-20 -28,-41 -42,-61 -49,-74 -99,-149 -147,-224 -15,-23 -29,-46 -44,-69 -37,-58 -73,-117 -109,-175 -15,-25 -30,-49 -45,-74 -47,-77 -93,-155 -138,-233 -10,-17 -19,-33 -28,-50 -38,-65 -74,-131 -111,-197 -14,-26 -28,-52 -42,-78 -37,-70 -75,-140 -111,-211 -7,-13 -14,-25 -20,-38 -42,-82 -82,-164 -122,-246 -13,-25 -24,-50 -36,-76l-4 -7c-402,106 -816,171 -1241,196z"/>
   </g>
   <path class="fil4" d="M7656 15873l1362 0 0 1405 -1362 0 0 3786c0,355 52,592 157,710 105,119 314,178 629,178 209,0 401,-20 576,-59l0 1641c-157,30 -332,50 -524,60 -192,9 -380,14 -563,14 -289,0 -561,-22 -819,-66 -258,-45 -485,-133 -681,-266 -197,-134 -352,-318 -465,-555 -114,-237 -171,-547 -171,-932l0 -4511 -1126 0 0 -1405 1126 0 0 -2293 1861 0 0 2293zm20298 3002c-97,-532 -268,-937 -513,-1213 -246,-276 -619,-414 -1120,-414 -328,0 -600,57 -817,170 -217,114 -390,254 -520,422 -130,168 -222,345 -275,532 -53,188 -84,355 -94,503l3339 0zm-3339 1331c29,671 198,1161 506,1472 309,311 752,466 1330,466 414,0 770,-106 1069,-318 299,-212 482,-436 549,-673l1807 0c-289,907 -733,1563 -1330,1967 -597,404 -1320,607 -2168,607 -587,0 -1117,-99 -1589,-296 -472,-197 -872,-473 -1200,-828 -327,-355 -580,-779 -758,-1272 -178,-494 -268,-1036 -268,-1627 0,-572 92,-1105 275,-1598 183,-493 443,-919 780,-1279 338,-360 740,-644 1207,-851 467,-207 985,-310 1553,-310 636,0 1190,125 1662,377 472,251 860,589 1164,1013 303,424 522,907 657,1449 135,543 183,1110 145,1701l-5391 0zm-5544 -7247l1939 0 0 10561 -1939 0 0 -10561zm-3607 5916c-97,-532 -268,-937 -513,-1213 -246,-276 -619,-414 -1120,-414 -328,0 -600,57 -817,170 -217,114 -390,254 -520,422 -130,168 -222,345 -275,532 -53,188 -84,355 -93,503l3338 0zm-3338 1331c28,671 197,1161 505,1472 309,311 752,466 1330,466 414,0 770,-106 1069,-318 299,-212 482,-436 549,-673l1807 0c-289,907 -733,1563 -1330,1967 -597,404 -1320,607 -2167,607 -588,0 -1118,-99 -1590,-296 -472,-197 -872,-473 -1199,-828 -328,-355 -581,-779 -759,-1272 -178,-494 -267,-1036 -267,-1627 0,-572 91,-1105 274,-1598 183,-493 443,-919 780,-1279 338,-360 740,-644 1207,-851 467,-207 985,-310 1554,-310 635,0 1189,125 1661,377 472,251 860,589 1164,1013 303,424 522,907 657,1449 135,543 183,1110 145,1701l-5390 0z"/>
   <path class="fil5" d="M34722 25653l3035 0 0 -11875 -2349 0 -2239 1614 0 2182 1553 0 0 8079zm7455 0l3035 0 0 -11875 -2349 0 -2239 1614 0 2182 1553 0 0 8079z"/>
  </g>
 </g>
</svg>