<svg width="1000" height="1000" viewBox="0 0 1000 1000" fill="none" xmlns="http://www.w3.org/2000/svg">
<!-- PBS KIDS and the PBS KIDS Logo are trademarks owned by Public Broadcasting Service. Used with permission. -->
<path d="M500 0C223.847 0 0 223.861 0 500C0 776.139 223.847 1000 500 1000C776.153 1000 1000 776.153 1000 500C1000 223.847 776.097 0 500 0Z" fill="#2638C4"/>
<path d="M381.25 802.306C370.863 805.38 360.252 807.642 349.514 809.069C343.556 809.903 332.444 811.194 327.014 811.681C316.681 800.721 305.669 790.423 294.042 780.847C274.597 764.778 258.819 753.792 258.819 753.792C255.819 757.125 252.194 761.069 249.097 763.944C254.056 792.222 258.653 824.097 258.653 824.097C251.959 826.474 245.085 828.309 238.097 829.583C231.021 830.869 223.856 831.612 216.667 831.806C216.667 831.806 211.778 793.542 202.278 740.347C192.778 687.153 184.153 654.667 184.153 654.667C190.663 652.319 197.358 650.516 204.167 649.278C211.439 647.971 218.796 647.196 226.181 646.958C226.181 646.958 234 680.444 240.75 717.208C261.722 693.375 276 668.597 289.736 634.444C296.111 632.694 304.514 630.861 310.722 629.736C320.136 627.977 329.65 626.799 339.208 626.208C326.398 660.263 308.718 692.281 286.722 721.264C302.242 731.792 317.15 743.195 331.375 755.417C357.153 777.333 381.25 802.306 381.25 802.306ZM400.111 800.917C400.111 800.917 400.5 751.222 398.292 705.278C396.083 659.333 392.597 620.972 392.597 620.972C399.436 619.412 406.417 618.555 413.431 618.417C420.716 617.995 428.025 618.251 435.264 619.181C435.264 619.181 438.583 650.222 440.944 703.5C443.306 756.778 442.778 799.139 442.778 799.139C435.913 800.549 428.946 801.404 421.944 801.694C414.657 801.977 407.359 801.717 400.111 800.917V800.917ZM653.014 709.25C651.792 768.528 609.5 803.917 546.472 802.611C526.35 802.389 506.268 800.755 486.375 797.722C486.375 797.722 489.708 758.833 490.875 705.667C492.042 652.5 490.069 618.5 490.069 618.5C505.014 616.278 523.111 614.681 549.472 615.236C617.375 616.667 654.167 654.167 653.014 709.264V709.25ZM606.014 708.861C606.681 676.542 587.333 655.347 550.667 654.597C544.931 654.486 538.917 654.361 532.319 654.778C532.319 654.778 534.028 675.611 533.236 707.444C532.444 739.278 530.097 762.653 530.097 762.653C536.389 763.069 542.694 763.472 549.542 763.625C584.806 764.361 605.319 742.861 606.014 708.875V708.861ZM664.708 786.889C671.3 775.609 680.005 765.706 690.347 757.722C700.403 769.347 717.847 780.361 738.958 784.361C759.222 788.208 768.319 783.347 770.139 773.681C771.875 764.569 768.361 758.472 738.056 744.514C709 731.583 684.444 714.917 690.903 679.236C697.333 645.278 729.056 628.681 770.722 636.569C801.986 642.486 820.944 656.375 830.069 666.681C824.777 679.019 815.778 689.407 804.319 696.403C792.41 684.656 777.218 676.796 760.75 673.861C744.083 670.722 733.986 675.083 732.417 683.361C730.736 692.208 733.958 696.819 764.875 710.667C797.097 725.347 817.514 743.806 812.097 775.653C805.681 814.194 774.347 830.278 730.986 822.069C694.639 815.167 674.361 799.028 664.708 786.903V786.889Z" fill="white"/>
<path d="M861.361 331.778C804.556 283.333 765.278 299.542 762.278 317.361C759.611 332.931 773.389 345.139 806.5 359.542C844.889 376.278 898.875 405.458 888.722 474.042C879.236 538.639 826.306 578.736 757.625 569.361C717.625 563.875 674.986 540.847 649.292 509.806C649.292 509.806 656.639 497.792 672.333 479.347C687.611 461.292 700.708 448.792 700.708 448.792C718.764 469.847 746.542 489.806 772.319 492.556C804.264 495.958 824.361 458.278 773.833 436.528C703 406.056 668.389 371.944 675.667 315.014C684.5 246.889 739.556 204.111 812.542 217.708C871.292 228.597 911.583 270.75 911.583 270.75C911.583 270.75 904.639 283.708 889.917 302.861C875.194 322.014 861.361 331.778 861.361 331.778ZM596.208 360.736C630.278 376.556 647.069 400.847 647.056 440.889C647.056 504.667 590.542 548.875 515.111 548.945C454.681 548.945 415.847 542 394.347 536.195C403.986 434.889 403.986 309.125 391.681 198.208C428.85 188.19 467.157 183.008 505.653 182.792C585.222 182.792 629.681 223.875 629.722 285.5C629.722 299.5 624.389 344.167 596.153 360.736H596.208ZM479.667 261.111C479.667 261.111 481.764 294.444 481.764 331.944C515.611 339.389 552.764 331.556 552.764 296.847C552.764 262.139 520.181 251.389 479.667 261.111ZM561.944 438.208C561.944 402.57 520.139 393.764 481.708 401.042C481.708 441.319 479.042 473.083 479.042 473.083C519.819 481.222 561.944 473.861 561.944 438.208ZM194.125 220.292C285.5 197.806 355.486 231.097 371.097 303.944C386.264 374.778 342.306 442.125 259.278 462.528L238.222 467.153C238.222 467.153 247.556 513.486 256.278 567.056C227.075 574.881 197.489 581.204 167.639 586C154.847 478.389 131.083 360.611 99.0833 255.069C122.125 242.833 161.417 228.306 194.167 220.347L194.125 220.292ZM234.319 389.306C276.306 379.042 293.208 357.125 286.931 328.194C280.958 300.222 256.625 284.778 223.889 292.764C217.361 294.389 201.861 299.819 201.861 299.819L221.5 391.389C225.82 391.005 230.105 390.3 234.319 389.278" fill="#99CF16"/>
</svg>
