<?xml version="1.0" encoding="UTF-8" standalone="no"?>
<!-- Generator: Adobe Illustrator 27.0.0, SVG Export Plug-In . SVG Version: 6.00 Build 0)  -->

<svg
   version="1.1"
   id="Layer_1"
   x="0px"
   y="0px"
   viewBox="0 0 1000 187.48462"
   xml:space="preserve"
   sodipodi:docname="Shop LC inkscape.svg"
   inkscape:version="1.2 (dc2aedaf03, 2022-05-15)"
   width="1000"
   height="187.48462"
   xmlns:inkscape="http://www.inkscape.org/namespaces/inkscape"
   xmlns:sodipodi="http://sodipodi.sourceforge.net/DTD/sodipodi-0.dtd"
   xmlns="http://www.w3.org/2000/svg"
   xmlns:svg="http://www.w3.org/2000/svg"><defs
   id="defs218"><inkscape:path-effect
     effect="fillet_chamfer"
     id="path-effect14890"
     is_visible="true"
     lpeversion="1"
     nodesatellites_param="F,0,0,1,0,5.0188591,0,1 @ F,0,0,1,0,9.8008886,0,1 @ F,0,0,1,0,9.8008886,0,1 @ F,0,0,1,0,5.0188591,0,1 @ F,0,0,1,0,7.8870087,0,1"
     unit="px"
     method="auto"
     mode="F"
     radius="0"
     chamfer_steps="1"
     flexible="false"
     use_knot_distance="true"
     apply_no_radius="true"
     apply_with_radius="true"
     hide_knots="false" /></defs><sodipodi:namedview
   id="namedview216"
   pagecolor="#ffffff"
   bordercolor="#999999"
   borderopacity="1"
   inkscape:showpageshadow="0"
   inkscape:pageopacity="0"
   inkscape:pagecheckerboard="0"
   inkscape:deskcolor="#d1d1d1"
   showgrid="false"
   inkscape:zoom="0.30722392"
   inkscape:cx="528.93017"
   inkscape:cy="-310.84819"
   inkscape:current-layer="Layer_1" />






<g
   id="g3621"
   style="fill:#ed1d24;fill-opacity:1"
   transform="matrix(0.4545766,0,0,0.4545766,189.83362,-80.988326)"><path
     d="m 1164.1499,188.4 h 69.8 v 330.1 h 166.7 v 62 h -236.5 z"
     id="path211"
     style="fill:#ed1d24;fill-opacity:1" /><path
     d="m 1723.0439,280.3 c -20.5,-28.3 -57.6,-40.4 -89.2,-40.4 -80.9,0 -135.7,62.6 -135.7,143.5 0,85.3 52.1,144.6 132.9,144.6 42.1,0 75.3,-18.3 95.3,-45.4 l 55.9,39.3 c -34.3,43.2 -85.3,68.7 -151.8,68.7 -122.4,0 -209.4,-84.8 -209.4,-207.2 0,-125.7 91.9,-205 212.7,-205 51,0 111.3,18.8 142.3,59.8 z"
     id="path213"
     style="fill:#ed1d24;fill-opacity:1" /></g>
<g
   id="g4347"
   style="fill:#2780dc;fill-opacity:1"
   transform="matrix(0.4545766,0,0,0.4545766,189.83362,-80.988326)"><path
     d="m -188.40535,270.3 c -15,-19.4 -44.3,-33.8 -72,-33.8 -32.1,0 -69.2,15.5 -69.2,53.7 0,36 30.4,46.5 74.8,60.4 50.4,15.5 114.7,37.7 114.7,114.7 0,84.2 -65.9,125.2 -142.9,125.2 -51,0 -103.6,-19.4 -134.6,-56 l 49.9,-46.5 c 19.4,26.6 54.8,43.2 85.9,43.2 32.7,0 70.9,-16.1 70.9,-58.2 0,-41 -41,-52.6 -90.3,-68.1 -47.6,-15 -99.1,-38.2 -99.1,-111.3 0,-79.8 72.5,-115.2 143.5,-115.2 39.3,0 84.2,13.8 114.1,42.1 z"
     id="path203"
     style="fill:#2780dc;fill-opacity:1" /><path
     d="m -100.41425,188.4 h 69.800125 V 346.8 H 152.68575 V 188.4 h 69.8 v 392.2 h -69.8 v -174 H -30.614125 v 173.9 h -69.800125 z"
     id="path205"
     style="fill:#2780dc;fill-opacity:1" /><path
     d="m 720.04756,188.4 h 128 c 89.7,0 147.9,31.6 147.9,113.5 0,86.4 -69.2,116.3 -152.3,116.3 h -53.7 v 162.3 h -69.8 V 188.4 Z m 118.5,171.1 c 45.4,0 87,-11.1 87,-57.6 0,-46.5 -41.6,-54.8 -84.8,-54.8 h -51 v 112.5 h 48.8 z"
     id="path209"
     style="fill:#2780dc;fill-opacity:1" /><path
     id="path207"
     style="fill:#2780dc;fill-opacity:1;stroke-width:1.00157;stroke-dasharray:none"
     d="m 470.53516,178.16211 c -120.79952,0 -209.99844,79.20052 -209.89844,205 0,122.39952 89.09892,207.19922 209.89844,207.19922 122.39948,0 211.60156,-84.7997 211.60156,-207.19922 0,-32.11113 -5.84256,-61.16366 -16.53516,-86.66016 -16.22966,9.96476 -37.68172,18.68045 -57.34961,22.56446 -10.16152,2.00667 -19.83503,2.74898 -28.2832,1.41992 -8.44817,-1.32906 -16.21962,-4.99383 -20.36523,-12.0625 -2.75212,-4.69262 -4.07844,-9.83343 -4.36524,-15.23633 a 18.560329,18.560329 0 0 0 -13.73242,17.59961 18.560329,18.560329 0 0 0 18.56055,18.56055 18.560329,18.560329 0 0 0 12.10351,-4.56446 c 2.25491,0.72864 4.56451,1.26666 6.86719,1.62891 9.51526,1.49693 19.76114,0.63742 30.37695,-1.45899 1.88063,-0.37136 3.77224,-0.79039 5.66992,-1.24023 v 60.12695 a 10.608725,10.608725 0 0 1 -3.88086,8.20313 L 417.94336,550.58203 A 9.8009163,9.8009163 0 0 1 404.14844,549.2207 L 296.08398,417.49023 a 9.8008667,9.8008667 0 0 1 1.36133,-13.79492 L 490.61914,245.22656 a 10.606254,10.606254 0 0 1 8.80274,-2.20117 l 65.55273,13.07813 c 0.0172,-0.0357 0.0335,-0.0718 0.0508,-0.10743 8.08856,-16.71402 19.6511,-32.71476 29.74023,-43.80664 -34.23287,-21.99306 -76.69036,-34.02734 -124.23046,-34.02734 z m 132.97656,40.0293 c -9.1042,9.81509 -20.13395,24.8044 -27.86524,40.04101 l 31.70313,6.32617 a 9.6160512,9.6160512 0 0 1 7.73437,9.42969 v 26.47266 c -3.41197,0.95903 -6.77462,1.77562 -10.02734,2.41797 -8.9122,1.75993 -17.00977,2.17404 -22.52344,1.30664 -2.69858,-0.42454 -4.56231,-1.02291 -5.88476,-1.71485 a 18.560329,18.560329 0 0 0 -10.70313,-9.14453 c 0.2335,3.71344 1.09695,7.0251 2.7168,9.78711 2.1266,3.62605 6.35871,5.96472 12.93945,7 6.58076,1.03528 15.25069,0.50204 24.61719,-1.34766 18.58335,-3.66981 39.93149,-12.43324 55.01758,-21.90429 -13.53981,-27.88116 -33.29018,-50.97208 -57.72461,-68.66992 z" /></g></svg>
